G04 #@! TF.FileFunction,Copper,L2,Bot,Signal*
%FSLAX46Y46*%
G04 Gerber Fmt 4.6, Leading zero omitted, Abs format (unit mm)*
G04 Created by KiCad (PCBNEW 4.0.6+dfsg1-1) date Thu Dec 21 22:59:20 2017*
%MOMM*%
%LPD*%
G01*
G04 APERTURE LIST*
%ADD10C,0.100000*%
%ADD11R,1.700000X1.700000*%
%ADD12O,1.700000X1.700000*%
%ADD13R,0.700000X1.200000*%
%ADD14R,1.000000X1.200000*%
%ADD15R,1.000000X0.800000*%
%ADD16R,1.000000X2.800000*%
%ADD17R,1.300000X1.900000*%
%ADD18R,3.000000X1.500000*%
%ADD19R,4.000000X4.000000*%
%ADD20R,1.270000X4.191000*%
%ADD21R,2.600000X3.300000*%
%ADD22C,0.500000*%
%ADD23C,0.200000*%
%ADD24C,0.400000*%
%ADD25C,0.150000*%
G04 APERTURE END LIST*
D10*
D11*
X68322000Y-76378000D03*
D12*
X68322000Y-78918000D03*
X68322000Y-81458000D03*
X68322000Y-83998000D03*
X68322000Y-86538000D03*
X68322000Y-89078000D03*
X68322000Y-91618000D03*
X68322000Y-94158000D03*
X68322000Y-96698000D03*
X68322000Y-99238000D03*
X68322000Y-101778000D03*
X68322000Y-104318000D03*
X68322000Y-106858000D03*
X68322000Y-109398000D03*
X68322000Y-111938000D03*
D13*
X61150000Y-106100000D03*
X60200000Y-106100000D03*
X52500000Y-106100000D03*
X53600000Y-106100000D03*
X54700000Y-106100000D03*
X55800000Y-106100000D03*
X56900000Y-106100000D03*
X58000000Y-106100000D03*
X59100000Y-106100000D03*
D14*
X50950000Y-106100000D03*
X62100000Y-110400000D03*
D15*
X62100000Y-116600000D03*
D16*
X62100000Y-120750000D03*
D17*
X48600000Y-121200000D03*
D18*
X48750000Y-75500000D03*
X68450000Y-75500000D03*
D19*
X53100000Y-76800000D03*
X61100000Y-76800000D03*
D20*
X54246300Y-76895500D03*
X49953700Y-76895500D03*
D21*
X64700000Y-77150000D03*
D22*
X69500000Y-87800000D03*
X48900000Y-97400000D03*
X48900000Y-98700000D03*
X58600000Y-82600000D03*
X66950000Y-81200000D03*
X67500000Y-87800000D03*
X66400000Y-87800000D03*
X65900000Y-97300000D03*
X64850000Y-100400000D03*
X66800000Y-78800000D03*
X49200000Y-107150000D03*
X58800000Y-110400000D03*
X52900000Y-98950000D03*
X60800000Y-102350000D03*
X51300000Y-114450000D03*
X47900000Y-114450000D03*
X54450000Y-82700000D03*
X49050000Y-78850000D03*
X47850000Y-78550000D03*
X53800000Y-84450000D03*
X62800000Y-80000000D03*
X61000000Y-80000000D03*
X52100000Y-84550000D03*
X57400000Y-103400000D03*
X47850000Y-103650000D03*
X66500000Y-92800000D03*
X65900000Y-94500000D03*
X65900000Y-98500000D03*
X54300000Y-107500000D03*
X67750000Y-100450000D03*
X58000000Y-107100000D03*
X64100000Y-118350000D03*
X62100000Y-100750000D03*
X47850000Y-107150000D03*
X57800000Y-79750000D03*
X63400000Y-93150000D03*
X60399960Y-89150000D03*
X57600000Y-89150000D03*
X54450000Y-81450000D03*
X55200000Y-79750000D03*
X55700000Y-116000000D03*
X47850000Y-109550000D03*
X64300000Y-105350000D03*
X63700000Y-109750000D03*
X64900000Y-113600000D03*
X64900000Y-112300000D03*
X68700000Y-110700000D03*
X68700000Y-114250000D03*
X51300000Y-112500000D03*
X58650000Y-114400000D03*
X47899997Y-116600000D03*
X48575000Y-118750000D03*
X51250000Y-117600000D03*
X57600000Y-117600000D03*
X68950000Y-108100000D03*
X68100000Y-76275000D03*
X61800000Y-114400000D03*
X59350000Y-115700000D03*
X62450000Y-118350000D03*
X47850000Y-95100000D03*
X50300000Y-98700000D03*
X47850000Y-104850000D03*
X52725000Y-93775000D03*
X52725000Y-95025000D03*
X51475000Y-95025000D03*
X51475000Y-93775000D03*
X60920000Y-96187500D03*
X60920000Y-95412500D03*
X59680000Y-95412500D03*
X59680000Y-96187500D03*
X58750000Y-121500000D03*
X47800000Y-89400000D03*
X50900000Y-84750000D03*
X50200000Y-86600000D03*
X67000000Y-89700000D03*
X67000000Y-86350000D03*
X69500000Y-102450000D03*
X65000000Y-103500000D03*
X55800000Y-80600000D03*
X59400000Y-80600000D03*
X62200000Y-80600000D03*
X63450000Y-106100000D03*
X69500000Y-105200000D03*
X59450000Y-114400000D03*
X63200000Y-85600000D03*
X63200000Y-88900000D03*
X63250000Y-83050000D03*
X59650000Y-93400000D03*
X59400000Y-119700000D03*
X67050000Y-107050000D03*
X61200000Y-92650000D03*
X62500000Y-83250000D03*
X54800000Y-103550000D03*
X55800000Y-103550000D03*
X52300000Y-103350000D03*
X56000000Y-98400000D03*
X62100000Y-94700000D03*
X54850000Y-94400000D03*
X49700000Y-92400000D03*
X60050000Y-119700000D03*
X67050000Y-106400000D03*
X61150000Y-111000000D03*
X60800000Y-115700000D03*
X67050000Y-107700000D03*
X49200000Y-103850000D03*
X55050000Y-97500000D03*
X64400000Y-103100000D03*
X65900000Y-102300000D03*
X53450000Y-91600000D03*
X56650000Y-98600000D03*
X51600000Y-97300000D03*
X56650000Y-100800000D03*
X57900000Y-104000000D03*
X56400000Y-104000000D03*
X56000000Y-100800000D03*
X52250000Y-97300000D03*
X54800000Y-100800000D03*
X51150000Y-104850000D03*
X54800000Y-104850000D03*
X58950000Y-104850000D03*
X56150000Y-110400000D03*
X57400000Y-121500000D03*
X53250000Y-119700000D03*
X52650000Y-110400000D03*
X51500000Y-111150000D03*
X52250000Y-119700000D03*
X51750000Y-121500000D03*
X51000000Y-111650000D03*
X52750000Y-121500000D03*
X52000000Y-110400000D03*
X53750000Y-121500000D03*
X53650000Y-110400000D03*
X54750000Y-121500000D03*
X54150000Y-112200000D03*
X55750000Y-121500000D03*
X54650000Y-110400000D03*
X56400000Y-121500000D03*
X55150000Y-112200000D03*
X56500000Y-112200000D03*
X56900000Y-122000000D03*
X59950000Y-104600000D03*
X58150000Y-108150000D03*
X58150000Y-110400000D03*
X54550000Y-108850000D03*
X54250000Y-119700000D03*
X55150000Y-108500000D03*
X56250000Y-119700000D03*
X58650000Y-103500000D03*
X63450000Y-80000000D03*
X58750000Y-102850000D03*
X64750000Y-80000000D03*
X58250000Y-102350000D03*
X64100000Y-80000000D03*
X62850000Y-102600000D03*
X66800000Y-96200000D03*
X66800000Y-97200000D03*
X62100000Y-100050000D03*
X53500000Y-109200000D03*
X61100000Y-100900000D03*
X50000000Y-121100000D03*
X60250000Y-122500000D03*
X64250000Y-116150000D03*
X53650000Y-100800000D03*
X52650000Y-100800000D03*
X61000000Y-98100000D03*
X49900000Y-116600000D03*
X60250000Y-121500000D03*
X52950000Y-108700000D03*
X49996446Y-121803554D03*
X64900000Y-116150000D03*
X52150000Y-101300000D03*
X53250000Y-101350000D03*
X60450000Y-100900000D03*
X60350000Y-98100000D03*
X49200000Y-116600000D03*
X61050000Y-122200000D03*
X53650000Y-103150000D03*
X54200000Y-101150000D03*
X62900000Y-106600000D03*
X59850000Y-109350000D03*
X58450000Y-104350000D03*
X54800000Y-104200000D03*
X49200000Y-104850000D03*
X62100000Y-93900000D03*
X66350000Y-83050000D03*
X60300000Y-93400000D03*
X63200000Y-86700000D03*
X63200000Y-84550000D03*
X69100000Y-82600000D03*
X58600000Y-91000000D03*
X57250000Y-92650000D03*
X55400000Y-101150000D03*
X50950000Y-97300000D03*
X50700000Y-81800000D03*
X53500000Y-81900000D03*
X54600000Y-92150000D03*
X50700000Y-82500000D03*
X54100000Y-91600000D03*
X55700000Y-108150000D03*
X59250000Y-103850000D03*
X55550030Y-114400000D03*
X64108553Y-81608553D03*
X65400000Y-80000000D03*
X51750000Y-107800000D03*
X50403554Y-110003554D03*
X60800000Y-115050000D03*
X60500000Y-111000000D03*
X60250000Y-100200000D03*
X51100000Y-107450000D03*
X49700000Y-110000000D03*
X60200000Y-107200000D03*
X51750000Y-105100000D03*
X53450000Y-102500000D03*
X62350000Y-111700000D03*
X51700000Y-102300000D03*
X51500000Y-99900000D03*
X57250000Y-102500000D03*
X49200000Y-109550000D03*
X48550000Y-116600000D03*
X57250000Y-93300000D03*
X63200000Y-104400000D03*
X51100000Y-103200000D03*
X55700000Y-97600000D03*
D23*
X67500000Y-87800000D02*
X69500000Y-87800000D01*
X62100000Y-100750000D02*
X62100000Y-101600000D01*
X68100000Y-76275000D02*
X68100000Y-75850000D01*
X68100000Y-75850000D02*
X68450000Y-75500000D01*
X62100000Y-101600000D02*
X61350000Y-102350000D01*
X61350000Y-102350000D02*
X60800000Y-102350000D01*
X58000000Y-105200000D02*
X57400000Y-104600000D01*
X57400000Y-104600000D02*
X57400000Y-103400000D01*
X58000000Y-106100000D02*
X58000000Y-105200000D01*
X58000000Y-106100000D02*
X58000000Y-107100000D01*
X57600000Y-89150000D02*
X60399960Y-89150000D01*
X67000000Y-86350000D02*
X67000000Y-89700000D01*
X68850000Y-103100000D02*
X65400000Y-103100000D01*
X69500000Y-102450000D02*
X68850000Y-103100000D01*
X65400000Y-103100000D02*
X65000000Y-103500000D01*
X59609999Y-108849999D02*
X60103599Y-108849999D01*
X59450000Y-114400000D02*
X59450000Y-111679978D01*
X60103599Y-108849999D02*
X61020086Y-107933512D01*
X59450000Y-111679978D02*
X59299981Y-111529959D01*
X59299981Y-111529959D02*
X59299981Y-111239999D01*
X59299981Y-111239999D02*
X59300000Y-111239980D01*
X59300001Y-110049999D02*
X59300001Y-109159997D01*
X59300000Y-111239980D02*
X59300000Y-110350000D01*
X59300000Y-110350000D02*
X59299981Y-110349981D01*
X59299981Y-110349981D02*
X59299981Y-110050019D01*
X62400000Y-106361478D02*
X62661478Y-106100000D01*
X62400000Y-107396428D02*
X62400000Y-106361478D01*
X59299981Y-110050019D02*
X59300001Y-110049999D01*
X59300001Y-109159997D02*
X59609999Y-108849999D01*
X61020086Y-107933512D02*
X61862916Y-107933512D01*
X61862916Y-107933512D02*
X62400000Y-107396428D01*
X62661478Y-106100000D02*
X63450000Y-106100000D01*
D24*
X59400000Y-80600000D02*
X55800000Y-80600000D01*
X62200000Y-80600000D02*
X59400000Y-80600000D01*
D23*
X62650010Y-88900000D02*
X62650010Y-85600000D01*
X62650010Y-85600000D02*
X62650010Y-85235000D01*
X63200000Y-85600000D02*
X62650010Y-85600000D01*
X62650010Y-85235000D02*
X62349989Y-84934979D01*
X62349989Y-84934979D02*
X62349989Y-84165021D01*
X62349989Y-84165021D02*
X63250000Y-83265010D01*
X63250000Y-83265010D02*
X63250000Y-83050000D01*
X62650010Y-89700000D02*
X62650010Y-88900000D01*
X63200000Y-88900000D02*
X62650010Y-88900000D01*
X62650010Y-89700000D02*
X62650010Y-89449990D01*
X62650010Y-90649964D02*
X62650010Y-89700000D01*
X59650000Y-93400000D02*
X59650000Y-93309998D01*
X59650000Y-93309998D02*
X60059999Y-92899999D01*
X60059999Y-92899999D02*
X60709997Y-92899999D01*
X61440001Y-93150001D02*
X61700001Y-92890001D01*
X60709997Y-92899999D02*
X60959999Y-93150001D01*
X60959999Y-93150001D02*
X61440001Y-93150001D01*
X61700001Y-92890001D02*
X61700001Y-91599973D01*
X61700001Y-91599973D02*
X62650010Y-90649964D01*
X67050000Y-107050000D02*
X66543574Y-107050000D01*
X66543574Y-107050000D02*
X66242584Y-107350990D01*
X66242584Y-107350990D02*
X63930402Y-107350990D01*
X61455022Y-108983540D02*
X60950011Y-109488551D01*
X63930402Y-107350990D02*
X63581392Y-107700000D01*
X63581392Y-107700000D02*
X63579978Y-107700000D01*
X63579978Y-107700000D02*
X62296438Y-108983540D01*
X62296438Y-108983540D02*
X61455022Y-108983540D01*
X60950011Y-109488551D02*
X60950011Y-109489965D01*
X60950011Y-109489965D02*
X60489976Y-109950000D01*
X60000000Y-111050000D02*
X60000000Y-111240001D01*
X60000000Y-110759999D02*
X60000000Y-111050000D01*
X60000000Y-111050000D02*
X60000000Y-110439976D01*
X60150000Y-110289976D02*
X60489976Y-109950000D01*
X60000000Y-110439976D02*
X60489976Y-109950000D01*
X59999999Y-111240001D02*
X60300010Y-111540012D01*
X59400000Y-119700000D02*
X59400000Y-119454986D01*
X59400000Y-119454986D02*
X60300000Y-118554986D01*
X60300000Y-118554986D02*
X60300000Y-114784990D01*
X60300000Y-114784990D02*
X60300010Y-114784980D01*
X60300010Y-114784980D02*
X60300010Y-111540012D01*
X61200000Y-91604986D02*
X62300000Y-90504986D01*
X62300000Y-90504986D02*
X62300000Y-85379978D01*
X62300000Y-85379978D02*
X61999979Y-85079957D01*
X61200000Y-92650000D02*
X61200000Y-91604986D01*
X61999979Y-83750021D02*
X62500000Y-83250000D01*
X61999979Y-85079957D02*
X61999979Y-83750021D01*
X62100000Y-94700000D02*
X62750031Y-94049969D01*
X64400021Y-89429957D02*
X64400021Y-88500000D01*
X62750031Y-94049969D02*
X62750031Y-92034907D01*
X66759999Y-85849999D02*
X67633999Y-85849999D01*
X62750031Y-92034907D02*
X63700040Y-91084898D01*
X64049011Y-86450989D02*
X64649001Y-85850999D01*
X63700040Y-91084898D02*
X63700040Y-90129938D01*
X64399020Y-88370456D02*
X64049011Y-88020447D01*
X63700040Y-90129938D02*
X64400021Y-89429957D01*
X64400021Y-88500000D02*
X64399020Y-88498999D01*
X64049011Y-88020447D02*
X64049011Y-86450989D01*
X64399020Y-88498999D02*
X64399020Y-88370456D01*
X64649001Y-85850999D02*
X66758999Y-85850999D01*
X66758999Y-85850999D02*
X66759999Y-85849999D01*
X67633999Y-85849999D02*
X68322000Y-86538000D01*
D24*
X55800000Y-103550000D02*
X55800000Y-106100000D01*
X54800000Y-103550000D02*
X54350000Y-103550000D01*
X54350000Y-103550000D02*
X54150000Y-103750000D01*
X54150000Y-103750000D02*
X52700000Y-103750000D01*
X52700000Y-103750000D02*
X52300000Y-103350000D01*
D23*
X68350000Y-86510000D02*
X68000002Y-86510000D01*
D24*
X54825001Y-94375001D02*
X51075001Y-94375001D01*
X49700000Y-93000000D02*
X51075001Y-94375001D01*
X49700000Y-92400000D02*
X49700000Y-93000000D01*
X54850000Y-94400000D02*
X54825001Y-94375001D01*
D23*
X54850000Y-94400000D02*
X55100000Y-94400000D01*
X55100000Y-94400000D02*
X56299990Y-95599990D01*
X56299990Y-95599990D02*
X56299990Y-98100010D01*
X56299990Y-98100010D02*
X56000000Y-98400000D01*
X60450010Y-109493564D02*
X61310044Y-108633530D01*
X61310044Y-108633530D02*
X62150046Y-108633530D01*
X63454242Y-107333576D02*
X63787818Y-107000000D01*
X66100000Y-107000000D02*
X66700000Y-106400000D01*
X62150046Y-108633530D02*
X63450000Y-107333576D01*
X63450000Y-107333576D02*
X63454242Y-107333576D01*
X66700000Y-106400000D02*
X67050000Y-106400000D01*
X63787818Y-107000000D02*
X66100000Y-107000000D01*
X60050000Y-119700000D02*
X60050000Y-119790002D01*
X59159999Y-120200001D02*
X58899999Y-119940001D01*
X58899999Y-119459999D02*
X59949990Y-118410008D01*
X60050000Y-119790002D02*
X59640001Y-120200001D01*
X59949990Y-114640012D02*
X59950000Y-114640002D01*
X59640001Y-120200001D02*
X59159999Y-120200001D01*
X59894988Y-110050000D02*
X60450010Y-109494978D01*
X58899999Y-119940001D02*
X58899999Y-119459999D01*
X59649989Y-110294999D02*
X59894988Y-110050000D01*
X59949990Y-118410008D02*
X59949990Y-114640012D01*
X59950000Y-114640002D02*
X59950000Y-111684990D01*
X59950000Y-111684990D02*
X59649989Y-111384979D01*
X59650000Y-111384979D02*
X59650000Y-110294999D01*
X67050000Y-107700000D02*
X64074966Y-107700000D01*
X61150000Y-111000000D02*
X61150000Y-109784964D01*
X61400000Y-109534964D02*
X61400000Y-109533550D01*
X61150000Y-109784964D02*
X61400000Y-109534964D01*
X61400000Y-109533550D02*
X61600000Y-109333550D01*
X61600000Y-109333550D02*
X62441416Y-109333550D01*
X62441416Y-109333550D02*
X64074966Y-107700000D01*
X61150000Y-111000000D02*
X61150000Y-111100000D01*
X61150000Y-111100000D02*
X61000030Y-111249970D01*
X60890002Y-115700000D02*
X60800000Y-115700000D01*
X61000030Y-111249970D02*
X61000030Y-114510028D01*
X61000030Y-114510028D02*
X61300001Y-114809999D01*
X61300001Y-115290001D02*
X60890002Y-115700000D01*
X61300001Y-114809999D02*
X61300001Y-115290001D01*
X60800000Y-115700000D02*
X60888522Y-115700000D01*
X61150000Y-111088522D02*
X61150000Y-111000000D01*
X49200000Y-103850000D02*
X51190002Y-103850000D01*
X51049990Y-102409988D02*
X51049990Y-100189992D01*
X51190002Y-103850000D02*
X51600001Y-103440001D01*
X51600001Y-103440001D02*
X51600001Y-102959999D01*
X51600001Y-102959999D02*
X51049990Y-102409988D01*
X51049990Y-100189992D02*
X49799999Y-98940001D01*
X49799999Y-97709999D02*
X51060009Y-96449989D01*
X49799999Y-98940001D02*
X49799999Y-97709999D01*
X51060009Y-96449989D02*
X53332125Y-96449989D01*
X53332125Y-96449989D02*
X54382136Y-97500000D01*
X54382136Y-97500000D02*
X55050000Y-97500000D01*
X65900000Y-102300000D02*
X65200000Y-102300000D01*
X65200000Y-102300000D02*
X64400000Y-103100000D01*
X53450000Y-91600000D02*
X53450000Y-92255012D01*
X53450000Y-92255012D02*
X56650000Y-95455012D01*
X56650000Y-95455012D02*
X56650000Y-98600000D01*
X56650000Y-100800000D02*
X56650000Y-99840002D01*
X56650000Y-99840002D02*
X54660008Y-97850010D01*
X54660008Y-97850010D02*
X54238572Y-97850010D01*
X54238572Y-97850010D02*
X53187147Y-96799999D01*
X51600000Y-97209998D02*
X51600000Y-97300000D01*
X53187147Y-96799999D02*
X52009999Y-96799999D01*
X52009999Y-96799999D02*
X51600000Y-97209998D01*
X56650000Y-100800000D02*
X56650000Y-102800000D01*
X56650000Y-102800000D02*
X56900000Y-103050000D01*
X56900000Y-103050000D02*
X56900000Y-106100000D01*
X56000000Y-100800000D02*
X56000000Y-99684990D01*
X56000000Y-99684990D02*
X54515030Y-98200020D01*
X54515030Y-98200020D02*
X54508624Y-98206426D01*
X54508624Y-98206426D02*
X54101414Y-98206426D01*
X53193574Y-97300000D02*
X52800000Y-97300000D01*
X54101414Y-98206426D02*
X54095103Y-98200115D01*
X54095103Y-98200115D02*
X53193574Y-97300000D01*
X52800000Y-97300000D02*
X52250000Y-97300000D01*
X56400000Y-104000000D02*
X56400000Y-103250000D01*
X56000000Y-100800000D02*
X56000000Y-102850000D01*
X56000000Y-102850000D02*
X56400000Y-103250000D01*
X57900000Y-104538522D02*
X57900000Y-104000000D01*
X57900000Y-104538522D02*
X59100000Y-105738522D01*
X59100000Y-105738522D02*
X59100000Y-106100000D01*
X54800000Y-100800000D02*
X54800000Y-102400000D01*
X54800000Y-102400000D02*
X55300000Y-102900000D01*
X55300000Y-102900000D02*
X55300000Y-105100000D01*
X54700000Y-105700000D02*
X54700000Y-106100000D01*
X55300000Y-105100000D02*
X54700000Y-105700000D01*
X51150000Y-104850000D02*
X51400001Y-104599999D01*
X51400001Y-104599999D02*
X54050000Y-104600000D01*
X54050000Y-104600000D02*
X54300000Y-104850000D01*
X54300000Y-104850000D02*
X54800000Y-104850000D01*
X68322000Y-94158000D02*
X68081977Y-94158000D01*
X68081977Y-94158000D02*
X66289977Y-95950000D01*
X63955012Y-95950000D02*
X61599999Y-98305013D01*
X61599999Y-101150000D02*
X61349999Y-101400000D01*
X59650001Y-105100001D02*
X59400000Y-104850000D01*
X66289977Y-95950000D02*
X63955012Y-95950000D01*
X61599999Y-98305013D02*
X61599999Y-101150000D01*
X59400000Y-104850000D02*
X58950000Y-104850000D01*
X61349999Y-101400000D02*
X60750000Y-101400000D01*
X60750000Y-101400000D02*
X60300030Y-101849970D01*
X60300030Y-103170052D02*
X60450021Y-103320043D01*
X60300030Y-101849970D02*
X60300030Y-103170052D01*
X60450021Y-103320043D02*
X60450021Y-104839981D01*
X60450021Y-104839981D02*
X60190001Y-105100001D01*
X60190001Y-105100001D02*
X59650001Y-105100001D01*
X58950001Y-104850001D02*
X58950000Y-104850000D01*
X57400000Y-121500000D02*
X57400000Y-120915010D01*
X57400000Y-120915010D02*
X57100008Y-120615018D01*
X57100008Y-120615018D02*
X57100008Y-117840010D01*
X57100008Y-117840010D02*
X57099999Y-117840001D01*
X57099999Y-117840001D02*
X57099999Y-112059997D01*
X57099999Y-112059997D02*
X56150000Y-111109998D01*
X56150000Y-111109998D02*
X56150000Y-110400000D01*
X52650000Y-110400000D02*
X52650000Y-111312852D01*
X52949979Y-111612831D02*
X52949979Y-119104991D01*
X52650000Y-111312852D02*
X52949979Y-111612831D01*
X53250000Y-119405012D02*
X53250000Y-119700000D01*
X52949979Y-119104991D02*
X53250000Y-119405012D01*
X52249959Y-111899959D02*
X51500000Y-111150000D01*
X52250000Y-119700000D02*
X52250000Y-119450000D01*
X52250000Y-119450000D02*
X52249959Y-119449959D01*
X52249959Y-119449959D02*
X52249959Y-111899959D01*
X51000000Y-111650000D02*
X51505012Y-111650000D01*
X51505012Y-111650000D02*
X51899949Y-112044937D01*
X51899949Y-112044937D02*
X51899949Y-119300051D01*
X51899949Y-119300051D02*
X51750000Y-119450000D01*
X51750000Y-119450000D02*
X51750000Y-121500000D01*
X52000000Y-110400000D02*
X52000000Y-111156426D01*
X52000000Y-111156426D02*
X52599969Y-111756395D01*
X52599969Y-111756395D02*
X52599969Y-119249969D01*
X52599969Y-119249969D02*
X52750000Y-119400000D01*
X52750000Y-119400000D02*
X52750000Y-121500000D01*
X53750000Y-119600000D02*
X53750000Y-121500000D01*
X53299989Y-118960013D02*
X53750000Y-119410024D01*
X53650000Y-111205012D02*
X53299989Y-111555023D01*
X53650000Y-110400000D02*
X53650000Y-111205012D01*
X53750000Y-119410024D02*
X53750000Y-119600000D01*
X53299989Y-111555023D02*
X53299989Y-118960013D01*
X54150000Y-112200000D02*
X54150000Y-112350000D01*
X54150000Y-112350000D02*
X54000000Y-112500000D01*
X54000000Y-112500000D02*
X54000000Y-118670048D01*
X54000000Y-118670048D02*
X54750000Y-119420048D01*
X54750000Y-119420048D02*
X54750000Y-121500000D01*
X55750000Y-121500000D02*
X55750000Y-120434990D01*
X55750000Y-120434990D02*
X55100010Y-119785000D01*
X55100010Y-119275070D02*
X54350010Y-118525070D01*
X55100010Y-119785000D02*
X55100010Y-119275070D01*
X54350010Y-118525070D02*
X54350010Y-112739992D01*
X54650000Y-112440002D02*
X54650000Y-110400000D01*
X54350010Y-112739992D02*
X54650000Y-112440002D01*
X56400000Y-121500000D02*
X56400000Y-120590002D01*
X56400000Y-120590002D02*
X55450020Y-119640022D01*
X55450020Y-119640022D02*
X55450020Y-119130092D01*
X55450020Y-119130092D02*
X54700020Y-118380092D01*
X54700020Y-118380092D02*
X54700020Y-112884970D01*
X54700020Y-112884970D02*
X55150000Y-112434990D01*
X55150000Y-112434990D02*
X55150000Y-112200000D01*
X56900000Y-122000000D02*
X56900000Y-120909998D01*
X56900000Y-120909998D02*
X56750000Y-120759998D01*
X56750000Y-120759998D02*
X56750000Y-117984990D01*
X56750000Y-117984990D02*
X56749989Y-117984979D01*
X56749989Y-117984979D02*
X56749989Y-112449989D01*
X56749989Y-112449989D02*
X56500000Y-112200000D01*
X68322000Y-89078000D02*
X68322000Y-89478000D01*
X67100000Y-92940002D02*
X66749990Y-93290012D01*
X68322000Y-89478000D02*
X67100000Y-90700000D01*
X66749990Y-94500011D02*
X66000021Y-95249980D01*
X67100000Y-90700000D02*
X67100000Y-92940002D01*
X66749990Y-93290012D02*
X66749990Y-94500011D01*
X66000021Y-95249980D02*
X63665056Y-95249980D01*
X63665056Y-95249980D02*
X61665047Y-97249989D01*
X61665047Y-97249989D02*
X59955022Y-97249989D01*
X59955022Y-97249989D02*
X59500050Y-97704961D01*
X59500050Y-97704961D02*
X59500050Y-97750000D01*
X59950020Y-101825054D02*
X59500050Y-101375084D01*
X60100011Y-104449989D02*
X59950000Y-104600000D01*
X60100011Y-103465021D02*
X60100011Y-104449989D01*
X59950020Y-103315030D02*
X60100011Y-103465021D01*
X59500050Y-101375084D02*
X59500050Y-101375059D01*
X59500000Y-101375084D02*
X59500050Y-101375059D01*
X59950020Y-101825054D02*
X59950020Y-103315030D01*
X58150000Y-108150000D02*
X58150000Y-110400000D01*
X59500000Y-101375059D02*
X59500000Y-97750000D01*
X54550000Y-108850000D02*
X54550000Y-109761478D01*
X54550000Y-109761478D02*
X54150000Y-110161478D01*
X54150000Y-110161478D02*
X54150000Y-111200000D01*
X54150000Y-111200000D02*
X53649999Y-111700001D01*
X53649999Y-111700001D02*
X53649999Y-118815035D01*
X53649999Y-118815035D02*
X54250000Y-119415036D01*
X54250000Y-119415036D02*
X54250000Y-119700000D01*
X55650001Y-111959999D02*
X55650001Y-112440001D01*
X55150001Y-111459999D02*
X55150001Y-108500001D01*
X55150001Y-108500001D02*
X55150000Y-108500000D01*
X55150001Y-111459999D02*
X55650001Y-111959999D01*
X55050030Y-113029948D02*
X55050030Y-118235114D01*
X55650001Y-112440001D02*
X55060054Y-113029948D01*
X55800030Y-118985114D02*
X55800030Y-119250030D01*
X55060054Y-113029948D02*
X55050030Y-113029948D01*
X55050030Y-118235114D02*
X55800030Y-118985114D01*
X55800030Y-119250030D02*
X56250000Y-119700000D01*
X58650000Y-103500000D02*
X57750000Y-102600000D01*
X57750000Y-102600000D02*
X57750000Y-93075034D01*
X60899960Y-85959890D02*
X60599939Y-85659869D01*
X57750000Y-93075034D02*
X60899960Y-89925074D01*
X60899960Y-89925074D02*
X60899960Y-85959890D01*
X60599939Y-85659869D02*
X60599939Y-82925095D01*
X60599939Y-82925095D02*
X61875034Y-81650000D01*
X61875034Y-81650000D02*
X62337128Y-81650000D01*
X62337128Y-81650000D02*
X63450000Y-80537128D01*
X63450000Y-80537128D02*
X63450000Y-80000000D01*
X58750000Y-102850000D02*
X58750000Y-102109998D01*
X58750000Y-102109998D02*
X58450020Y-101810018D01*
X58450020Y-93364990D02*
X61599980Y-90215030D01*
X62577115Y-82399989D02*
X64750000Y-80227104D01*
X58450020Y-101810018D02*
X58450020Y-93364990D01*
X61599980Y-90215030D02*
X61599980Y-85669934D01*
X62115021Y-82399989D02*
X62577115Y-82399989D01*
X61599980Y-85669934D02*
X61299959Y-85369913D01*
X61299959Y-85369913D02*
X61299959Y-83215051D01*
X61299959Y-83215051D02*
X62115021Y-82399989D01*
X64750000Y-80227104D02*
X64750000Y-80000000D01*
X58100010Y-100400000D02*
X58100010Y-93220012D01*
X62432137Y-82049979D02*
X64100000Y-80382116D01*
X58100010Y-93220012D02*
X61249970Y-90070052D01*
X61249970Y-90070052D02*
X61249970Y-85814912D01*
X61249970Y-85814912D02*
X60949949Y-85514891D01*
X60949949Y-85514891D02*
X60949949Y-83070073D01*
X60949949Y-83070073D02*
X61970043Y-82049979D01*
X61970043Y-82049979D02*
X62432137Y-82049979D01*
X64100000Y-80382116D02*
X64100000Y-80000000D01*
X58100010Y-100400000D02*
X58100010Y-100650010D01*
X58100010Y-100400000D02*
X58100010Y-102200010D01*
X58100010Y-102200010D02*
X58250000Y-102350000D01*
X68322000Y-96698000D02*
X67042002Y-96698000D01*
X67040002Y-96700000D02*
X64194988Y-96700000D01*
X67042002Y-96698000D02*
X67040002Y-96700000D01*
X62850000Y-102600000D02*
X62600000Y-102350000D01*
X62600000Y-102350000D02*
X62600000Y-98294988D01*
X62600000Y-98294988D02*
X64194988Y-96700000D01*
X66800000Y-97200000D02*
X66800000Y-100256000D01*
X66800000Y-100256000D02*
X68322000Y-101778000D01*
X62100000Y-100050000D02*
X62100000Y-98300000D01*
X62100000Y-98300000D02*
X64100000Y-96300000D01*
X64100000Y-96300000D02*
X66700000Y-96300000D01*
X66700000Y-96300000D02*
X66800000Y-96200000D01*
X53500000Y-109200000D02*
X52459998Y-109200000D01*
X52459998Y-109200000D02*
X49900000Y-111759998D01*
X49900000Y-111759998D02*
X49900000Y-116600000D01*
X61000000Y-98100000D02*
X61000000Y-99200000D01*
X61000000Y-99200000D02*
X61100000Y-99300000D01*
X61100000Y-100900000D02*
X61100000Y-99300000D01*
X60250000Y-121500000D02*
X60700990Y-121049010D01*
X60700990Y-118866914D02*
X62065915Y-117501989D01*
X60700990Y-121049010D02*
X60700990Y-118866914D01*
X62065915Y-117501989D02*
X63142959Y-117501989D01*
X63142959Y-117501989D02*
X64250000Y-116394948D01*
X64250000Y-116394948D02*
X64250000Y-116150000D01*
X60250000Y-121500000D02*
X60250000Y-122500000D01*
X50000000Y-121100000D02*
X49900000Y-121000000D01*
X49900000Y-121000000D02*
X49900000Y-120390002D01*
X53650000Y-100800000D02*
X52650000Y-100800000D01*
X49900000Y-120390002D02*
X49900000Y-116600000D01*
X52950000Y-108700000D02*
X52465010Y-108700000D01*
X52465010Y-108700000D02*
X49549990Y-111615020D01*
X49549990Y-111615020D02*
X49549990Y-116210008D01*
X49549990Y-116210008D02*
X49200000Y-116559998D01*
X49200000Y-116559998D02*
X49200000Y-116600000D01*
X60450000Y-100900000D02*
X60450000Y-100809998D01*
X60350000Y-98100000D02*
X60350000Y-99300000D01*
X60750000Y-100509998D02*
X60750000Y-99700000D01*
X60350000Y-99300000D02*
X60750000Y-99700000D01*
X60450000Y-100809998D02*
X60750000Y-100509998D01*
X52150000Y-101300000D02*
X53200000Y-101300000D01*
X53200000Y-101300000D02*
X53250000Y-101350000D01*
X61050000Y-122200000D02*
X61050000Y-119011478D01*
X61050000Y-119011478D02*
X62210479Y-117850999D01*
X62210479Y-117850999D02*
X63287523Y-117850999D01*
X63287523Y-117850999D02*
X64900000Y-116238522D01*
X64900000Y-116238522D02*
X64900000Y-116150000D01*
X49996446Y-121803554D02*
X49499999Y-121307107D01*
X49499999Y-121307107D02*
X49499999Y-117250009D01*
X49499999Y-117250009D02*
X49200000Y-116950010D01*
X49200000Y-116950010D02*
X49200000Y-116600000D01*
X62900000Y-106600000D02*
X66006426Y-106600000D01*
X67364999Y-105900999D02*
X68322000Y-106858000D01*
X66006426Y-106600000D02*
X66705427Y-105900999D01*
X66705427Y-105900999D02*
X67364999Y-105900999D01*
X62900000Y-106600000D02*
X62900000Y-107390002D01*
X62900000Y-107390002D02*
X62006482Y-108283520D01*
X62006482Y-108283520D02*
X61165066Y-108283520D01*
X61165066Y-108283520D02*
X60100000Y-109348586D01*
X54200000Y-101150000D02*
X54200000Y-102600000D01*
X54200000Y-102600000D02*
X53650000Y-103150000D01*
X60100000Y-109348586D02*
X59851414Y-109348586D01*
X59851414Y-109348586D02*
X59850000Y-109350000D01*
X60100000Y-109348586D02*
X60100000Y-109350000D01*
X49200000Y-104850000D02*
X50409998Y-104850000D01*
X50409998Y-104850000D02*
X51010009Y-104249989D01*
X51010009Y-104249989D02*
X52134979Y-104249989D01*
X54750000Y-104250000D02*
X54800000Y-104200000D01*
X52134979Y-104249989D02*
X52134990Y-104250000D01*
X52134990Y-104250000D02*
X54750000Y-104250000D01*
D24*
X66350000Y-80890000D02*
X68322000Y-78918000D01*
D23*
X58749001Y-104349001D02*
X58450999Y-104349001D01*
X58450999Y-104349001D02*
X58450000Y-104350000D01*
X54799010Y-104199010D02*
X54800000Y-104200000D01*
X58749001Y-104349001D02*
X59489521Y-104349001D01*
X59489521Y-104349001D02*
X59750001Y-104088521D01*
X59750001Y-103609999D02*
X59600010Y-103460008D01*
X59750001Y-104088521D02*
X59750001Y-103609999D01*
X59600010Y-103460008D02*
X59600010Y-101970032D01*
X59600010Y-101970032D02*
X59150040Y-101520062D01*
X59150040Y-101520062D02*
X59150040Y-94349960D01*
X59150040Y-94349960D02*
X59600000Y-93900000D01*
X59600000Y-93900000D02*
X60900000Y-93900000D01*
X60900000Y-93900000D02*
X62100000Y-93900000D01*
X63700001Y-86400000D02*
X63700001Y-88165011D01*
X63700001Y-88165011D02*
X64050011Y-88515021D01*
X64050011Y-88515021D02*
X64050011Y-89284979D01*
X64050011Y-89284979D02*
X63350030Y-89984960D01*
X63350030Y-89984960D02*
X63350030Y-90939920D01*
X63350030Y-90939920D02*
X62400021Y-91889929D01*
X62400021Y-91889929D02*
X62400021Y-93599979D01*
X62400021Y-93599979D02*
X62100000Y-93900000D01*
X63700001Y-86400000D02*
X63700001Y-86749999D01*
X63700001Y-85359999D02*
X63700001Y-86400000D01*
X63390003Y-85050001D02*
X63700001Y-85359999D01*
X63390003Y-85050001D02*
X62959999Y-85050001D01*
X62959999Y-85050001D02*
X62699999Y-84790001D01*
X62699999Y-84790001D02*
X62699999Y-84309999D01*
X62699999Y-84309999D02*
X63509998Y-83500000D01*
X63509998Y-83500000D02*
X65900000Y-83500000D01*
X65900000Y-83500000D02*
X66350000Y-83050000D01*
D24*
X66350000Y-83050000D02*
X66350000Y-82700000D01*
X66350000Y-82700000D02*
X66350000Y-80890000D01*
D23*
X63200000Y-86700000D02*
X63200000Y-88159998D01*
X63700001Y-89140001D02*
X63000020Y-89839982D01*
X63200000Y-88159998D02*
X63700001Y-88659999D01*
X60815021Y-93500011D02*
X60715010Y-93400000D01*
X63700001Y-88659999D02*
X63700001Y-89140001D01*
X63000020Y-89839982D02*
X63000020Y-90794942D01*
X63000020Y-90794942D02*
X62050011Y-91744951D01*
X62050011Y-91744951D02*
X62050011Y-93034979D01*
X62050011Y-93034979D02*
X61584979Y-93500011D01*
X61584979Y-93500011D02*
X60815021Y-93500011D01*
X60715010Y-93400000D02*
X60300000Y-93400000D01*
D24*
X63830000Y-83970000D02*
X63780000Y-83970000D01*
X63780000Y-83970000D02*
X63200000Y-84550000D01*
D23*
X60300000Y-93400000D02*
X60365010Y-93400000D01*
X63200000Y-84600000D02*
X63250000Y-84550000D01*
D24*
X68350000Y-83970000D02*
X63830000Y-83970000D01*
X61100000Y-76800000D02*
X62900000Y-75000000D01*
X62900000Y-75000000D02*
X66250000Y-75000000D01*
X68900000Y-77600000D02*
X69600000Y-78300000D01*
X66250000Y-75000000D02*
X66500000Y-75250000D01*
X66500000Y-75250000D02*
X66500000Y-76900000D01*
X66500000Y-76900000D02*
X67200000Y-77600000D01*
X67200000Y-77600000D02*
X68900000Y-77600000D01*
X69600000Y-78300000D02*
X69600000Y-80180000D01*
X69600000Y-80180000D02*
X68350000Y-81430000D01*
X69100000Y-82600000D02*
X69100000Y-82180000D01*
X69100000Y-82180000D02*
X68350000Y-81430000D01*
D23*
X68350000Y-81430000D02*
X68380000Y-81430000D01*
X57680046Y-92650000D02*
X57250000Y-92650000D01*
X57680046Y-92650000D02*
X58600000Y-91730046D01*
X58600000Y-91730046D02*
X58600000Y-91000000D01*
X55400000Y-101150000D02*
X55400000Y-99579978D01*
X55400000Y-99579978D02*
X54376458Y-98556436D01*
X54376458Y-98556436D02*
X53956361Y-98556436D01*
X53956361Y-98556436D02*
X53799963Y-98400038D01*
X53799963Y-98400038D02*
X53200000Y-97800000D01*
X53200000Y-97800000D02*
X51359998Y-97800000D01*
X51359998Y-97800000D02*
X50950000Y-97390002D01*
X50950000Y-97390002D02*
X50950000Y-97300000D01*
X54600000Y-92150000D02*
X54600000Y-91593574D01*
X54600000Y-91593574D02*
X55000000Y-91193574D01*
X55000000Y-84101414D02*
X54300000Y-83401414D01*
X54300000Y-83400000D02*
X53500000Y-82600000D01*
X55000000Y-91193574D02*
X55000000Y-84101414D01*
X54300000Y-83401414D02*
X54300000Y-83400000D01*
X52900000Y-82600000D02*
X51540002Y-82600000D01*
X51540002Y-82600000D02*
X50740002Y-81800000D01*
X50740002Y-81800000D02*
X50700000Y-81800000D01*
X53500000Y-81900000D02*
X53500000Y-82600000D01*
X53100000Y-82600000D02*
X52900000Y-82600000D01*
X52900000Y-82600000D02*
X53500000Y-82600000D01*
X50700000Y-82500000D02*
X51200000Y-83000000D01*
X51200000Y-83000000D02*
X53405012Y-83000000D01*
X53405012Y-83000000D02*
X54650990Y-84245978D01*
X54650990Y-84245978D02*
X54650990Y-91049010D01*
X54650990Y-91049010D02*
X54100000Y-91600000D01*
X54100000Y-91600000D02*
X54100000Y-91550000D01*
X55700000Y-108150000D02*
X55700000Y-108750011D01*
X55700000Y-108750011D02*
X55500011Y-108950000D01*
X55550000Y-113034990D02*
X55550000Y-113900000D01*
X55500011Y-108950000D02*
X55500011Y-111315021D01*
X56000011Y-111815021D02*
X56000011Y-112584979D01*
X55500011Y-111315021D02*
X56000011Y-111815021D01*
X56000011Y-112584979D02*
X55550000Y-113034990D01*
X55550000Y-113900000D02*
X55550030Y-113900030D01*
X55550030Y-113900030D02*
X55550030Y-114400000D01*
X58800030Y-101665040D02*
X59250000Y-102115010D01*
X58800030Y-93509968D02*
X58800030Y-101665040D01*
X61949990Y-90360008D02*
X58800030Y-93509968D01*
X61649969Y-85224935D02*
X61949990Y-85524956D01*
X61949990Y-85524956D02*
X61949990Y-90360008D01*
X62259999Y-82749999D02*
X61649969Y-83360029D01*
X62809999Y-82749999D02*
X62259999Y-82749999D01*
X63951445Y-81608553D02*
X62809999Y-82749999D01*
X61649969Y-83360029D02*
X61649969Y-85224935D01*
X64108553Y-81608553D02*
X63951445Y-81608553D01*
X59250000Y-102115010D02*
X59250000Y-103850000D01*
D24*
X65400000Y-80000000D02*
X65400000Y-80317106D01*
X65400000Y-80317106D02*
X64108553Y-81608553D01*
X65400000Y-80000000D02*
X65400000Y-77850000D01*
X65400000Y-77850000D02*
X64700000Y-77150000D01*
D23*
X50403554Y-110003554D02*
X50403554Y-109146446D01*
X50403554Y-109146446D02*
X51750000Y-107800000D01*
X60800000Y-115050000D02*
X60800000Y-115000000D01*
X60800000Y-115000000D02*
X60650020Y-114850020D01*
X60650020Y-114850020D02*
X60650020Y-111150020D01*
X60650020Y-111150020D02*
X60500000Y-111000000D01*
X68322000Y-91618000D02*
X67450008Y-92489992D01*
X59850000Y-99800000D02*
X60250000Y-100200000D01*
X67450008Y-92489992D02*
X67450008Y-93084982D01*
X67100000Y-94644989D02*
X66144999Y-95599990D01*
X63810034Y-95599990D02*
X61810025Y-97599999D01*
X67450008Y-93084982D02*
X67100000Y-93434990D01*
X61810025Y-97599999D02*
X60100000Y-97599999D01*
X67100000Y-93434990D02*
X67100000Y-94644989D01*
X66144999Y-95599990D02*
X63810034Y-95599990D01*
X60100000Y-97599999D02*
X59850000Y-97849999D01*
X59850000Y-97849999D02*
X59850000Y-99800000D01*
X49700000Y-110000000D02*
X49700000Y-109700000D01*
X51100000Y-107956426D02*
X49700000Y-109356426D01*
X49700000Y-109356426D02*
X49700000Y-109700000D01*
X51100000Y-107450000D02*
X51100000Y-107956426D01*
X60200000Y-107200000D02*
X60450000Y-107200000D01*
X60450000Y-107200000D02*
X61150000Y-106500000D01*
X61150000Y-106500000D02*
X61150000Y-106100000D01*
X51750000Y-105100000D02*
X53350000Y-105100000D01*
X53350000Y-105100000D02*
X53600000Y-105350000D01*
X53600000Y-105350000D02*
X53600000Y-106100000D01*
D24*
X53450000Y-102500000D02*
X51900000Y-102500000D01*
X51900000Y-102500000D02*
X51700000Y-102300000D01*
X57250000Y-94600000D02*
X57250000Y-93300000D01*
X57250000Y-102500000D02*
X57250000Y-94600000D01*
D23*
X62350000Y-111700000D02*
X62900000Y-111150000D01*
X62900000Y-111150000D02*
X62900000Y-109369954D01*
X66659998Y-108050000D02*
X66809999Y-108200001D01*
X62900000Y-109369954D02*
X64219954Y-108050000D01*
X64219954Y-108050000D02*
X66659998Y-108050000D01*
X67124001Y-108200001D02*
X68322000Y-109398000D01*
X66809999Y-108200001D02*
X67124001Y-108200001D01*
X49200000Y-109550000D02*
X49200000Y-109799960D01*
X49200000Y-109799960D02*
X49199980Y-109799980D01*
X48550000Y-116600000D02*
X48550000Y-116509998D01*
X48550000Y-116509998D02*
X49199980Y-115860018D01*
X49199980Y-115860018D02*
X49199980Y-109799980D01*
D24*
X51500000Y-99900000D02*
X51500000Y-102100000D01*
X51500000Y-102100000D02*
X51700000Y-102300000D01*
D23*
X65861862Y-106250990D02*
X66560863Y-105551989D01*
X64339512Y-106250990D02*
X65861862Y-106250990D01*
X63200000Y-104400000D02*
X63200000Y-105111478D01*
X63200000Y-105111478D02*
X64339512Y-106250990D01*
X66560863Y-105551989D02*
X67088011Y-105551989D01*
X67088011Y-105551989D02*
X68322000Y-104318000D01*
X51100000Y-103200000D02*
X51100000Y-102954986D01*
X49449989Y-99084979D02*
X49449989Y-97565021D01*
X51100000Y-102954986D02*
X50699980Y-102554966D01*
X50699980Y-102554966D02*
X50699980Y-100334970D01*
X53477103Y-96099979D02*
X54377123Y-96999999D01*
X50699980Y-100334970D02*
X49449989Y-99084979D01*
X49449989Y-97565021D02*
X50915031Y-96099979D01*
X54377123Y-96999999D02*
X55290001Y-96999999D01*
X50915031Y-96099979D02*
X53477103Y-96099979D01*
X55290001Y-96999999D02*
X55700000Y-97409998D01*
X55700000Y-97409998D02*
X55700000Y-97600000D01*
D25*
G36*
X55275000Y-78600000D02*
X55280909Y-78629179D01*
X55297705Y-78653761D01*
X55322741Y-78669871D01*
X55350000Y-78675000D01*
X58870592Y-78675000D01*
X58870592Y-78800000D01*
X58886281Y-78883380D01*
X58935559Y-78959960D01*
X59010747Y-79011334D01*
X59100000Y-79029408D01*
X63100000Y-79029408D01*
X63183380Y-79013719D01*
X63250771Y-78970354D01*
X63310747Y-79011334D01*
X63400000Y-79029408D01*
X64975000Y-79029408D01*
X64975000Y-79579105D01*
X64844898Y-79525082D01*
X64655931Y-79524918D01*
X64481286Y-79597080D01*
X64425019Y-79653249D01*
X64369417Y-79597549D01*
X64194898Y-79525082D01*
X64005931Y-79524918D01*
X63831286Y-79597080D01*
X63775019Y-79653249D01*
X63719417Y-79597549D01*
X63544898Y-79525082D01*
X63355931Y-79524918D01*
X63181286Y-79597080D01*
X63047549Y-79730583D01*
X62975082Y-79905102D01*
X62974918Y-80094069D01*
X63047080Y-80268714D01*
X63125000Y-80346771D01*
X63125000Y-80402509D01*
X62202508Y-81325000D01*
X61875039Y-81325000D01*
X61875034Y-81324999D01*
X61750662Y-81349739D01*
X61645224Y-81420190D01*
X61645222Y-81420193D01*
X60370129Y-82695285D01*
X60299678Y-82800723D01*
X60274939Y-82925095D01*
X60274939Y-85659869D01*
X60299678Y-85784241D01*
X60370129Y-85889679D01*
X60574960Y-86094510D01*
X60574960Y-89790454D01*
X58925000Y-91440414D01*
X58925000Y-91346732D01*
X59002451Y-91269417D01*
X59074918Y-91094898D01*
X59075082Y-90905931D01*
X59002920Y-90731286D01*
X58869417Y-90597549D01*
X58694898Y-90525082D01*
X58505931Y-90524918D01*
X58331286Y-90597080D01*
X58197549Y-90730583D01*
X58125082Y-90905102D01*
X58124918Y-91094069D01*
X58197080Y-91268714D01*
X58275000Y-91346771D01*
X58275000Y-91595427D01*
X57571102Y-92299324D01*
X57519417Y-92247549D01*
X57344898Y-92175082D01*
X57155931Y-92174918D01*
X56981286Y-92247080D01*
X56847549Y-92380583D01*
X56775082Y-92555102D01*
X56774918Y-92744069D01*
X56847080Y-92918714D01*
X56903249Y-92974981D01*
X56847549Y-93030583D01*
X56775082Y-93205102D01*
X56774918Y-93394069D01*
X56825000Y-93515276D01*
X56825000Y-95170393D01*
X53775000Y-92120392D01*
X53775000Y-91946771D01*
X53830583Y-92002451D01*
X54005102Y-92074918D01*
X54125065Y-92075022D01*
X54124918Y-92244069D01*
X54197080Y-92418714D01*
X54330583Y-92552451D01*
X54505102Y-92624918D01*
X54694069Y-92625082D01*
X54868714Y-92552920D01*
X55002451Y-92419417D01*
X55074918Y-92244898D01*
X55075082Y-92055931D01*
X55002920Y-91881286D01*
X54925000Y-91803229D01*
X54925000Y-91728194D01*
X55229807Y-91423386D01*
X55229810Y-91423384D01*
X55272042Y-91360179D01*
X55300261Y-91317947D01*
X55325000Y-91193574D01*
X55325000Y-84101414D01*
X55300261Y-83977042D01*
X55300261Y-83977041D01*
X55262800Y-83920978D01*
X55229810Y-83871604D01*
X55229807Y-83871602D01*
X54532657Y-83174451D01*
X54529810Y-83170190D01*
X53825000Y-82465380D01*
X53825000Y-82246732D01*
X53902451Y-82169417D01*
X53974918Y-81994898D01*
X53975082Y-81805931D01*
X53902920Y-81631286D01*
X53769417Y-81497549D01*
X53594898Y-81425082D01*
X53405931Y-81424918D01*
X53231286Y-81497080D01*
X53097549Y-81630583D01*
X53025082Y-81805102D01*
X53024918Y-81994069D01*
X53097080Y-82168714D01*
X53175000Y-82246771D01*
X53175000Y-82275000D01*
X51674622Y-82275000D01*
X51175022Y-81775400D01*
X51175082Y-81705931D01*
X51102920Y-81531286D01*
X50969417Y-81397549D01*
X50794898Y-81325082D01*
X50605931Y-81324918D01*
X50431286Y-81397080D01*
X50297549Y-81530583D01*
X50225082Y-81705102D01*
X50224918Y-81894069D01*
X50297080Y-82068714D01*
X50378248Y-82150025D01*
X50297549Y-82230583D01*
X50225082Y-82405102D01*
X50224918Y-82594069D01*
X50297080Y-82768714D01*
X50430583Y-82902451D01*
X50605102Y-82974918D01*
X50715394Y-82975014D01*
X50970190Y-83229810D01*
X51075628Y-83300261D01*
X51200000Y-83325001D01*
X51200005Y-83325000D01*
X53270392Y-83325000D01*
X54325990Y-84380598D01*
X54325990Y-90914391D01*
X54115367Y-91125013D01*
X54005931Y-91124918D01*
X53831286Y-91197080D01*
X53775019Y-91253249D01*
X53719417Y-91197549D01*
X53544898Y-91125082D01*
X53355931Y-91124918D01*
X53181286Y-91197080D01*
X53047549Y-91330583D01*
X52975082Y-91505102D01*
X52974918Y-91694069D01*
X53047080Y-91868714D01*
X53125000Y-91946771D01*
X53125000Y-92255012D01*
X53149739Y-92379384D01*
X53220190Y-92484822D01*
X54685369Y-93950001D01*
X51251041Y-93950001D01*
X50125000Y-92823960D01*
X50125000Y-92615113D01*
X50174918Y-92494898D01*
X50175082Y-92305931D01*
X50102920Y-92131286D01*
X49969417Y-91997549D01*
X49794898Y-91925082D01*
X49605931Y-91924918D01*
X49431286Y-91997080D01*
X49297549Y-92130583D01*
X49225082Y-92305102D01*
X49224918Y-92494069D01*
X49275000Y-92615276D01*
X49275000Y-93000000D01*
X49301114Y-93131286D01*
X49307351Y-93162641D01*
X49399480Y-93300520D01*
X50774481Y-94675521D01*
X50912360Y-94767650D01*
X50939344Y-94773017D01*
X51075001Y-94800001D01*
X54578137Y-94800001D01*
X54580583Y-94802451D01*
X54755102Y-94874918D01*
X54944069Y-94875082D01*
X55065350Y-94824970D01*
X55974990Y-95734610D01*
X55974990Y-97203132D01*
X55969417Y-97197549D01*
X55930656Y-97181454D01*
X55929810Y-97180188D01*
X55519811Y-96770189D01*
X55414373Y-96699738D01*
X55290001Y-96674999D01*
X54511742Y-96674999D01*
X53706913Y-95870169D01*
X53601475Y-95799718D01*
X53477103Y-95774979D01*
X50915031Y-95774979D01*
X50790659Y-95799718D01*
X50685221Y-95870169D01*
X49220179Y-97335211D01*
X49149728Y-97440649D01*
X49124989Y-97565021D01*
X49124989Y-99084979D01*
X49149728Y-99209351D01*
X49220179Y-99314789D01*
X50374980Y-100469590D01*
X50374980Y-102554966D01*
X50399719Y-102679338D01*
X50470170Y-102784776D01*
X50673615Y-102988221D01*
X50625082Y-103105102D01*
X50624918Y-103294069D01*
X50697080Y-103468714D01*
X50753268Y-103525000D01*
X49546732Y-103525000D01*
X49469417Y-103447549D01*
X49294898Y-103375082D01*
X49105931Y-103374918D01*
X48931286Y-103447080D01*
X48797549Y-103580583D01*
X48725082Y-103755102D01*
X48724918Y-103944069D01*
X48797080Y-104118714D01*
X48930583Y-104252451D01*
X49105102Y-104324918D01*
X49294069Y-104325082D01*
X49468714Y-104252920D01*
X49546771Y-104175000D01*
X50625379Y-104175000D01*
X50275378Y-104525000D01*
X49546732Y-104525000D01*
X49469417Y-104447549D01*
X49294898Y-104375082D01*
X49105931Y-104374918D01*
X48931286Y-104447080D01*
X48797549Y-104580583D01*
X48725082Y-104755102D01*
X48724918Y-104944069D01*
X48797080Y-105118714D01*
X48930583Y-105252451D01*
X49105102Y-105324918D01*
X49294069Y-105325082D01*
X49468714Y-105252920D01*
X49546771Y-105175000D01*
X50409998Y-105175000D01*
X50534370Y-105150261D01*
X50639808Y-105079810D01*
X50704341Y-105015277D01*
X50747080Y-105118714D01*
X50880583Y-105252451D01*
X51055102Y-105324918D01*
X51244069Y-105325082D01*
X51316659Y-105295089D01*
X51347080Y-105368714D01*
X51480583Y-105502451D01*
X51655102Y-105574918D01*
X51844069Y-105575082D01*
X51920592Y-105543463D01*
X51920592Y-106700000D01*
X51936281Y-106783380D01*
X51985559Y-106859960D01*
X52060747Y-106911334D01*
X52150000Y-106929408D01*
X52850000Y-106929408D01*
X52933380Y-106913719D01*
X53009960Y-106864441D01*
X53050378Y-106805287D01*
X53085559Y-106859960D01*
X53160747Y-106911334D01*
X53250000Y-106929408D01*
X53950000Y-106929408D01*
X54033380Y-106913719D01*
X54109960Y-106864441D01*
X54150378Y-106805287D01*
X54185559Y-106859960D01*
X54260747Y-106911334D01*
X54350000Y-106929408D01*
X55050000Y-106929408D01*
X55133380Y-106913719D01*
X55209960Y-106864441D01*
X55250378Y-106805287D01*
X55285559Y-106859960D01*
X55360747Y-106911334D01*
X55450000Y-106929408D01*
X56150000Y-106929408D01*
X56233380Y-106913719D01*
X56309960Y-106864441D01*
X56350378Y-106805287D01*
X56385559Y-106859960D01*
X56460747Y-106911334D01*
X56550000Y-106929408D01*
X57250000Y-106929408D01*
X57333380Y-106913719D01*
X57409960Y-106864441D01*
X57461334Y-106789253D01*
X57479408Y-106700000D01*
X57479408Y-105500000D01*
X57463719Y-105416620D01*
X57414441Y-105340040D01*
X57339253Y-105288666D01*
X57250000Y-105270592D01*
X57225000Y-105270592D01*
X57225000Y-103050000D01*
X57219902Y-103024372D01*
X57210075Y-102974966D01*
X57344069Y-102975082D01*
X57518714Y-102902920D01*
X57556040Y-102865660D01*
X58175013Y-103484633D01*
X58174918Y-103594069D01*
X58181256Y-103609409D01*
X58169417Y-103597549D01*
X57994898Y-103525082D01*
X57805931Y-103524918D01*
X57631286Y-103597080D01*
X57497549Y-103730583D01*
X57425082Y-103905102D01*
X57424918Y-104094069D01*
X57497080Y-104268714D01*
X57575000Y-104346771D01*
X57575000Y-104538522D01*
X57599739Y-104662894D01*
X57670190Y-104768332D01*
X58520592Y-105618734D01*
X58520592Y-106700000D01*
X58536281Y-106783380D01*
X58585559Y-106859960D01*
X58660747Y-106911334D01*
X58750000Y-106929408D01*
X59450000Y-106929408D01*
X59533380Y-106913719D01*
X59609960Y-106864441D01*
X59650378Y-106805287D01*
X59685559Y-106859960D01*
X59760747Y-106911334D01*
X59807373Y-106920776D01*
X59797549Y-106930583D01*
X59725082Y-107105102D01*
X59724918Y-107294069D01*
X59797080Y-107468714D01*
X59930583Y-107602451D01*
X60105102Y-107674918D01*
X60294069Y-107675082D01*
X60468714Y-107602920D01*
X60570851Y-107500961D01*
X60574372Y-107500261D01*
X60679810Y-107429810D01*
X61180211Y-106929408D01*
X61500000Y-106929408D01*
X61583380Y-106913719D01*
X61659960Y-106864441D01*
X61711334Y-106789253D01*
X61729408Y-106700000D01*
X61729408Y-105500000D01*
X61713719Y-105416620D01*
X61664441Y-105340040D01*
X61589253Y-105288666D01*
X61500000Y-105270592D01*
X60800000Y-105270592D01*
X60716620Y-105286281D01*
X60674979Y-105313076D01*
X60639253Y-105288666D01*
X60550000Y-105270592D01*
X60479030Y-105270592D01*
X60679831Y-105069791D01*
X60750282Y-104964353D01*
X60775022Y-104839981D01*
X60775021Y-104839976D01*
X60775021Y-103320043D01*
X60769925Y-103294424D01*
X60750282Y-103195670D01*
X60712910Y-103139740D01*
X60679831Y-103090233D01*
X60679828Y-103090231D01*
X60625030Y-103035433D01*
X60625030Y-101984590D01*
X60884619Y-101725000D01*
X61349999Y-101725000D01*
X61474371Y-101700261D01*
X61579809Y-101629810D01*
X61579810Y-101629809D01*
X61829806Y-101379812D01*
X61829809Y-101379810D01*
X61881185Y-101302920D01*
X61900260Y-101274373D01*
X61924999Y-101150000D01*
X61924999Y-100491656D01*
X62005102Y-100524918D01*
X62194069Y-100525082D01*
X62275000Y-100491642D01*
X62275000Y-102350000D01*
X62299739Y-102474372D01*
X62370190Y-102579810D01*
X62375013Y-102584633D01*
X62374918Y-102694069D01*
X62447080Y-102868714D01*
X62580583Y-103002451D01*
X62755102Y-103074918D01*
X62944069Y-103075082D01*
X63118714Y-103002920D01*
X63252451Y-102869417D01*
X63324918Y-102694898D01*
X63325082Y-102505931D01*
X63252920Y-102331286D01*
X63119417Y-102197549D01*
X62944898Y-102125082D01*
X62925000Y-102125065D01*
X62925000Y-98429608D01*
X64329607Y-97025000D01*
X66358343Y-97025000D01*
X66325082Y-97105102D01*
X66324918Y-97294069D01*
X66397080Y-97468714D01*
X66475000Y-97546771D01*
X66475000Y-100256000D01*
X66499739Y-100380372D01*
X66570190Y-100485810D01*
X67365138Y-101280758D01*
X67307770Y-101366615D01*
X67225940Y-101778000D01*
X67307770Y-102189385D01*
X67540800Y-102538140D01*
X67889555Y-102771170D01*
X67908810Y-102775000D01*
X65994267Y-102775000D01*
X66168714Y-102702920D01*
X66302451Y-102569417D01*
X66374918Y-102394898D01*
X66375082Y-102205931D01*
X66302920Y-102031286D01*
X66169417Y-101897549D01*
X65994898Y-101825082D01*
X65805931Y-101824918D01*
X65631286Y-101897080D01*
X65553229Y-101975000D01*
X65200005Y-101975000D01*
X65200000Y-101974999D01*
X65075628Y-101999739D01*
X64970190Y-102070190D01*
X64415367Y-102625013D01*
X64305931Y-102624918D01*
X64131286Y-102697080D01*
X63997549Y-102830583D01*
X63925082Y-103005102D01*
X63924918Y-103194069D01*
X63997080Y-103368714D01*
X64130583Y-103502451D01*
X64305102Y-103574918D01*
X64494069Y-103575082D01*
X64524946Y-103562324D01*
X64524918Y-103594069D01*
X64597080Y-103768714D01*
X64730583Y-103902451D01*
X64905102Y-103974918D01*
X65094069Y-103975082D01*
X65268714Y-103902920D01*
X65402451Y-103769417D01*
X65474918Y-103594898D01*
X65475014Y-103484606D01*
X65534619Y-103425000D01*
X67739640Y-103425000D01*
X67540800Y-103557860D01*
X67307770Y-103906615D01*
X67225940Y-104318000D01*
X67307770Y-104729385D01*
X67365138Y-104815242D01*
X66953391Y-105226989D01*
X66560868Y-105226989D01*
X66560863Y-105226988D01*
X66436491Y-105251728D01*
X66331053Y-105322179D01*
X66331051Y-105322182D01*
X65727242Y-105925990D01*
X64474131Y-105925990D01*
X63525000Y-104976858D01*
X63525000Y-104746732D01*
X63602451Y-104669417D01*
X63674918Y-104494898D01*
X63675082Y-104305931D01*
X63602920Y-104131286D01*
X63469417Y-103997549D01*
X63294898Y-103925082D01*
X63105931Y-103924918D01*
X62931286Y-103997080D01*
X62797549Y-104130583D01*
X62725082Y-104305102D01*
X62724918Y-104494069D01*
X62797080Y-104668714D01*
X62875000Y-104746771D01*
X62875000Y-105111478D01*
X62899739Y-105235850D01*
X62970190Y-105341288D01*
X63283676Y-105654773D01*
X63181286Y-105697080D01*
X63103229Y-105775000D01*
X62661483Y-105775000D01*
X62661478Y-105774999D01*
X62537106Y-105799739D01*
X62431668Y-105870190D01*
X62170190Y-106131668D01*
X62099739Y-106237106D01*
X62075000Y-106361478D01*
X62075000Y-107261809D01*
X61728296Y-107608512D01*
X61020086Y-107608512D01*
X60895713Y-107633251D01*
X60857812Y-107658576D01*
X60790276Y-107703702D01*
X60790274Y-107703705D01*
X59968979Y-108524999D01*
X59609999Y-108524999D01*
X59485626Y-108549738D01*
X59446880Y-108575628D01*
X59380189Y-108620189D01*
X59380187Y-108620192D01*
X59070191Y-108930187D01*
X58999740Y-109035625D01*
X58975001Y-109159997D01*
X58975001Y-110049918D01*
X58974981Y-110050019D01*
X58974981Y-110349981D01*
X58975000Y-110350077D01*
X58975000Y-111239903D01*
X58974981Y-111239999D01*
X58974981Y-111529959D01*
X58999720Y-111654331D01*
X59070171Y-111759769D01*
X59125000Y-111814598D01*
X59125000Y-114053268D01*
X59047549Y-114130583D01*
X58975082Y-114305102D01*
X58974918Y-114494069D01*
X59047080Y-114668714D01*
X59180583Y-114802451D01*
X59355102Y-114874918D01*
X59544069Y-114875082D01*
X59624990Y-114841646D01*
X59624990Y-118275389D01*
X58670189Y-119230189D01*
X58599738Y-119335627D01*
X58574999Y-119459999D01*
X58574999Y-119940001D01*
X58599738Y-120064373D01*
X58670189Y-120169811D01*
X58930187Y-120429808D01*
X58930189Y-120429811D01*
X59021236Y-120490646D01*
X59035627Y-120500262D01*
X59159999Y-120525002D01*
X59160004Y-120525001D01*
X59640001Y-120525001D01*
X59764373Y-120500262D01*
X59869811Y-120429811D01*
X60124557Y-120175065D01*
X60144069Y-120175082D01*
X60318714Y-120102920D01*
X60375990Y-120045744D01*
X60375990Y-120914390D01*
X60265367Y-121025013D01*
X60155931Y-121024918D01*
X59981286Y-121097080D01*
X59847549Y-121230583D01*
X59775082Y-121405102D01*
X59774918Y-121594069D01*
X59847080Y-121768714D01*
X59925000Y-121846771D01*
X59925000Y-122153268D01*
X59847549Y-122230583D01*
X59775082Y-122405102D01*
X59774918Y-122594069D01*
X59847080Y-122768714D01*
X59980583Y-122902451D01*
X60155102Y-122974918D01*
X60344069Y-122975082D01*
X60518714Y-122902920D01*
X60652451Y-122769417D01*
X60724918Y-122594898D01*
X60724960Y-122546730D01*
X60780583Y-122602451D01*
X60955102Y-122674918D01*
X61144069Y-122675082D01*
X61318714Y-122602920D01*
X61452451Y-122469417D01*
X61524918Y-122294898D01*
X61525082Y-122105931D01*
X61452920Y-121931286D01*
X61375000Y-121853229D01*
X61375000Y-119146098D01*
X62345099Y-118175999D01*
X63287523Y-118175999D01*
X63411895Y-118151260D01*
X63517333Y-118080809D01*
X64973078Y-116625064D01*
X64994069Y-116625082D01*
X65168714Y-116552920D01*
X65302451Y-116419417D01*
X65374918Y-116244898D01*
X65375082Y-116055931D01*
X65302920Y-115881286D01*
X65169417Y-115747549D01*
X64994898Y-115675082D01*
X64805931Y-115674918D01*
X64631286Y-115747080D01*
X64575019Y-115803249D01*
X64519417Y-115747549D01*
X64344898Y-115675082D01*
X64155931Y-115674918D01*
X63981286Y-115747080D01*
X63847549Y-115880583D01*
X63775082Y-116055102D01*
X63774918Y-116244069D01*
X63823553Y-116361775D01*
X63008339Y-117176989D01*
X62741209Y-117176989D01*
X62790746Y-117127452D01*
X62825000Y-117044756D01*
X62825000Y-116706250D01*
X62768750Y-116650000D01*
X62150000Y-116650000D01*
X62150000Y-116670000D01*
X62050000Y-116670000D01*
X62050000Y-116650000D01*
X61431250Y-116650000D01*
X61375000Y-116706250D01*
X61375000Y-117044756D01*
X61409254Y-117127452D01*
X61472548Y-117190746D01*
X61555245Y-117225000D01*
X61906714Y-117225000D01*
X61836105Y-117272179D01*
X61836103Y-117272182D01*
X60625000Y-118483284D01*
X60625000Y-116141657D01*
X60705102Y-116174918D01*
X60894069Y-116175082D01*
X60942080Y-116155244D01*
X61375000Y-116155244D01*
X61375000Y-116493750D01*
X61431250Y-116550000D01*
X62050000Y-116550000D01*
X62050000Y-116031250D01*
X62150000Y-116031250D01*
X62150000Y-116550000D01*
X62768750Y-116550000D01*
X62825000Y-116493750D01*
X62825000Y-116155244D01*
X62790746Y-116072548D01*
X62727452Y-116009254D01*
X62644755Y-115975000D01*
X62206250Y-115975000D01*
X62150000Y-116031250D01*
X62050000Y-116031250D01*
X61993750Y-115975000D01*
X61555245Y-115975000D01*
X61472548Y-116009254D01*
X61409254Y-116072548D01*
X61375000Y-116155244D01*
X60942080Y-116155244D01*
X61068714Y-116102920D01*
X61202451Y-115969417D01*
X61274918Y-115794898D01*
X61274936Y-115774686D01*
X61529811Y-115519811D01*
X61600262Y-115414373D01*
X61625001Y-115290001D01*
X61625001Y-114809999D01*
X61600262Y-114685627D01*
X61529811Y-114580189D01*
X61325030Y-114375408D01*
X61325030Y-111441630D01*
X61418714Y-111402920D01*
X61552451Y-111269417D01*
X61624918Y-111094898D01*
X61625082Y-110905931D01*
X61552920Y-110731286D01*
X61475000Y-110653229D01*
X61475000Y-109919584D01*
X61629807Y-109764776D01*
X61629810Y-109764774D01*
X61632657Y-109760513D01*
X61734620Y-109658550D01*
X62441416Y-109658550D01*
X62565788Y-109633811D01*
X62575000Y-109627656D01*
X62575000Y-111015381D01*
X62365367Y-111225013D01*
X62255931Y-111224918D01*
X62081286Y-111297080D01*
X61947549Y-111430583D01*
X61875082Y-111605102D01*
X61874918Y-111794069D01*
X61947080Y-111968714D01*
X62080583Y-112102451D01*
X62255102Y-112174918D01*
X62444069Y-112175082D01*
X62491775Y-112155370D01*
X67269205Y-112155370D01*
X67423855Y-112528738D01*
X67718288Y-112827476D01*
X68104630Y-112990799D01*
X68272000Y-112955592D01*
X68272000Y-111988000D01*
X68372000Y-111988000D01*
X68372000Y-112955592D01*
X68539370Y-112990799D01*
X68925712Y-112827476D01*
X69220145Y-112528738D01*
X69374795Y-112155370D01*
X69339522Y-111988000D01*
X68372000Y-111988000D01*
X68272000Y-111988000D01*
X67304478Y-111988000D01*
X67269205Y-112155370D01*
X62491775Y-112155370D01*
X62618714Y-112102920D01*
X62752451Y-111969417D01*
X62824918Y-111794898D01*
X62824982Y-111720630D01*
X67269205Y-111720630D01*
X67304478Y-111888000D01*
X68272000Y-111888000D01*
X68272000Y-110920408D01*
X68372000Y-110920408D01*
X68372000Y-111888000D01*
X69339522Y-111888000D01*
X69374795Y-111720630D01*
X69220145Y-111347262D01*
X68925712Y-111048524D01*
X68539370Y-110885201D01*
X68372000Y-110920408D01*
X68272000Y-110920408D01*
X68104630Y-110885201D01*
X67718288Y-111048524D01*
X67423855Y-111347262D01*
X67269205Y-111720630D01*
X62824982Y-111720630D01*
X62825014Y-111684606D01*
X63129807Y-111379812D01*
X63129810Y-111379810D01*
X63182963Y-111300261D01*
X63200261Y-111274373D01*
X63225000Y-111150000D01*
X63225000Y-109504574D01*
X64354574Y-108375000D01*
X66525379Y-108375000D01*
X66580187Y-108429808D01*
X66580189Y-108429811D01*
X66640621Y-108470190D01*
X66685626Y-108500262D01*
X66809999Y-108525001D01*
X66989381Y-108525001D01*
X67365138Y-108900758D01*
X67307770Y-108986615D01*
X67225940Y-109398000D01*
X67307770Y-109809385D01*
X67540800Y-110158140D01*
X67889555Y-110391170D01*
X68300940Y-110473000D01*
X68343060Y-110473000D01*
X68754445Y-110391170D01*
X69103200Y-110158140D01*
X69336230Y-109809385D01*
X69418060Y-109398000D01*
X69336230Y-108986615D01*
X69103200Y-108637860D01*
X68754445Y-108404830D01*
X68343060Y-108323000D01*
X68300940Y-108323000D01*
X67889555Y-108404830D01*
X67828947Y-108445327D01*
X67402700Y-108019080D01*
X67452451Y-107969417D01*
X67524918Y-107794898D01*
X67525082Y-107605931D01*
X67512831Y-107576281D01*
X67540800Y-107618140D01*
X67889555Y-107851170D01*
X68300940Y-107933000D01*
X68343060Y-107933000D01*
X68754445Y-107851170D01*
X69103200Y-107618140D01*
X69336230Y-107269385D01*
X69418060Y-106858000D01*
X69336230Y-106446615D01*
X69103200Y-106097860D01*
X68754445Y-105864830D01*
X68343060Y-105783000D01*
X68300940Y-105783000D01*
X67889555Y-105864830D01*
X67828947Y-105905327D01*
X67594809Y-105671189D01*
X67495072Y-105604548D01*
X67828947Y-105270673D01*
X67889555Y-105311170D01*
X68300940Y-105393000D01*
X68343060Y-105393000D01*
X68754445Y-105311170D01*
X69025060Y-105130351D01*
X69024918Y-105294069D01*
X69097080Y-105468714D01*
X69230583Y-105602451D01*
X69405102Y-105674918D01*
X69594069Y-105675082D01*
X69768714Y-105602920D01*
X69825000Y-105546732D01*
X69825000Y-116025000D01*
X66100000Y-116025000D01*
X66070821Y-116030909D01*
X66046967Y-116046967D01*
X64796967Y-117296967D01*
X64780512Y-117321778D01*
X64775000Y-117350000D01*
X64775000Y-124325000D01*
X47375000Y-124325000D01*
X47375000Y-116694069D01*
X48074918Y-116694069D01*
X48147080Y-116868714D01*
X48280583Y-117002451D01*
X48455102Y-117074918D01*
X48644069Y-117075082D01*
X48818714Y-117002920D01*
X48874981Y-116946751D01*
X48875000Y-116946771D01*
X48875000Y-116950010D01*
X48899739Y-117074382D01*
X48970190Y-117179820D01*
X49174999Y-117384628D01*
X49174999Y-121307107D01*
X49199738Y-121431479D01*
X49270189Y-121536917D01*
X49521459Y-121788187D01*
X49521364Y-121897623D01*
X49593526Y-122072268D01*
X49727029Y-122206005D01*
X49901548Y-122278472D01*
X50090515Y-122278636D01*
X50265160Y-122206474D01*
X50398897Y-122072971D01*
X50471364Y-121898452D01*
X50471528Y-121709485D01*
X50399366Y-121534840D01*
X50318194Y-121453526D01*
X50402451Y-121369417D01*
X50474918Y-121194898D01*
X50475082Y-121005931D01*
X50402920Y-120831286D01*
X50269417Y-120697549D01*
X50225000Y-120679105D01*
X50225000Y-116946732D01*
X50302451Y-116869417D01*
X50374918Y-116694898D01*
X50375082Y-116505931D01*
X50302920Y-116331286D01*
X50225000Y-116253229D01*
X50225000Y-111894618D01*
X50525048Y-111594570D01*
X50524918Y-111744069D01*
X50597080Y-111918714D01*
X50730583Y-112052451D01*
X50905102Y-112124918D01*
X51094069Y-112125082D01*
X51268714Y-112052920D01*
X51346771Y-111975000D01*
X51370392Y-111975000D01*
X51574949Y-112179557D01*
X51574949Y-119165431D01*
X51520190Y-119220190D01*
X51449739Y-119325628D01*
X51425000Y-119450000D01*
X51425000Y-121153268D01*
X51347549Y-121230583D01*
X51275082Y-121405102D01*
X51274918Y-121594069D01*
X51347080Y-121768714D01*
X51480583Y-121902451D01*
X51655102Y-121974918D01*
X51844069Y-121975082D01*
X52018714Y-121902920D01*
X52152451Y-121769417D01*
X52224918Y-121594898D01*
X52225082Y-121405931D01*
X52152920Y-121231286D01*
X52075000Y-121153229D01*
X52075000Y-120141657D01*
X52155102Y-120174918D01*
X52344069Y-120175082D01*
X52425000Y-120141642D01*
X52425000Y-121153268D01*
X52347549Y-121230583D01*
X52275082Y-121405102D01*
X52274918Y-121594069D01*
X52347080Y-121768714D01*
X52480583Y-121902451D01*
X52655102Y-121974918D01*
X52844069Y-121975082D01*
X53018714Y-121902920D01*
X53152451Y-121769417D01*
X53224918Y-121594898D01*
X53225082Y-121405931D01*
X53152920Y-121231286D01*
X53075000Y-121153229D01*
X53075000Y-120141657D01*
X53155102Y-120174918D01*
X53344069Y-120175082D01*
X53425000Y-120141642D01*
X53425000Y-121153268D01*
X53347549Y-121230583D01*
X53275082Y-121405102D01*
X53274918Y-121594069D01*
X53347080Y-121768714D01*
X53480583Y-121902451D01*
X53655102Y-121974918D01*
X53844069Y-121975082D01*
X54018714Y-121902920D01*
X54152451Y-121769417D01*
X54224918Y-121594898D01*
X54225082Y-121405931D01*
X54152920Y-121231286D01*
X54075000Y-121153229D01*
X54075000Y-120141657D01*
X54155102Y-120174918D01*
X54344069Y-120175082D01*
X54425000Y-120141642D01*
X54425000Y-121153268D01*
X54347549Y-121230583D01*
X54275082Y-121405102D01*
X54274918Y-121594069D01*
X54347080Y-121768714D01*
X54480583Y-121902451D01*
X54655102Y-121974918D01*
X54844069Y-121975082D01*
X55018714Y-121902920D01*
X55152451Y-121769417D01*
X55224918Y-121594898D01*
X55225082Y-121405931D01*
X55152920Y-121231286D01*
X55075000Y-121153229D01*
X55075000Y-120219610D01*
X55425000Y-120569609D01*
X55425000Y-121153268D01*
X55347549Y-121230583D01*
X55275082Y-121405102D01*
X55274918Y-121594069D01*
X55347080Y-121768714D01*
X55480583Y-121902451D01*
X55655102Y-121974918D01*
X55844069Y-121975082D01*
X56018714Y-121902920D01*
X56074981Y-121846751D01*
X56130583Y-121902451D01*
X56305102Y-121974918D01*
X56425021Y-121975022D01*
X56424918Y-122094069D01*
X56497080Y-122268714D01*
X56630583Y-122402451D01*
X56805102Y-122474918D01*
X56994069Y-122475082D01*
X57168714Y-122402920D01*
X57302451Y-122269417D01*
X57374918Y-122094898D01*
X57375022Y-121974979D01*
X57494069Y-121975082D01*
X57668714Y-121902920D01*
X57802451Y-121769417D01*
X57874918Y-121594898D01*
X57875082Y-121405931D01*
X57802920Y-121231286D01*
X57725000Y-121153229D01*
X57725000Y-120915015D01*
X57725001Y-120915010D01*
X57700261Y-120790638D01*
X57629810Y-120685200D01*
X57425008Y-120480398D01*
X57425008Y-117840015D01*
X57425009Y-117840010D01*
X57424999Y-117839960D01*
X57424999Y-112059997D01*
X57408092Y-111975000D01*
X57400260Y-111935624D01*
X57359752Y-111875000D01*
X57329809Y-111830187D01*
X57329806Y-111830185D01*
X56475000Y-110975378D01*
X56475000Y-110746732D01*
X56552451Y-110669417D01*
X56624918Y-110494898D01*
X56625082Y-110305931D01*
X56552920Y-110131286D01*
X56419417Y-109997549D01*
X56244898Y-109925082D01*
X56055931Y-109924918D01*
X55881286Y-109997080D01*
X55825011Y-110053257D01*
X55825011Y-109084620D01*
X55929810Y-108979821D01*
X56000261Y-108874383D01*
X56025000Y-108750011D01*
X56025000Y-108496732D01*
X56102451Y-108419417D01*
X56174918Y-108244898D01*
X56174918Y-108244069D01*
X57674918Y-108244069D01*
X57747080Y-108418714D01*
X57825000Y-108496771D01*
X57825000Y-110053268D01*
X57747549Y-110130583D01*
X57675082Y-110305102D01*
X57674918Y-110494069D01*
X57747080Y-110668714D01*
X57880583Y-110802451D01*
X58055102Y-110874918D01*
X58244069Y-110875082D01*
X58418714Y-110802920D01*
X58552451Y-110669417D01*
X58624918Y-110494898D01*
X58625082Y-110305931D01*
X58552920Y-110131286D01*
X58475000Y-110053229D01*
X58475000Y-108496732D01*
X58552451Y-108419417D01*
X58624918Y-108244898D01*
X58625082Y-108055931D01*
X58552920Y-107881286D01*
X58419417Y-107747549D01*
X58244898Y-107675082D01*
X58055931Y-107674918D01*
X57881286Y-107747080D01*
X57747549Y-107880583D01*
X57675082Y-108055102D01*
X57674918Y-108244069D01*
X56174918Y-108244069D01*
X56175082Y-108055931D01*
X56102920Y-107881286D01*
X55969417Y-107747549D01*
X55794898Y-107675082D01*
X55605931Y-107674918D01*
X55431286Y-107747080D01*
X55297549Y-107880583D01*
X55237550Y-108025076D01*
X55055931Y-108024918D01*
X54881286Y-108097080D01*
X54747549Y-108230583D01*
X54681275Y-108390187D01*
X54644898Y-108375082D01*
X54455931Y-108374918D01*
X54281286Y-108447080D01*
X54147549Y-108580583D01*
X54075082Y-108755102D01*
X54074918Y-108944069D01*
X54147080Y-109118714D01*
X54225000Y-109196771D01*
X54225000Y-109626859D01*
X53920190Y-109931668D01*
X53885563Y-109983491D01*
X53744898Y-109925082D01*
X53555931Y-109924918D01*
X53381286Y-109997080D01*
X53247549Y-110130583D01*
X53175082Y-110305102D01*
X53174918Y-110494069D01*
X53247080Y-110668714D01*
X53325000Y-110746771D01*
X53325000Y-111070393D01*
X53096080Y-111299312D01*
X52975000Y-111178232D01*
X52975000Y-110746732D01*
X53052451Y-110669417D01*
X53124918Y-110494898D01*
X53125082Y-110305931D01*
X53052920Y-110131286D01*
X52919417Y-109997549D01*
X52744898Y-109925082D01*
X52555931Y-109924918D01*
X52381286Y-109997080D01*
X52325019Y-110053249D01*
X52269417Y-109997549D01*
X52165302Y-109954316D01*
X52594618Y-109525000D01*
X53153268Y-109525000D01*
X53230583Y-109602451D01*
X53405102Y-109674918D01*
X53594069Y-109675082D01*
X53768714Y-109602920D01*
X53902451Y-109469417D01*
X53974918Y-109294898D01*
X53975082Y-109105931D01*
X53902920Y-108931286D01*
X53769417Y-108797549D01*
X53594898Y-108725082D01*
X53424979Y-108724935D01*
X53425082Y-108605931D01*
X53352920Y-108431286D01*
X53219417Y-108297549D01*
X53044898Y-108225082D01*
X52855931Y-108224918D01*
X52681286Y-108297080D01*
X52603229Y-108375000D01*
X52465015Y-108375000D01*
X52465010Y-108374999D01*
X52340638Y-108399739D01*
X52235200Y-108470190D01*
X50854447Y-109850943D01*
X50806474Y-109734840D01*
X50728554Y-109656783D01*
X50728554Y-109281066D01*
X51734633Y-108274987D01*
X51844069Y-108275082D01*
X52018714Y-108202920D01*
X52152451Y-108069417D01*
X52224918Y-107894898D01*
X52225082Y-107705931D01*
X52152920Y-107531286D01*
X52019417Y-107397549D01*
X51844898Y-107325082D01*
X51655931Y-107324918D01*
X51575080Y-107358325D01*
X51575082Y-107355931D01*
X51502920Y-107181286D01*
X51369417Y-107047549D01*
X51194898Y-106975082D01*
X51005931Y-106974918D01*
X50831286Y-107047080D01*
X50697549Y-107180583D01*
X50625082Y-107355102D01*
X50624918Y-107544069D01*
X50697080Y-107718714D01*
X50775000Y-107796771D01*
X50775000Y-107821806D01*
X49470190Y-109126616D01*
X49459073Y-109143254D01*
X49294898Y-109075082D01*
X49105931Y-109074918D01*
X48931286Y-109147080D01*
X48797549Y-109280583D01*
X48725082Y-109455102D01*
X48724918Y-109644069D01*
X48797080Y-109818714D01*
X48874980Y-109896751D01*
X48874980Y-115725399D01*
X48475443Y-116124935D01*
X48455931Y-116124918D01*
X48281286Y-116197080D01*
X48147549Y-116330583D01*
X48075082Y-116505102D01*
X48074918Y-116694069D01*
X47375000Y-116694069D01*
X47375000Y-80694069D01*
X55324918Y-80694069D01*
X55397080Y-80868714D01*
X55530583Y-81002451D01*
X55705102Y-81074918D01*
X55894069Y-81075082D01*
X56015276Y-81025000D01*
X59184887Y-81025000D01*
X59305102Y-81074918D01*
X59494069Y-81075082D01*
X59615276Y-81025000D01*
X61984887Y-81025000D01*
X62105102Y-81074918D01*
X62294069Y-81075082D01*
X62468714Y-81002920D01*
X62602451Y-80869417D01*
X62674918Y-80694898D01*
X62675082Y-80505931D01*
X62602920Y-80331286D01*
X62469417Y-80197549D01*
X62294898Y-80125082D01*
X62105931Y-80124918D01*
X61984724Y-80175000D01*
X59615113Y-80175000D01*
X59494898Y-80125082D01*
X59305931Y-80124918D01*
X59184724Y-80175000D01*
X56015113Y-80175000D01*
X55894898Y-80125082D01*
X55705931Y-80124918D01*
X55531286Y-80197080D01*
X55397549Y-80330583D01*
X55325082Y-80505102D01*
X55324918Y-80694069D01*
X47375000Y-80694069D01*
X47375000Y-74875000D01*
X55275000Y-74875000D01*
X55275000Y-78600000D01*
X55275000Y-78600000D01*
G37*
X55275000Y-78600000D02*
X55280909Y-78629179D01*
X55297705Y-78653761D01*
X55322741Y-78669871D01*
X55350000Y-78675000D01*
X58870592Y-78675000D01*
X58870592Y-78800000D01*
X58886281Y-78883380D01*
X58935559Y-78959960D01*
X59010747Y-79011334D01*
X59100000Y-79029408D01*
X63100000Y-79029408D01*
X63183380Y-79013719D01*
X63250771Y-78970354D01*
X63310747Y-79011334D01*
X63400000Y-79029408D01*
X64975000Y-79029408D01*
X64975000Y-79579105D01*
X64844898Y-79525082D01*
X64655931Y-79524918D01*
X64481286Y-79597080D01*
X64425019Y-79653249D01*
X64369417Y-79597549D01*
X64194898Y-79525082D01*
X64005931Y-79524918D01*
X63831286Y-79597080D01*
X63775019Y-79653249D01*
X63719417Y-79597549D01*
X63544898Y-79525082D01*
X63355931Y-79524918D01*
X63181286Y-79597080D01*
X63047549Y-79730583D01*
X62975082Y-79905102D01*
X62974918Y-80094069D01*
X63047080Y-80268714D01*
X63125000Y-80346771D01*
X63125000Y-80402509D01*
X62202508Y-81325000D01*
X61875039Y-81325000D01*
X61875034Y-81324999D01*
X61750662Y-81349739D01*
X61645224Y-81420190D01*
X61645222Y-81420193D01*
X60370129Y-82695285D01*
X60299678Y-82800723D01*
X60274939Y-82925095D01*
X60274939Y-85659869D01*
X60299678Y-85784241D01*
X60370129Y-85889679D01*
X60574960Y-86094510D01*
X60574960Y-89790454D01*
X58925000Y-91440414D01*
X58925000Y-91346732D01*
X59002451Y-91269417D01*
X59074918Y-91094898D01*
X59075082Y-90905931D01*
X59002920Y-90731286D01*
X58869417Y-90597549D01*
X58694898Y-90525082D01*
X58505931Y-90524918D01*
X58331286Y-90597080D01*
X58197549Y-90730583D01*
X58125082Y-90905102D01*
X58124918Y-91094069D01*
X58197080Y-91268714D01*
X58275000Y-91346771D01*
X58275000Y-91595427D01*
X57571102Y-92299324D01*
X57519417Y-92247549D01*
X57344898Y-92175082D01*
X57155931Y-92174918D01*
X56981286Y-92247080D01*
X56847549Y-92380583D01*
X56775082Y-92555102D01*
X56774918Y-92744069D01*
X56847080Y-92918714D01*
X56903249Y-92974981D01*
X56847549Y-93030583D01*
X56775082Y-93205102D01*
X56774918Y-93394069D01*
X56825000Y-93515276D01*
X56825000Y-95170393D01*
X53775000Y-92120392D01*
X53775000Y-91946771D01*
X53830583Y-92002451D01*
X54005102Y-92074918D01*
X54125065Y-92075022D01*
X54124918Y-92244069D01*
X54197080Y-92418714D01*
X54330583Y-92552451D01*
X54505102Y-92624918D01*
X54694069Y-92625082D01*
X54868714Y-92552920D01*
X55002451Y-92419417D01*
X55074918Y-92244898D01*
X55075082Y-92055931D01*
X55002920Y-91881286D01*
X54925000Y-91803229D01*
X54925000Y-91728194D01*
X55229807Y-91423386D01*
X55229810Y-91423384D01*
X55272042Y-91360179D01*
X55300261Y-91317947D01*
X55325000Y-91193574D01*
X55325000Y-84101414D01*
X55300261Y-83977042D01*
X55300261Y-83977041D01*
X55262800Y-83920978D01*
X55229810Y-83871604D01*
X55229807Y-83871602D01*
X54532657Y-83174451D01*
X54529810Y-83170190D01*
X53825000Y-82465380D01*
X53825000Y-82246732D01*
X53902451Y-82169417D01*
X53974918Y-81994898D01*
X53975082Y-81805931D01*
X53902920Y-81631286D01*
X53769417Y-81497549D01*
X53594898Y-81425082D01*
X53405931Y-81424918D01*
X53231286Y-81497080D01*
X53097549Y-81630583D01*
X53025082Y-81805102D01*
X53024918Y-81994069D01*
X53097080Y-82168714D01*
X53175000Y-82246771D01*
X53175000Y-82275000D01*
X51674622Y-82275000D01*
X51175022Y-81775400D01*
X51175082Y-81705931D01*
X51102920Y-81531286D01*
X50969417Y-81397549D01*
X50794898Y-81325082D01*
X50605931Y-81324918D01*
X50431286Y-81397080D01*
X50297549Y-81530583D01*
X50225082Y-81705102D01*
X50224918Y-81894069D01*
X50297080Y-82068714D01*
X50378248Y-82150025D01*
X50297549Y-82230583D01*
X50225082Y-82405102D01*
X50224918Y-82594069D01*
X50297080Y-82768714D01*
X50430583Y-82902451D01*
X50605102Y-82974918D01*
X50715394Y-82975014D01*
X50970190Y-83229810D01*
X51075628Y-83300261D01*
X51200000Y-83325001D01*
X51200005Y-83325000D01*
X53270392Y-83325000D01*
X54325990Y-84380598D01*
X54325990Y-90914391D01*
X54115367Y-91125013D01*
X54005931Y-91124918D01*
X53831286Y-91197080D01*
X53775019Y-91253249D01*
X53719417Y-91197549D01*
X53544898Y-91125082D01*
X53355931Y-91124918D01*
X53181286Y-91197080D01*
X53047549Y-91330583D01*
X52975082Y-91505102D01*
X52974918Y-91694069D01*
X53047080Y-91868714D01*
X53125000Y-91946771D01*
X53125000Y-92255012D01*
X53149739Y-92379384D01*
X53220190Y-92484822D01*
X54685369Y-93950001D01*
X51251041Y-93950001D01*
X50125000Y-92823960D01*
X50125000Y-92615113D01*
X50174918Y-92494898D01*
X50175082Y-92305931D01*
X50102920Y-92131286D01*
X49969417Y-91997549D01*
X49794898Y-91925082D01*
X49605931Y-91924918D01*
X49431286Y-91997080D01*
X49297549Y-92130583D01*
X49225082Y-92305102D01*
X49224918Y-92494069D01*
X49275000Y-92615276D01*
X49275000Y-93000000D01*
X49301114Y-93131286D01*
X49307351Y-93162641D01*
X49399480Y-93300520D01*
X50774481Y-94675521D01*
X50912360Y-94767650D01*
X50939344Y-94773017D01*
X51075001Y-94800001D01*
X54578137Y-94800001D01*
X54580583Y-94802451D01*
X54755102Y-94874918D01*
X54944069Y-94875082D01*
X55065350Y-94824970D01*
X55974990Y-95734610D01*
X55974990Y-97203132D01*
X55969417Y-97197549D01*
X55930656Y-97181454D01*
X55929810Y-97180188D01*
X55519811Y-96770189D01*
X55414373Y-96699738D01*
X55290001Y-96674999D01*
X54511742Y-96674999D01*
X53706913Y-95870169D01*
X53601475Y-95799718D01*
X53477103Y-95774979D01*
X50915031Y-95774979D01*
X50790659Y-95799718D01*
X50685221Y-95870169D01*
X49220179Y-97335211D01*
X49149728Y-97440649D01*
X49124989Y-97565021D01*
X49124989Y-99084979D01*
X49149728Y-99209351D01*
X49220179Y-99314789D01*
X50374980Y-100469590D01*
X50374980Y-102554966D01*
X50399719Y-102679338D01*
X50470170Y-102784776D01*
X50673615Y-102988221D01*
X50625082Y-103105102D01*
X50624918Y-103294069D01*
X50697080Y-103468714D01*
X50753268Y-103525000D01*
X49546732Y-103525000D01*
X49469417Y-103447549D01*
X49294898Y-103375082D01*
X49105931Y-103374918D01*
X48931286Y-103447080D01*
X48797549Y-103580583D01*
X48725082Y-103755102D01*
X48724918Y-103944069D01*
X48797080Y-104118714D01*
X48930583Y-104252451D01*
X49105102Y-104324918D01*
X49294069Y-104325082D01*
X49468714Y-104252920D01*
X49546771Y-104175000D01*
X50625379Y-104175000D01*
X50275378Y-104525000D01*
X49546732Y-104525000D01*
X49469417Y-104447549D01*
X49294898Y-104375082D01*
X49105931Y-104374918D01*
X48931286Y-104447080D01*
X48797549Y-104580583D01*
X48725082Y-104755102D01*
X48724918Y-104944069D01*
X48797080Y-105118714D01*
X48930583Y-105252451D01*
X49105102Y-105324918D01*
X49294069Y-105325082D01*
X49468714Y-105252920D01*
X49546771Y-105175000D01*
X50409998Y-105175000D01*
X50534370Y-105150261D01*
X50639808Y-105079810D01*
X50704341Y-105015277D01*
X50747080Y-105118714D01*
X50880583Y-105252451D01*
X51055102Y-105324918D01*
X51244069Y-105325082D01*
X51316659Y-105295089D01*
X51347080Y-105368714D01*
X51480583Y-105502451D01*
X51655102Y-105574918D01*
X51844069Y-105575082D01*
X51920592Y-105543463D01*
X51920592Y-106700000D01*
X51936281Y-106783380D01*
X51985559Y-106859960D01*
X52060747Y-106911334D01*
X52150000Y-106929408D01*
X52850000Y-106929408D01*
X52933380Y-106913719D01*
X53009960Y-106864441D01*
X53050378Y-106805287D01*
X53085559Y-106859960D01*
X53160747Y-106911334D01*
X53250000Y-106929408D01*
X53950000Y-106929408D01*
X54033380Y-106913719D01*
X54109960Y-106864441D01*
X54150378Y-106805287D01*
X54185559Y-106859960D01*
X54260747Y-106911334D01*
X54350000Y-106929408D01*
X55050000Y-106929408D01*
X55133380Y-106913719D01*
X55209960Y-106864441D01*
X55250378Y-106805287D01*
X55285559Y-106859960D01*
X55360747Y-106911334D01*
X55450000Y-106929408D01*
X56150000Y-106929408D01*
X56233380Y-106913719D01*
X56309960Y-106864441D01*
X56350378Y-106805287D01*
X56385559Y-106859960D01*
X56460747Y-106911334D01*
X56550000Y-106929408D01*
X57250000Y-106929408D01*
X57333380Y-106913719D01*
X57409960Y-106864441D01*
X57461334Y-106789253D01*
X57479408Y-106700000D01*
X57479408Y-105500000D01*
X57463719Y-105416620D01*
X57414441Y-105340040D01*
X57339253Y-105288666D01*
X57250000Y-105270592D01*
X57225000Y-105270592D01*
X57225000Y-103050000D01*
X57219902Y-103024372D01*
X57210075Y-102974966D01*
X57344069Y-102975082D01*
X57518714Y-102902920D01*
X57556040Y-102865660D01*
X58175013Y-103484633D01*
X58174918Y-103594069D01*
X58181256Y-103609409D01*
X58169417Y-103597549D01*
X57994898Y-103525082D01*
X57805931Y-103524918D01*
X57631286Y-103597080D01*
X57497549Y-103730583D01*
X57425082Y-103905102D01*
X57424918Y-104094069D01*
X57497080Y-104268714D01*
X57575000Y-104346771D01*
X57575000Y-104538522D01*
X57599739Y-104662894D01*
X57670190Y-104768332D01*
X58520592Y-105618734D01*
X58520592Y-106700000D01*
X58536281Y-106783380D01*
X58585559Y-106859960D01*
X58660747Y-106911334D01*
X58750000Y-106929408D01*
X59450000Y-106929408D01*
X59533380Y-106913719D01*
X59609960Y-106864441D01*
X59650378Y-106805287D01*
X59685559Y-106859960D01*
X59760747Y-106911334D01*
X59807373Y-106920776D01*
X59797549Y-106930583D01*
X59725082Y-107105102D01*
X59724918Y-107294069D01*
X59797080Y-107468714D01*
X59930583Y-107602451D01*
X60105102Y-107674918D01*
X60294069Y-107675082D01*
X60468714Y-107602920D01*
X60570851Y-107500961D01*
X60574372Y-107500261D01*
X60679810Y-107429810D01*
X61180211Y-106929408D01*
X61500000Y-106929408D01*
X61583380Y-106913719D01*
X61659960Y-106864441D01*
X61711334Y-106789253D01*
X61729408Y-106700000D01*
X61729408Y-105500000D01*
X61713719Y-105416620D01*
X61664441Y-105340040D01*
X61589253Y-105288666D01*
X61500000Y-105270592D01*
X60800000Y-105270592D01*
X60716620Y-105286281D01*
X60674979Y-105313076D01*
X60639253Y-105288666D01*
X60550000Y-105270592D01*
X60479030Y-105270592D01*
X60679831Y-105069791D01*
X60750282Y-104964353D01*
X60775022Y-104839981D01*
X60775021Y-104839976D01*
X60775021Y-103320043D01*
X60769925Y-103294424D01*
X60750282Y-103195670D01*
X60712910Y-103139740D01*
X60679831Y-103090233D01*
X60679828Y-103090231D01*
X60625030Y-103035433D01*
X60625030Y-101984590D01*
X60884619Y-101725000D01*
X61349999Y-101725000D01*
X61474371Y-101700261D01*
X61579809Y-101629810D01*
X61579810Y-101629809D01*
X61829806Y-101379812D01*
X61829809Y-101379810D01*
X61881185Y-101302920D01*
X61900260Y-101274373D01*
X61924999Y-101150000D01*
X61924999Y-100491656D01*
X62005102Y-100524918D01*
X62194069Y-100525082D01*
X62275000Y-100491642D01*
X62275000Y-102350000D01*
X62299739Y-102474372D01*
X62370190Y-102579810D01*
X62375013Y-102584633D01*
X62374918Y-102694069D01*
X62447080Y-102868714D01*
X62580583Y-103002451D01*
X62755102Y-103074918D01*
X62944069Y-103075082D01*
X63118714Y-103002920D01*
X63252451Y-102869417D01*
X63324918Y-102694898D01*
X63325082Y-102505931D01*
X63252920Y-102331286D01*
X63119417Y-102197549D01*
X62944898Y-102125082D01*
X62925000Y-102125065D01*
X62925000Y-98429608D01*
X64329607Y-97025000D01*
X66358343Y-97025000D01*
X66325082Y-97105102D01*
X66324918Y-97294069D01*
X66397080Y-97468714D01*
X66475000Y-97546771D01*
X66475000Y-100256000D01*
X66499739Y-100380372D01*
X66570190Y-100485810D01*
X67365138Y-101280758D01*
X67307770Y-101366615D01*
X67225940Y-101778000D01*
X67307770Y-102189385D01*
X67540800Y-102538140D01*
X67889555Y-102771170D01*
X67908810Y-102775000D01*
X65994267Y-102775000D01*
X66168714Y-102702920D01*
X66302451Y-102569417D01*
X66374918Y-102394898D01*
X66375082Y-102205931D01*
X66302920Y-102031286D01*
X66169417Y-101897549D01*
X65994898Y-101825082D01*
X65805931Y-101824918D01*
X65631286Y-101897080D01*
X65553229Y-101975000D01*
X65200005Y-101975000D01*
X65200000Y-101974999D01*
X65075628Y-101999739D01*
X64970190Y-102070190D01*
X64415367Y-102625013D01*
X64305931Y-102624918D01*
X64131286Y-102697080D01*
X63997549Y-102830583D01*
X63925082Y-103005102D01*
X63924918Y-103194069D01*
X63997080Y-103368714D01*
X64130583Y-103502451D01*
X64305102Y-103574918D01*
X64494069Y-103575082D01*
X64524946Y-103562324D01*
X64524918Y-103594069D01*
X64597080Y-103768714D01*
X64730583Y-103902451D01*
X64905102Y-103974918D01*
X65094069Y-103975082D01*
X65268714Y-103902920D01*
X65402451Y-103769417D01*
X65474918Y-103594898D01*
X65475014Y-103484606D01*
X65534619Y-103425000D01*
X67739640Y-103425000D01*
X67540800Y-103557860D01*
X67307770Y-103906615D01*
X67225940Y-104318000D01*
X67307770Y-104729385D01*
X67365138Y-104815242D01*
X66953391Y-105226989D01*
X66560868Y-105226989D01*
X66560863Y-105226988D01*
X66436491Y-105251728D01*
X66331053Y-105322179D01*
X66331051Y-105322182D01*
X65727242Y-105925990D01*
X64474131Y-105925990D01*
X63525000Y-104976858D01*
X63525000Y-104746732D01*
X63602451Y-104669417D01*
X63674918Y-104494898D01*
X63675082Y-104305931D01*
X63602920Y-104131286D01*
X63469417Y-103997549D01*
X63294898Y-103925082D01*
X63105931Y-103924918D01*
X62931286Y-103997080D01*
X62797549Y-104130583D01*
X62725082Y-104305102D01*
X62724918Y-104494069D01*
X62797080Y-104668714D01*
X62875000Y-104746771D01*
X62875000Y-105111478D01*
X62899739Y-105235850D01*
X62970190Y-105341288D01*
X63283676Y-105654773D01*
X63181286Y-105697080D01*
X63103229Y-105775000D01*
X62661483Y-105775000D01*
X62661478Y-105774999D01*
X62537106Y-105799739D01*
X62431668Y-105870190D01*
X62170190Y-106131668D01*
X62099739Y-106237106D01*
X62075000Y-106361478D01*
X62075000Y-107261809D01*
X61728296Y-107608512D01*
X61020086Y-107608512D01*
X60895713Y-107633251D01*
X60857812Y-107658576D01*
X60790276Y-107703702D01*
X60790274Y-107703705D01*
X59968979Y-108524999D01*
X59609999Y-108524999D01*
X59485626Y-108549738D01*
X59446880Y-108575628D01*
X59380189Y-108620189D01*
X59380187Y-108620192D01*
X59070191Y-108930187D01*
X58999740Y-109035625D01*
X58975001Y-109159997D01*
X58975001Y-110049918D01*
X58974981Y-110050019D01*
X58974981Y-110349981D01*
X58975000Y-110350077D01*
X58975000Y-111239903D01*
X58974981Y-111239999D01*
X58974981Y-111529959D01*
X58999720Y-111654331D01*
X59070171Y-111759769D01*
X59125000Y-111814598D01*
X59125000Y-114053268D01*
X59047549Y-114130583D01*
X58975082Y-114305102D01*
X58974918Y-114494069D01*
X59047080Y-114668714D01*
X59180583Y-114802451D01*
X59355102Y-114874918D01*
X59544069Y-114875082D01*
X59624990Y-114841646D01*
X59624990Y-118275389D01*
X58670189Y-119230189D01*
X58599738Y-119335627D01*
X58574999Y-119459999D01*
X58574999Y-119940001D01*
X58599738Y-120064373D01*
X58670189Y-120169811D01*
X58930187Y-120429808D01*
X58930189Y-120429811D01*
X59021236Y-120490646D01*
X59035627Y-120500262D01*
X59159999Y-120525002D01*
X59160004Y-120525001D01*
X59640001Y-120525001D01*
X59764373Y-120500262D01*
X59869811Y-120429811D01*
X60124557Y-120175065D01*
X60144069Y-120175082D01*
X60318714Y-120102920D01*
X60375990Y-120045744D01*
X60375990Y-120914390D01*
X60265367Y-121025013D01*
X60155931Y-121024918D01*
X59981286Y-121097080D01*
X59847549Y-121230583D01*
X59775082Y-121405102D01*
X59774918Y-121594069D01*
X59847080Y-121768714D01*
X59925000Y-121846771D01*
X59925000Y-122153268D01*
X59847549Y-122230583D01*
X59775082Y-122405102D01*
X59774918Y-122594069D01*
X59847080Y-122768714D01*
X59980583Y-122902451D01*
X60155102Y-122974918D01*
X60344069Y-122975082D01*
X60518714Y-122902920D01*
X60652451Y-122769417D01*
X60724918Y-122594898D01*
X60724960Y-122546730D01*
X60780583Y-122602451D01*
X60955102Y-122674918D01*
X61144069Y-122675082D01*
X61318714Y-122602920D01*
X61452451Y-122469417D01*
X61524918Y-122294898D01*
X61525082Y-122105931D01*
X61452920Y-121931286D01*
X61375000Y-121853229D01*
X61375000Y-119146098D01*
X62345099Y-118175999D01*
X63287523Y-118175999D01*
X63411895Y-118151260D01*
X63517333Y-118080809D01*
X64973078Y-116625064D01*
X64994069Y-116625082D01*
X65168714Y-116552920D01*
X65302451Y-116419417D01*
X65374918Y-116244898D01*
X65375082Y-116055931D01*
X65302920Y-115881286D01*
X65169417Y-115747549D01*
X64994898Y-115675082D01*
X64805931Y-115674918D01*
X64631286Y-115747080D01*
X64575019Y-115803249D01*
X64519417Y-115747549D01*
X64344898Y-115675082D01*
X64155931Y-115674918D01*
X63981286Y-115747080D01*
X63847549Y-115880583D01*
X63775082Y-116055102D01*
X63774918Y-116244069D01*
X63823553Y-116361775D01*
X63008339Y-117176989D01*
X62741209Y-117176989D01*
X62790746Y-117127452D01*
X62825000Y-117044756D01*
X62825000Y-116706250D01*
X62768750Y-116650000D01*
X62150000Y-116650000D01*
X62150000Y-116670000D01*
X62050000Y-116670000D01*
X62050000Y-116650000D01*
X61431250Y-116650000D01*
X61375000Y-116706250D01*
X61375000Y-117044756D01*
X61409254Y-117127452D01*
X61472548Y-117190746D01*
X61555245Y-117225000D01*
X61906714Y-117225000D01*
X61836105Y-117272179D01*
X61836103Y-117272182D01*
X60625000Y-118483284D01*
X60625000Y-116141657D01*
X60705102Y-116174918D01*
X60894069Y-116175082D01*
X60942080Y-116155244D01*
X61375000Y-116155244D01*
X61375000Y-116493750D01*
X61431250Y-116550000D01*
X62050000Y-116550000D01*
X62050000Y-116031250D01*
X62150000Y-116031250D01*
X62150000Y-116550000D01*
X62768750Y-116550000D01*
X62825000Y-116493750D01*
X62825000Y-116155244D01*
X62790746Y-116072548D01*
X62727452Y-116009254D01*
X62644755Y-115975000D01*
X62206250Y-115975000D01*
X62150000Y-116031250D01*
X62050000Y-116031250D01*
X61993750Y-115975000D01*
X61555245Y-115975000D01*
X61472548Y-116009254D01*
X61409254Y-116072548D01*
X61375000Y-116155244D01*
X60942080Y-116155244D01*
X61068714Y-116102920D01*
X61202451Y-115969417D01*
X61274918Y-115794898D01*
X61274936Y-115774686D01*
X61529811Y-115519811D01*
X61600262Y-115414373D01*
X61625001Y-115290001D01*
X61625001Y-114809999D01*
X61600262Y-114685627D01*
X61529811Y-114580189D01*
X61325030Y-114375408D01*
X61325030Y-111441630D01*
X61418714Y-111402920D01*
X61552451Y-111269417D01*
X61624918Y-111094898D01*
X61625082Y-110905931D01*
X61552920Y-110731286D01*
X61475000Y-110653229D01*
X61475000Y-109919584D01*
X61629807Y-109764776D01*
X61629810Y-109764774D01*
X61632657Y-109760513D01*
X61734620Y-109658550D01*
X62441416Y-109658550D01*
X62565788Y-109633811D01*
X62575000Y-109627656D01*
X62575000Y-111015381D01*
X62365367Y-111225013D01*
X62255931Y-111224918D01*
X62081286Y-111297080D01*
X61947549Y-111430583D01*
X61875082Y-111605102D01*
X61874918Y-111794069D01*
X61947080Y-111968714D01*
X62080583Y-112102451D01*
X62255102Y-112174918D01*
X62444069Y-112175082D01*
X62491775Y-112155370D01*
X67269205Y-112155370D01*
X67423855Y-112528738D01*
X67718288Y-112827476D01*
X68104630Y-112990799D01*
X68272000Y-112955592D01*
X68272000Y-111988000D01*
X68372000Y-111988000D01*
X68372000Y-112955592D01*
X68539370Y-112990799D01*
X68925712Y-112827476D01*
X69220145Y-112528738D01*
X69374795Y-112155370D01*
X69339522Y-111988000D01*
X68372000Y-111988000D01*
X68272000Y-111988000D01*
X67304478Y-111988000D01*
X67269205Y-112155370D01*
X62491775Y-112155370D01*
X62618714Y-112102920D01*
X62752451Y-111969417D01*
X62824918Y-111794898D01*
X62824982Y-111720630D01*
X67269205Y-111720630D01*
X67304478Y-111888000D01*
X68272000Y-111888000D01*
X68272000Y-110920408D01*
X68372000Y-110920408D01*
X68372000Y-111888000D01*
X69339522Y-111888000D01*
X69374795Y-111720630D01*
X69220145Y-111347262D01*
X68925712Y-111048524D01*
X68539370Y-110885201D01*
X68372000Y-110920408D01*
X68272000Y-110920408D01*
X68104630Y-110885201D01*
X67718288Y-111048524D01*
X67423855Y-111347262D01*
X67269205Y-111720630D01*
X62824982Y-111720630D01*
X62825014Y-111684606D01*
X63129807Y-111379812D01*
X63129810Y-111379810D01*
X63182963Y-111300261D01*
X63200261Y-111274373D01*
X63225000Y-111150000D01*
X63225000Y-109504574D01*
X64354574Y-108375000D01*
X66525379Y-108375000D01*
X66580187Y-108429808D01*
X66580189Y-108429811D01*
X66640621Y-108470190D01*
X66685626Y-108500262D01*
X66809999Y-108525001D01*
X66989381Y-108525001D01*
X67365138Y-108900758D01*
X67307770Y-108986615D01*
X67225940Y-109398000D01*
X67307770Y-109809385D01*
X67540800Y-110158140D01*
X67889555Y-110391170D01*
X68300940Y-110473000D01*
X68343060Y-110473000D01*
X68754445Y-110391170D01*
X69103200Y-110158140D01*
X69336230Y-109809385D01*
X69418060Y-109398000D01*
X69336230Y-108986615D01*
X69103200Y-108637860D01*
X68754445Y-108404830D01*
X68343060Y-108323000D01*
X68300940Y-108323000D01*
X67889555Y-108404830D01*
X67828947Y-108445327D01*
X67402700Y-108019080D01*
X67452451Y-107969417D01*
X67524918Y-107794898D01*
X67525082Y-107605931D01*
X67512831Y-107576281D01*
X67540800Y-107618140D01*
X67889555Y-107851170D01*
X68300940Y-107933000D01*
X68343060Y-107933000D01*
X68754445Y-107851170D01*
X69103200Y-107618140D01*
X69336230Y-107269385D01*
X69418060Y-106858000D01*
X69336230Y-106446615D01*
X69103200Y-106097860D01*
X68754445Y-105864830D01*
X68343060Y-105783000D01*
X68300940Y-105783000D01*
X67889555Y-105864830D01*
X67828947Y-105905327D01*
X67594809Y-105671189D01*
X67495072Y-105604548D01*
X67828947Y-105270673D01*
X67889555Y-105311170D01*
X68300940Y-105393000D01*
X68343060Y-105393000D01*
X68754445Y-105311170D01*
X69025060Y-105130351D01*
X69024918Y-105294069D01*
X69097080Y-105468714D01*
X69230583Y-105602451D01*
X69405102Y-105674918D01*
X69594069Y-105675082D01*
X69768714Y-105602920D01*
X69825000Y-105546732D01*
X69825000Y-116025000D01*
X66100000Y-116025000D01*
X66070821Y-116030909D01*
X66046967Y-116046967D01*
X64796967Y-117296967D01*
X64780512Y-117321778D01*
X64775000Y-117350000D01*
X64775000Y-124325000D01*
X47375000Y-124325000D01*
X47375000Y-116694069D01*
X48074918Y-116694069D01*
X48147080Y-116868714D01*
X48280583Y-117002451D01*
X48455102Y-117074918D01*
X48644069Y-117075082D01*
X48818714Y-117002920D01*
X48874981Y-116946751D01*
X48875000Y-116946771D01*
X48875000Y-116950010D01*
X48899739Y-117074382D01*
X48970190Y-117179820D01*
X49174999Y-117384628D01*
X49174999Y-121307107D01*
X49199738Y-121431479D01*
X49270189Y-121536917D01*
X49521459Y-121788187D01*
X49521364Y-121897623D01*
X49593526Y-122072268D01*
X49727029Y-122206005D01*
X49901548Y-122278472D01*
X50090515Y-122278636D01*
X50265160Y-122206474D01*
X50398897Y-122072971D01*
X50471364Y-121898452D01*
X50471528Y-121709485D01*
X50399366Y-121534840D01*
X50318194Y-121453526D01*
X50402451Y-121369417D01*
X50474918Y-121194898D01*
X50475082Y-121005931D01*
X50402920Y-120831286D01*
X50269417Y-120697549D01*
X50225000Y-120679105D01*
X50225000Y-116946732D01*
X50302451Y-116869417D01*
X50374918Y-116694898D01*
X50375082Y-116505931D01*
X50302920Y-116331286D01*
X50225000Y-116253229D01*
X50225000Y-111894618D01*
X50525048Y-111594570D01*
X50524918Y-111744069D01*
X50597080Y-111918714D01*
X50730583Y-112052451D01*
X50905102Y-112124918D01*
X51094069Y-112125082D01*
X51268714Y-112052920D01*
X51346771Y-111975000D01*
X51370392Y-111975000D01*
X51574949Y-112179557D01*
X51574949Y-119165431D01*
X51520190Y-119220190D01*
X51449739Y-119325628D01*
X51425000Y-119450000D01*
X51425000Y-121153268D01*
X51347549Y-121230583D01*
X51275082Y-121405102D01*
X51274918Y-121594069D01*
X51347080Y-121768714D01*
X51480583Y-121902451D01*
X51655102Y-121974918D01*
X51844069Y-121975082D01*
X52018714Y-121902920D01*
X52152451Y-121769417D01*
X52224918Y-121594898D01*
X52225082Y-121405931D01*
X52152920Y-121231286D01*
X52075000Y-121153229D01*
X52075000Y-120141657D01*
X52155102Y-120174918D01*
X52344069Y-120175082D01*
X52425000Y-120141642D01*
X52425000Y-121153268D01*
X52347549Y-121230583D01*
X52275082Y-121405102D01*
X52274918Y-121594069D01*
X52347080Y-121768714D01*
X52480583Y-121902451D01*
X52655102Y-121974918D01*
X52844069Y-121975082D01*
X53018714Y-121902920D01*
X53152451Y-121769417D01*
X53224918Y-121594898D01*
X53225082Y-121405931D01*
X53152920Y-121231286D01*
X53075000Y-121153229D01*
X53075000Y-120141657D01*
X53155102Y-120174918D01*
X53344069Y-120175082D01*
X53425000Y-120141642D01*
X53425000Y-121153268D01*
X53347549Y-121230583D01*
X53275082Y-121405102D01*
X53274918Y-121594069D01*
X53347080Y-121768714D01*
X53480583Y-121902451D01*
X53655102Y-121974918D01*
X53844069Y-121975082D01*
X54018714Y-121902920D01*
X54152451Y-121769417D01*
X54224918Y-121594898D01*
X54225082Y-121405931D01*
X54152920Y-121231286D01*
X54075000Y-121153229D01*
X54075000Y-120141657D01*
X54155102Y-120174918D01*
X54344069Y-120175082D01*
X54425000Y-120141642D01*
X54425000Y-121153268D01*
X54347549Y-121230583D01*
X54275082Y-121405102D01*
X54274918Y-121594069D01*
X54347080Y-121768714D01*
X54480583Y-121902451D01*
X54655102Y-121974918D01*
X54844069Y-121975082D01*
X55018714Y-121902920D01*
X55152451Y-121769417D01*
X55224918Y-121594898D01*
X55225082Y-121405931D01*
X55152920Y-121231286D01*
X55075000Y-121153229D01*
X55075000Y-120219610D01*
X55425000Y-120569609D01*
X55425000Y-121153268D01*
X55347549Y-121230583D01*
X55275082Y-121405102D01*
X55274918Y-121594069D01*
X55347080Y-121768714D01*
X55480583Y-121902451D01*
X55655102Y-121974918D01*
X55844069Y-121975082D01*
X56018714Y-121902920D01*
X56074981Y-121846751D01*
X56130583Y-121902451D01*
X56305102Y-121974918D01*
X56425021Y-121975022D01*
X56424918Y-122094069D01*
X56497080Y-122268714D01*
X56630583Y-122402451D01*
X56805102Y-122474918D01*
X56994069Y-122475082D01*
X57168714Y-122402920D01*
X57302451Y-122269417D01*
X57374918Y-122094898D01*
X57375022Y-121974979D01*
X57494069Y-121975082D01*
X57668714Y-121902920D01*
X57802451Y-121769417D01*
X57874918Y-121594898D01*
X57875082Y-121405931D01*
X57802920Y-121231286D01*
X57725000Y-121153229D01*
X57725000Y-120915015D01*
X57725001Y-120915010D01*
X57700261Y-120790638D01*
X57629810Y-120685200D01*
X57425008Y-120480398D01*
X57425008Y-117840015D01*
X57425009Y-117840010D01*
X57424999Y-117839960D01*
X57424999Y-112059997D01*
X57408092Y-111975000D01*
X57400260Y-111935624D01*
X57359752Y-111875000D01*
X57329809Y-111830187D01*
X57329806Y-111830185D01*
X56475000Y-110975378D01*
X56475000Y-110746732D01*
X56552451Y-110669417D01*
X56624918Y-110494898D01*
X56625082Y-110305931D01*
X56552920Y-110131286D01*
X56419417Y-109997549D01*
X56244898Y-109925082D01*
X56055931Y-109924918D01*
X55881286Y-109997080D01*
X55825011Y-110053257D01*
X55825011Y-109084620D01*
X55929810Y-108979821D01*
X56000261Y-108874383D01*
X56025000Y-108750011D01*
X56025000Y-108496732D01*
X56102451Y-108419417D01*
X56174918Y-108244898D01*
X56174918Y-108244069D01*
X57674918Y-108244069D01*
X57747080Y-108418714D01*
X57825000Y-108496771D01*
X57825000Y-110053268D01*
X57747549Y-110130583D01*
X57675082Y-110305102D01*
X57674918Y-110494069D01*
X57747080Y-110668714D01*
X57880583Y-110802451D01*
X58055102Y-110874918D01*
X58244069Y-110875082D01*
X58418714Y-110802920D01*
X58552451Y-110669417D01*
X58624918Y-110494898D01*
X58625082Y-110305931D01*
X58552920Y-110131286D01*
X58475000Y-110053229D01*
X58475000Y-108496732D01*
X58552451Y-108419417D01*
X58624918Y-108244898D01*
X58625082Y-108055931D01*
X58552920Y-107881286D01*
X58419417Y-107747549D01*
X58244898Y-107675082D01*
X58055931Y-107674918D01*
X57881286Y-107747080D01*
X57747549Y-107880583D01*
X57675082Y-108055102D01*
X57674918Y-108244069D01*
X56174918Y-108244069D01*
X56175082Y-108055931D01*
X56102920Y-107881286D01*
X55969417Y-107747549D01*
X55794898Y-107675082D01*
X55605931Y-107674918D01*
X55431286Y-107747080D01*
X55297549Y-107880583D01*
X55237550Y-108025076D01*
X55055931Y-108024918D01*
X54881286Y-108097080D01*
X54747549Y-108230583D01*
X54681275Y-108390187D01*
X54644898Y-108375082D01*
X54455931Y-108374918D01*
X54281286Y-108447080D01*
X54147549Y-108580583D01*
X54075082Y-108755102D01*
X54074918Y-108944069D01*
X54147080Y-109118714D01*
X54225000Y-109196771D01*
X54225000Y-109626859D01*
X53920190Y-109931668D01*
X53885563Y-109983491D01*
X53744898Y-109925082D01*
X53555931Y-109924918D01*
X53381286Y-109997080D01*
X53247549Y-110130583D01*
X53175082Y-110305102D01*
X53174918Y-110494069D01*
X53247080Y-110668714D01*
X53325000Y-110746771D01*
X53325000Y-111070393D01*
X53096080Y-111299312D01*
X52975000Y-111178232D01*
X52975000Y-110746732D01*
X53052451Y-110669417D01*
X53124918Y-110494898D01*
X53125082Y-110305931D01*
X53052920Y-110131286D01*
X52919417Y-109997549D01*
X52744898Y-109925082D01*
X52555931Y-109924918D01*
X52381286Y-109997080D01*
X52325019Y-110053249D01*
X52269417Y-109997549D01*
X52165302Y-109954316D01*
X52594618Y-109525000D01*
X53153268Y-109525000D01*
X53230583Y-109602451D01*
X53405102Y-109674918D01*
X53594069Y-109675082D01*
X53768714Y-109602920D01*
X53902451Y-109469417D01*
X53974918Y-109294898D01*
X53975082Y-109105931D01*
X53902920Y-108931286D01*
X53769417Y-108797549D01*
X53594898Y-108725082D01*
X53424979Y-108724935D01*
X53425082Y-108605931D01*
X53352920Y-108431286D01*
X53219417Y-108297549D01*
X53044898Y-108225082D01*
X52855931Y-108224918D01*
X52681286Y-108297080D01*
X52603229Y-108375000D01*
X52465015Y-108375000D01*
X52465010Y-108374999D01*
X52340638Y-108399739D01*
X52235200Y-108470190D01*
X50854447Y-109850943D01*
X50806474Y-109734840D01*
X50728554Y-109656783D01*
X50728554Y-109281066D01*
X51734633Y-108274987D01*
X51844069Y-108275082D01*
X52018714Y-108202920D01*
X52152451Y-108069417D01*
X52224918Y-107894898D01*
X52225082Y-107705931D01*
X52152920Y-107531286D01*
X52019417Y-107397549D01*
X51844898Y-107325082D01*
X51655931Y-107324918D01*
X51575080Y-107358325D01*
X51575082Y-107355931D01*
X51502920Y-107181286D01*
X51369417Y-107047549D01*
X51194898Y-106975082D01*
X51005931Y-106974918D01*
X50831286Y-107047080D01*
X50697549Y-107180583D01*
X50625082Y-107355102D01*
X50624918Y-107544069D01*
X50697080Y-107718714D01*
X50775000Y-107796771D01*
X50775000Y-107821806D01*
X49470190Y-109126616D01*
X49459073Y-109143254D01*
X49294898Y-109075082D01*
X49105931Y-109074918D01*
X48931286Y-109147080D01*
X48797549Y-109280583D01*
X48725082Y-109455102D01*
X48724918Y-109644069D01*
X48797080Y-109818714D01*
X48874980Y-109896751D01*
X48874980Y-115725399D01*
X48475443Y-116124935D01*
X48455931Y-116124918D01*
X48281286Y-116197080D01*
X48147549Y-116330583D01*
X48075082Y-116505102D01*
X48074918Y-116694069D01*
X47375000Y-116694069D01*
X47375000Y-80694069D01*
X55324918Y-80694069D01*
X55397080Y-80868714D01*
X55530583Y-81002451D01*
X55705102Y-81074918D01*
X55894069Y-81075082D01*
X56015276Y-81025000D01*
X59184887Y-81025000D01*
X59305102Y-81074918D01*
X59494069Y-81075082D01*
X59615276Y-81025000D01*
X61984887Y-81025000D01*
X62105102Y-81074918D01*
X62294069Y-81075082D01*
X62468714Y-81002920D01*
X62602451Y-80869417D01*
X62674918Y-80694898D01*
X62675082Y-80505931D01*
X62602920Y-80331286D01*
X62469417Y-80197549D01*
X62294898Y-80125082D01*
X62105931Y-80124918D01*
X61984724Y-80175000D01*
X59615113Y-80175000D01*
X59494898Y-80125082D01*
X59305931Y-80124918D01*
X59184724Y-80175000D01*
X56015113Y-80175000D01*
X55894898Y-80125082D01*
X55705931Y-80124918D01*
X55531286Y-80197080D01*
X55397549Y-80330583D01*
X55325082Y-80505102D01*
X55324918Y-80694069D01*
X47375000Y-80694069D01*
X47375000Y-74875000D01*
X55275000Y-74875000D01*
X55275000Y-78600000D01*
G36*
X56405102Y-112674918D02*
X56424989Y-112674935D01*
X56424989Y-117984979D01*
X56425000Y-117985034D01*
X56425000Y-119258343D01*
X56344898Y-119225082D01*
X56234606Y-119224986D01*
X56125030Y-119115410D01*
X56125030Y-118985114D01*
X56100291Y-118860742D01*
X56029840Y-118755304D01*
X55375030Y-118100494D01*
X55375030Y-114841657D01*
X55455132Y-114874918D01*
X55644099Y-114875082D01*
X55818744Y-114802920D01*
X55952481Y-114669417D01*
X56024948Y-114494898D01*
X56025112Y-114305931D01*
X55952950Y-114131286D01*
X55875030Y-114053229D01*
X55875030Y-113900030D01*
X55875000Y-113899879D01*
X55875000Y-113169610D01*
X56229818Y-112814791D01*
X56229821Y-112814789D01*
X56300272Y-112709351D01*
X56306150Y-112679799D01*
X56314597Y-112637337D01*
X56405102Y-112674918D01*
X56405102Y-112674918D01*
G37*
X56405102Y-112674918D02*
X56424989Y-112674935D01*
X56424989Y-117984979D01*
X56425000Y-117985034D01*
X56425000Y-119258343D01*
X56344898Y-119225082D01*
X56234606Y-119224986D01*
X56125030Y-119115410D01*
X56125030Y-118985114D01*
X56100291Y-118860742D01*
X56029840Y-118755304D01*
X55375030Y-118100494D01*
X55375030Y-114841657D01*
X55455132Y-114874918D01*
X55644099Y-114875082D01*
X55818744Y-114802920D01*
X55952481Y-114669417D01*
X56024948Y-114494898D01*
X56025112Y-114305931D01*
X55952950Y-114131286D01*
X55875030Y-114053229D01*
X55875030Y-113900030D01*
X55875000Y-113899879D01*
X55875000Y-113169610D01*
X56229818Y-112814791D01*
X56229821Y-112814789D01*
X56300272Y-112709351D01*
X56306150Y-112679799D01*
X56314597Y-112637337D01*
X56405102Y-112674918D01*
G36*
X69175000Y-80003960D02*
X68720819Y-80458141D01*
X68343060Y-80383000D01*
X68300940Y-80383000D01*
X67889555Y-80464830D01*
X67540800Y-80697860D01*
X67307770Y-81046615D01*
X67225940Y-81458000D01*
X67307770Y-81869385D01*
X67540800Y-82218140D01*
X67889555Y-82451170D01*
X68300940Y-82533000D01*
X68343060Y-82533000D01*
X68637846Y-82474363D01*
X68625082Y-82505102D01*
X68624918Y-82694069D01*
X68697080Y-82868714D01*
X68830583Y-83002451D01*
X69005102Y-83074918D01*
X69194069Y-83075082D01*
X69368714Y-83002920D01*
X69502451Y-82869417D01*
X69574918Y-82694898D01*
X69575082Y-82505931D01*
X69525000Y-82384724D01*
X69525000Y-82180000D01*
X69492649Y-82017360D01*
X69436651Y-81933553D01*
X69400520Y-81879479D01*
X69345222Y-81824181D01*
X69418060Y-81458000D01*
X69336230Y-81046615D01*
X69335507Y-81045533D01*
X69825000Y-80556040D01*
X69825000Y-102103229D01*
X69769417Y-102047549D01*
X69594898Y-101975082D01*
X69405931Y-101974918D01*
X69376469Y-101987092D01*
X69418060Y-101778000D01*
X69336230Y-101366615D01*
X69103200Y-101017860D01*
X68754445Y-100784830D01*
X68343060Y-100703000D01*
X68300940Y-100703000D01*
X67889555Y-100784830D01*
X67828947Y-100825327D01*
X67125000Y-100121380D01*
X67125000Y-99455370D01*
X67269205Y-99455370D01*
X67423855Y-99828738D01*
X67718288Y-100127476D01*
X68104630Y-100290799D01*
X68272000Y-100255592D01*
X68272000Y-99288000D01*
X68372000Y-99288000D01*
X68372000Y-100255592D01*
X68539370Y-100290799D01*
X68925712Y-100127476D01*
X69220145Y-99828738D01*
X69374795Y-99455370D01*
X69339522Y-99288000D01*
X68372000Y-99288000D01*
X68272000Y-99288000D01*
X67304478Y-99288000D01*
X67269205Y-99455370D01*
X67125000Y-99455370D01*
X67125000Y-99020630D01*
X67269205Y-99020630D01*
X67304478Y-99188000D01*
X68272000Y-99188000D01*
X68272000Y-98220408D01*
X68372000Y-98220408D01*
X68372000Y-99188000D01*
X69339522Y-99188000D01*
X69374795Y-99020630D01*
X69220145Y-98647262D01*
X68925712Y-98348524D01*
X68539370Y-98185201D01*
X68372000Y-98220408D01*
X68272000Y-98220408D01*
X68104630Y-98185201D01*
X67718288Y-98348524D01*
X67423855Y-98647262D01*
X67269205Y-99020630D01*
X67125000Y-99020630D01*
X67125000Y-97546732D01*
X67202451Y-97469417D01*
X67274918Y-97294898D01*
X67275082Y-97105931D01*
X67240816Y-97023000D01*
X67290587Y-97023000D01*
X67307770Y-97109385D01*
X67540800Y-97458140D01*
X67889555Y-97691170D01*
X68300940Y-97773000D01*
X68343060Y-97773000D01*
X68754445Y-97691170D01*
X69103200Y-97458140D01*
X69336230Y-97109385D01*
X69418060Y-96698000D01*
X69336230Y-96286615D01*
X69103200Y-95937860D01*
X68754445Y-95704830D01*
X68343060Y-95623000D01*
X68300940Y-95623000D01*
X67889555Y-95704830D01*
X67540800Y-95937860D01*
X67307770Y-96286615D01*
X67290587Y-96373000D01*
X67242487Y-96373000D01*
X67274918Y-96294898D01*
X67275082Y-96105931D01*
X67202920Y-95931286D01*
X67069417Y-95797549D01*
X66951155Y-95748442D01*
X67685063Y-95014533D01*
X67889555Y-95151170D01*
X68300940Y-95233000D01*
X68343060Y-95233000D01*
X68754445Y-95151170D01*
X69103200Y-94918140D01*
X69336230Y-94569385D01*
X69418060Y-94158000D01*
X69336230Y-93746615D01*
X69103200Y-93397860D01*
X68754445Y-93164830D01*
X68343060Y-93083000D01*
X68300940Y-93083000D01*
X67889555Y-93164830D01*
X67691672Y-93297051D01*
X67750269Y-93209354D01*
X67775008Y-93084982D01*
X67775008Y-92624612D01*
X67828947Y-92570673D01*
X67889555Y-92611170D01*
X68300940Y-92693000D01*
X68343060Y-92693000D01*
X68754445Y-92611170D01*
X69103200Y-92378140D01*
X69336230Y-92029385D01*
X69418060Y-91618000D01*
X69336230Y-91206615D01*
X69103200Y-90857860D01*
X68754445Y-90624830D01*
X68343060Y-90543000D01*
X68300940Y-90543000D01*
X67889555Y-90624830D01*
X67540800Y-90857860D01*
X67425000Y-91031167D01*
X67425000Y-90834620D01*
X68138860Y-90120760D01*
X68300940Y-90153000D01*
X68343060Y-90153000D01*
X68754445Y-90071170D01*
X69103200Y-89838140D01*
X69336230Y-89489385D01*
X69418060Y-89078000D01*
X69336230Y-88666615D01*
X69103200Y-88317860D01*
X68754445Y-88084830D01*
X68343060Y-88003000D01*
X68300940Y-88003000D01*
X67889555Y-88084830D01*
X67540800Y-88317860D01*
X67325000Y-88640828D01*
X67325000Y-86975172D01*
X67540800Y-87298140D01*
X67889555Y-87531170D01*
X68300940Y-87613000D01*
X68343060Y-87613000D01*
X68754445Y-87531170D01*
X69103200Y-87298140D01*
X69336230Y-86949385D01*
X69418060Y-86538000D01*
X69336230Y-86126615D01*
X69103200Y-85777860D01*
X68754445Y-85544830D01*
X68343060Y-85463000D01*
X68300940Y-85463000D01*
X67889555Y-85544830D01*
X67820290Y-85591111D01*
X67758371Y-85549738D01*
X67633999Y-85524999D01*
X66759999Y-85524999D01*
X66754972Y-85525999D01*
X64649001Y-85525999D01*
X64524629Y-85550738D01*
X64419191Y-85621189D01*
X64025001Y-86015379D01*
X64025001Y-85359999D01*
X64000262Y-85235627D01*
X64000262Y-85235626D01*
X63959334Y-85174374D01*
X63929811Y-85130189D01*
X63929808Y-85130187D01*
X63619813Y-84820191D01*
X63605970Y-84810942D01*
X63652746Y-84698294D01*
X63956040Y-84395000D01*
X67304909Y-84395000D01*
X67307770Y-84409385D01*
X67540800Y-84758140D01*
X67889555Y-84991170D01*
X68300940Y-85073000D01*
X68343060Y-85073000D01*
X68754445Y-84991170D01*
X69103200Y-84758140D01*
X69336230Y-84409385D01*
X69418060Y-83998000D01*
X69336230Y-83586615D01*
X69103200Y-83237860D01*
X68754445Y-83004830D01*
X68343060Y-82923000D01*
X68300940Y-82923000D01*
X67889555Y-83004830D01*
X67540800Y-83237860D01*
X67335576Y-83545000D01*
X66314620Y-83545000D01*
X66334633Y-83524987D01*
X66444069Y-83525082D01*
X66618714Y-83452920D01*
X66752451Y-83319417D01*
X66824918Y-83144898D01*
X66825082Y-82955931D01*
X66775000Y-82834724D01*
X66775000Y-81066040D01*
X67923181Y-79917859D01*
X68300940Y-79993000D01*
X68343060Y-79993000D01*
X68754445Y-79911170D01*
X69103200Y-79678140D01*
X69175000Y-79570683D01*
X69175000Y-80003960D01*
X69175000Y-80003960D01*
G37*
X69175000Y-80003960D02*
X68720819Y-80458141D01*
X68343060Y-80383000D01*
X68300940Y-80383000D01*
X67889555Y-80464830D01*
X67540800Y-80697860D01*
X67307770Y-81046615D01*
X67225940Y-81458000D01*
X67307770Y-81869385D01*
X67540800Y-82218140D01*
X67889555Y-82451170D01*
X68300940Y-82533000D01*
X68343060Y-82533000D01*
X68637846Y-82474363D01*
X68625082Y-82505102D01*
X68624918Y-82694069D01*
X68697080Y-82868714D01*
X68830583Y-83002451D01*
X69005102Y-83074918D01*
X69194069Y-83075082D01*
X69368714Y-83002920D01*
X69502451Y-82869417D01*
X69574918Y-82694898D01*
X69575082Y-82505931D01*
X69525000Y-82384724D01*
X69525000Y-82180000D01*
X69492649Y-82017360D01*
X69436651Y-81933553D01*
X69400520Y-81879479D01*
X69345222Y-81824181D01*
X69418060Y-81458000D01*
X69336230Y-81046615D01*
X69335507Y-81045533D01*
X69825000Y-80556040D01*
X69825000Y-102103229D01*
X69769417Y-102047549D01*
X69594898Y-101975082D01*
X69405931Y-101974918D01*
X69376469Y-101987092D01*
X69418060Y-101778000D01*
X69336230Y-101366615D01*
X69103200Y-101017860D01*
X68754445Y-100784830D01*
X68343060Y-100703000D01*
X68300940Y-100703000D01*
X67889555Y-100784830D01*
X67828947Y-100825327D01*
X67125000Y-100121380D01*
X67125000Y-99455370D01*
X67269205Y-99455370D01*
X67423855Y-99828738D01*
X67718288Y-100127476D01*
X68104630Y-100290799D01*
X68272000Y-100255592D01*
X68272000Y-99288000D01*
X68372000Y-99288000D01*
X68372000Y-100255592D01*
X68539370Y-100290799D01*
X68925712Y-100127476D01*
X69220145Y-99828738D01*
X69374795Y-99455370D01*
X69339522Y-99288000D01*
X68372000Y-99288000D01*
X68272000Y-99288000D01*
X67304478Y-99288000D01*
X67269205Y-99455370D01*
X67125000Y-99455370D01*
X67125000Y-99020630D01*
X67269205Y-99020630D01*
X67304478Y-99188000D01*
X68272000Y-99188000D01*
X68272000Y-98220408D01*
X68372000Y-98220408D01*
X68372000Y-99188000D01*
X69339522Y-99188000D01*
X69374795Y-99020630D01*
X69220145Y-98647262D01*
X68925712Y-98348524D01*
X68539370Y-98185201D01*
X68372000Y-98220408D01*
X68272000Y-98220408D01*
X68104630Y-98185201D01*
X67718288Y-98348524D01*
X67423855Y-98647262D01*
X67269205Y-99020630D01*
X67125000Y-99020630D01*
X67125000Y-97546732D01*
X67202451Y-97469417D01*
X67274918Y-97294898D01*
X67275082Y-97105931D01*
X67240816Y-97023000D01*
X67290587Y-97023000D01*
X67307770Y-97109385D01*
X67540800Y-97458140D01*
X67889555Y-97691170D01*
X68300940Y-97773000D01*
X68343060Y-97773000D01*
X68754445Y-97691170D01*
X69103200Y-97458140D01*
X69336230Y-97109385D01*
X69418060Y-96698000D01*
X69336230Y-96286615D01*
X69103200Y-95937860D01*
X68754445Y-95704830D01*
X68343060Y-95623000D01*
X68300940Y-95623000D01*
X67889555Y-95704830D01*
X67540800Y-95937860D01*
X67307770Y-96286615D01*
X67290587Y-96373000D01*
X67242487Y-96373000D01*
X67274918Y-96294898D01*
X67275082Y-96105931D01*
X67202920Y-95931286D01*
X67069417Y-95797549D01*
X66951155Y-95748442D01*
X67685063Y-95014533D01*
X67889555Y-95151170D01*
X68300940Y-95233000D01*
X68343060Y-95233000D01*
X68754445Y-95151170D01*
X69103200Y-94918140D01*
X69336230Y-94569385D01*
X69418060Y-94158000D01*
X69336230Y-93746615D01*
X69103200Y-93397860D01*
X68754445Y-93164830D01*
X68343060Y-93083000D01*
X68300940Y-93083000D01*
X67889555Y-93164830D01*
X67691672Y-93297051D01*
X67750269Y-93209354D01*
X67775008Y-93084982D01*
X67775008Y-92624612D01*
X67828947Y-92570673D01*
X67889555Y-92611170D01*
X68300940Y-92693000D01*
X68343060Y-92693000D01*
X68754445Y-92611170D01*
X69103200Y-92378140D01*
X69336230Y-92029385D01*
X69418060Y-91618000D01*
X69336230Y-91206615D01*
X69103200Y-90857860D01*
X68754445Y-90624830D01*
X68343060Y-90543000D01*
X68300940Y-90543000D01*
X67889555Y-90624830D01*
X67540800Y-90857860D01*
X67425000Y-91031167D01*
X67425000Y-90834620D01*
X68138860Y-90120760D01*
X68300940Y-90153000D01*
X68343060Y-90153000D01*
X68754445Y-90071170D01*
X69103200Y-89838140D01*
X69336230Y-89489385D01*
X69418060Y-89078000D01*
X69336230Y-88666615D01*
X69103200Y-88317860D01*
X68754445Y-88084830D01*
X68343060Y-88003000D01*
X68300940Y-88003000D01*
X67889555Y-88084830D01*
X67540800Y-88317860D01*
X67325000Y-88640828D01*
X67325000Y-86975172D01*
X67540800Y-87298140D01*
X67889555Y-87531170D01*
X68300940Y-87613000D01*
X68343060Y-87613000D01*
X68754445Y-87531170D01*
X69103200Y-87298140D01*
X69336230Y-86949385D01*
X69418060Y-86538000D01*
X69336230Y-86126615D01*
X69103200Y-85777860D01*
X68754445Y-85544830D01*
X68343060Y-85463000D01*
X68300940Y-85463000D01*
X67889555Y-85544830D01*
X67820290Y-85591111D01*
X67758371Y-85549738D01*
X67633999Y-85524999D01*
X66759999Y-85524999D01*
X66754972Y-85525999D01*
X64649001Y-85525999D01*
X64524629Y-85550738D01*
X64419191Y-85621189D01*
X64025001Y-86015379D01*
X64025001Y-85359999D01*
X64000262Y-85235627D01*
X64000262Y-85235626D01*
X63959334Y-85174374D01*
X63929811Y-85130189D01*
X63929808Y-85130187D01*
X63619813Y-84820191D01*
X63605970Y-84810942D01*
X63652746Y-84698294D01*
X63956040Y-84395000D01*
X67304909Y-84395000D01*
X67307770Y-84409385D01*
X67540800Y-84758140D01*
X67889555Y-84991170D01*
X68300940Y-85073000D01*
X68343060Y-85073000D01*
X68754445Y-84991170D01*
X69103200Y-84758140D01*
X69336230Y-84409385D01*
X69418060Y-83998000D01*
X69336230Y-83586615D01*
X69103200Y-83237860D01*
X68754445Y-83004830D01*
X68343060Y-82923000D01*
X68300940Y-82923000D01*
X67889555Y-83004830D01*
X67540800Y-83237860D01*
X67335576Y-83545000D01*
X66314620Y-83545000D01*
X66334633Y-83524987D01*
X66444069Y-83525082D01*
X66618714Y-83452920D01*
X66752451Y-83319417D01*
X66824918Y-83144898D01*
X66825082Y-82955931D01*
X66775000Y-82834724D01*
X66775000Y-81066040D01*
X67923181Y-79917859D01*
X68300940Y-79993000D01*
X68343060Y-79993000D01*
X68754445Y-79911170D01*
X69103200Y-79678140D01*
X69175000Y-79570683D01*
X69175000Y-80003960D01*
G36*
X50547080Y-97568714D02*
X50680583Y-97702451D01*
X50855102Y-97774918D01*
X50875314Y-97774936D01*
X51130188Y-98029810D01*
X51235626Y-98100261D01*
X51359998Y-98125001D01*
X51360003Y-98125000D01*
X53065369Y-98125000D01*
X53570139Y-98629833D01*
X53570146Y-98629838D01*
X53570153Y-98629848D01*
X53726551Y-98786246D01*
X53831989Y-98856697D01*
X53956361Y-98881436D01*
X54241838Y-98881436D01*
X55075000Y-99714598D01*
X55075000Y-100403142D01*
X55069417Y-100397549D01*
X54894898Y-100325082D01*
X54705931Y-100324918D01*
X54531286Y-100397080D01*
X54397549Y-100530583D01*
X54331275Y-100690187D01*
X54294898Y-100675082D01*
X54112270Y-100674924D01*
X54052920Y-100531286D01*
X53919417Y-100397549D01*
X53744898Y-100325082D01*
X53555931Y-100324918D01*
X53381286Y-100397080D01*
X53303229Y-100475000D01*
X52996732Y-100475000D01*
X52919417Y-100397549D01*
X52744898Y-100325082D01*
X52555931Y-100324918D01*
X52381286Y-100397080D01*
X52247549Y-100530583D01*
X52175082Y-100705102D01*
X52174978Y-100825021D01*
X52055931Y-100824918D01*
X51925000Y-100879018D01*
X51925000Y-100115113D01*
X51974918Y-99994898D01*
X51975082Y-99805931D01*
X51902920Y-99631286D01*
X51769417Y-99497549D01*
X51594898Y-99425082D01*
X51405931Y-99424918D01*
X51231286Y-99497080D01*
X51097549Y-99630583D01*
X51054316Y-99734698D01*
X50124999Y-98805381D01*
X50124999Y-97844619D01*
X50504341Y-97465277D01*
X50547080Y-97568714D01*
X50547080Y-97568714D01*
G37*
X50547080Y-97568714D02*
X50680583Y-97702451D01*
X50855102Y-97774918D01*
X50875314Y-97774936D01*
X51130188Y-98029810D01*
X51235626Y-98100261D01*
X51359998Y-98125001D01*
X51360003Y-98125000D01*
X53065369Y-98125000D01*
X53570139Y-98629833D01*
X53570146Y-98629838D01*
X53570153Y-98629848D01*
X53726551Y-98786246D01*
X53831989Y-98856697D01*
X53956361Y-98881436D01*
X54241838Y-98881436D01*
X55075000Y-99714598D01*
X55075000Y-100403142D01*
X55069417Y-100397549D01*
X54894898Y-100325082D01*
X54705931Y-100324918D01*
X54531286Y-100397080D01*
X54397549Y-100530583D01*
X54331275Y-100690187D01*
X54294898Y-100675082D01*
X54112270Y-100674924D01*
X54052920Y-100531286D01*
X53919417Y-100397549D01*
X53744898Y-100325082D01*
X53555931Y-100324918D01*
X53381286Y-100397080D01*
X53303229Y-100475000D01*
X52996732Y-100475000D01*
X52919417Y-100397549D01*
X52744898Y-100325082D01*
X52555931Y-100324918D01*
X52381286Y-100397080D01*
X52247549Y-100530583D01*
X52175082Y-100705102D01*
X52174978Y-100825021D01*
X52055931Y-100824918D01*
X51925000Y-100879018D01*
X51925000Y-100115113D01*
X51974918Y-99994898D01*
X51975082Y-99805931D01*
X51902920Y-99631286D01*
X51769417Y-99497549D01*
X51594898Y-99425082D01*
X51405931Y-99424918D01*
X51231286Y-99497080D01*
X51097549Y-99630583D01*
X51054316Y-99734698D01*
X50124999Y-98805381D01*
X50124999Y-97844619D01*
X50504341Y-97465277D01*
X50547080Y-97568714D01*
G36*
X66525082Y-86255102D02*
X66524918Y-86444069D01*
X66597080Y-86618714D01*
X66675000Y-86696771D01*
X66675000Y-89353268D01*
X66597549Y-89430583D01*
X66525082Y-89605102D01*
X66524918Y-89794069D01*
X66597080Y-89968714D01*
X66730583Y-90102451D01*
X66905102Y-90174918D01*
X67094069Y-90175082D01*
X67215453Y-90124927D01*
X66870190Y-90470190D01*
X66799739Y-90575628D01*
X66775000Y-90700000D01*
X66775000Y-92805382D01*
X66520180Y-93060202D01*
X66449729Y-93165640D01*
X66424990Y-93290012D01*
X66424990Y-94365392D01*
X65865401Y-94924980D01*
X63665061Y-94924980D01*
X63665056Y-94924979D01*
X63540684Y-94949719D01*
X63435246Y-95020170D01*
X61530427Y-96924989D01*
X59955027Y-96924989D01*
X59955022Y-96924988D01*
X59830650Y-96949728D01*
X59725212Y-97020179D01*
X59725210Y-97020182D01*
X59475040Y-97270351D01*
X59475040Y-94484580D01*
X59734619Y-94225000D01*
X61753268Y-94225000D01*
X61828248Y-94300112D01*
X61697549Y-94430583D01*
X61625082Y-94605102D01*
X61624918Y-94794069D01*
X61697080Y-94968714D01*
X61830583Y-95102451D01*
X62005102Y-95174918D01*
X62194069Y-95175082D01*
X62368714Y-95102920D01*
X62502451Y-94969417D01*
X62574918Y-94794898D01*
X62575014Y-94684606D01*
X62979838Y-94279781D01*
X62979841Y-94279779D01*
X63050292Y-94174341D01*
X63051411Y-94168714D01*
X63075032Y-94049969D01*
X63075031Y-94049964D01*
X63075031Y-92169527D01*
X63929847Y-91314710D01*
X63929850Y-91314708D01*
X64000301Y-91209270D01*
X64000829Y-91206615D01*
X64025041Y-91084898D01*
X64025040Y-91084893D01*
X64025040Y-90264558D01*
X64629828Y-89659769D01*
X64629831Y-89659767D01*
X64700282Y-89554329D01*
X64708147Y-89514788D01*
X64725022Y-89429957D01*
X64725021Y-89429952D01*
X64725021Y-88500005D01*
X64725022Y-88500000D01*
X64724020Y-88494963D01*
X64724020Y-88370456D01*
X64699281Y-88246084D01*
X64699281Y-88246083D01*
X64651784Y-88175000D01*
X64628830Y-88140646D01*
X64628827Y-88140644D01*
X64374011Y-87885827D01*
X64374011Y-86585609D01*
X64783621Y-86175999D01*
X66557929Y-86175999D01*
X66525082Y-86255102D01*
X66525082Y-86255102D01*
G37*
X66525082Y-86255102D02*
X66524918Y-86444069D01*
X66597080Y-86618714D01*
X66675000Y-86696771D01*
X66675000Y-89353268D01*
X66597549Y-89430583D01*
X66525082Y-89605102D01*
X66524918Y-89794069D01*
X66597080Y-89968714D01*
X66730583Y-90102451D01*
X66905102Y-90174918D01*
X67094069Y-90175082D01*
X67215453Y-90124927D01*
X66870190Y-90470190D01*
X66799739Y-90575628D01*
X66775000Y-90700000D01*
X66775000Y-92805382D01*
X66520180Y-93060202D01*
X66449729Y-93165640D01*
X66424990Y-93290012D01*
X66424990Y-94365392D01*
X65865401Y-94924980D01*
X63665061Y-94924980D01*
X63665056Y-94924979D01*
X63540684Y-94949719D01*
X63435246Y-95020170D01*
X61530427Y-96924989D01*
X59955027Y-96924989D01*
X59955022Y-96924988D01*
X59830650Y-96949728D01*
X59725212Y-97020179D01*
X59725210Y-97020182D01*
X59475040Y-97270351D01*
X59475040Y-94484580D01*
X59734619Y-94225000D01*
X61753268Y-94225000D01*
X61828248Y-94300112D01*
X61697549Y-94430583D01*
X61625082Y-94605102D01*
X61624918Y-94794069D01*
X61697080Y-94968714D01*
X61830583Y-95102451D01*
X62005102Y-95174918D01*
X62194069Y-95175082D01*
X62368714Y-95102920D01*
X62502451Y-94969417D01*
X62574918Y-94794898D01*
X62575014Y-94684606D01*
X62979838Y-94279781D01*
X62979841Y-94279779D01*
X63050292Y-94174341D01*
X63051411Y-94168714D01*
X63075032Y-94049969D01*
X63075031Y-94049964D01*
X63075031Y-92169527D01*
X63929847Y-91314710D01*
X63929850Y-91314708D01*
X64000301Y-91209270D01*
X64000829Y-91206615D01*
X64025041Y-91084898D01*
X64025040Y-91084893D01*
X64025040Y-90264558D01*
X64629828Y-89659769D01*
X64629831Y-89659767D01*
X64700282Y-89554329D01*
X64708147Y-89514788D01*
X64725022Y-89429957D01*
X64725021Y-89429952D01*
X64725021Y-88500005D01*
X64725022Y-88500000D01*
X64724020Y-88494963D01*
X64724020Y-88370456D01*
X64699281Y-88246084D01*
X64699281Y-88246083D01*
X64651784Y-88175000D01*
X64628830Y-88140646D01*
X64628827Y-88140644D01*
X64374011Y-87885827D01*
X64374011Y-86585609D01*
X64783621Y-86175999D01*
X66557929Y-86175999D01*
X66525082Y-86255102D01*
G36*
X66899479Y-77900520D02*
X66935862Y-77924830D01*
X67037360Y-77992649D01*
X67200000Y-78025000D01*
X67739640Y-78025000D01*
X67540800Y-78157860D01*
X67307770Y-78506615D01*
X67225940Y-78918000D01*
X67307770Y-79329385D01*
X67308493Y-79330467D01*
X66049480Y-80589480D01*
X65957351Y-80727359D01*
X65957351Y-80727360D01*
X65925000Y-80890000D01*
X65925000Y-82834887D01*
X65875082Y-82955102D01*
X65874986Y-83065394D01*
X65765380Y-83175000D01*
X63712418Y-83175000D01*
X63724918Y-83144898D01*
X63725082Y-82955931D01*
X63652920Y-82781286D01*
X63519417Y-82647549D01*
X63415301Y-82604316D01*
X63958888Y-82060730D01*
X64013655Y-82083471D01*
X64202622Y-82083635D01*
X64377267Y-82011473D01*
X64511004Y-81877970D01*
X64561299Y-81756847D01*
X65700520Y-80617626D01*
X65792649Y-80479747D01*
X65825000Y-80317106D01*
X65825000Y-80215113D01*
X65874918Y-80094898D01*
X65875082Y-79905931D01*
X65825000Y-79784724D01*
X65825000Y-79029408D01*
X66000000Y-79029408D01*
X66083380Y-79013719D01*
X66159960Y-78964441D01*
X66211334Y-78889253D01*
X66229408Y-78800000D01*
X66229408Y-77230448D01*
X66899479Y-77900520D01*
X66899479Y-77900520D01*
G37*
X66899479Y-77900520D02*
X66935862Y-77924830D01*
X67037360Y-77992649D01*
X67200000Y-78025000D01*
X67739640Y-78025000D01*
X67540800Y-78157860D01*
X67307770Y-78506615D01*
X67225940Y-78918000D01*
X67307770Y-79329385D01*
X67308493Y-79330467D01*
X66049480Y-80589480D01*
X65957351Y-80727359D01*
X65957351Y-80727360D01*
X65925000Y-80890000D01*
X65925000Y-82834887D01*
X65875082Y-82955102D01*
X65874986Y-83065394D01*
X65765380Y-83175000D01*
X63712418Y-83175000D01*
X63724918Y-83144898D01*
X63725082Y-82955931D01*
X63652920Y-82781286D01*
X63519417Y-82647549D01*
X63415301Y-82604316D01*
X63958888Y-82060730D01*
X64013655Y-82083471D01*
X64202622Y-82083635D01*
X64377267Y-82011473D01*
X64511004Y-81877970D01*
X64561299Y-81756847D01*
X65700520Y-80617626D01*
X65792649Y-80479747D01*
X65825000Y-80317106D01*
X65825000Y-80215113D01*
X65874918Y-80094898D01*
X65875082Y-79905931D01*
X65825000Y-79784724D01*
X65825000Y-79029408D01*
X66000000Y-79029408D01*
X66083380Y-79013719D01*
X66159960Y-78964441D01*
X66211334Y-78889253D01*
X66229408Y-78800000D01*
X66229408Y-77230448D01*
X66899479Y-77900520D01*
M02*
