M48
;DRILL file {KiCad 4.0.6+dfsg1-1} date Sun Apr 29 05:14:30 2018
;FORMAT={-:-/ absolute / inch / decimal}
FMAT,2
INCH,TZ
T1C0.012
%
G90
G05
M72
T1
X1.8819Y-3.4094
X1.8819Y-3.5197
X1.8839Y-3.128
X1.8839Y-3.7441
X1.8839Y-4.0807
X1.8839Y-4.128
X1.8839Y-4.2185
X1.8839Y-4.313
X1.8858Y-4.5906
X1.8858Y-4.5059
X1.9114Y-4.5906
X1.9124Y-4.6752
X1.9173Y-4.0807
X1.9252Y-3.8346
X1.9252Y-3.8858
X1.9311Y-3.1831
X1.937Y-4.1024
X1.937Y-4.128
X1.937Y-4.2146
X1.937Y-4.313
X1.937Y-4.5906
X1.9567Y-3.6378
X1.9567Y-4.3307
X1.9646Y-4.5906
X1.9684Y-4.7954
X1.9685Y-4.7677
X1.9803Y-3.2323
X1.9803Y-3.2835
X1.9803Y-3.8858
X1.9844Y-4.3308
X2.0059Y-3.8307
X2.0079Y-4.3957
X2.0118Y-4.063
X2.0138Y-4.128
X2.0138Y-4.2323
X2.0177Y-4.6299
X2.0197Y-4.4291
X2.0197Y-4.5059
X2.0266Y-3.6919
X2.0266Y-3.7411
X2.0276Y-3.9331
X2.0276Y-4.376
X2.0315Y-3.8307
X2.0354Y-4.0276
X2.0374Y-4.1378
X2.0374Y-4.2441
X2.0374Y-4.7835
X2.0472Y-3.3465
X2.0472Y-4.3465
X2.0531Y-3.9882
X2.0571Y-3.8307
X2.0571Y-4.7126
X2.0591Y-4.0689
X2.0728Y-3.9685
X2.0728Y-4.3465
X2.0758Y-3.6919
X2.0758Y-3.7411
X2.0768Y-4.7835
X2.0827Y-3.8957
X2.0846Y-4.2795
X2.0965Y-3.9902
X2.0965Y-4.7126
X2.1043Y-3.6063
X2.1043Y-4.0354
X2.1063Y-3.2402
X2.1063Y-4.2992
X2.1122Y-3.9685
X2.1122Y-4.061
X2.1122Y-4.3465
X2.1161Y-4.7835
X2.1181Y-3.3248
X2.1299Y-3.6063
X2.1319Y-4.4173
X2.1339Y-3.9823
X2.1358Y-4.7126
X2.1378Y-4.2323
X2.1437Y-3.1319
X2.1437Y-3.2264
X2.1476Y-4.2854
X2.1496Y-3.628
X2.1516Y-4.3465
X2.1555Y-4.7835
X2.1575Y-3.9685
X2.1575Y-4.0768
X2.1575Y-4.1024
X2.1575Y-4.128
X2.1594Y-3.7165
X2.1673Y-3.8386
X2.1713Y-4.2717
X2.1713Y-4.4173
X2.1811Y-3.9823
X2.187Y-4.5039
X2.1929Y-3.8425
X2.1929Y-4.2579
X2.1929Y-4.5669
X2.1949Y-4.7835
X2.1969Y-3.1732
X2.1969Y-4.0768
X2.2047Y-3.874
X2.2047Y-3.9685
X2.2106Y-4.3465
X2.2146Y-4.7126
X2.2205Y-4.0945
X2.2205Y-4.7835
X2.2244Y-4.4173
X2.2303Y-3.8819
X2.2303Y-3.9685
X2.2402Y-4.8031
X2.2461Y-3.1319
X2.2539Y-3.6476
X2.2539Y-3.6732
X2.2539Y-4.0354
X2.2598Y-4.0709
X2.2598Y-4.7835
X2.2677Y-3.5098
X2.2677Y-4.6299
X2.2795Y-4.0945
X2.2835Y-4.2165
X2.2894Y-4.2579
X2.2894Y-4.3465
X2.2933Y-4.0295
X2.3012Y-4.1083
X2.3071Y-3.252
X2.3071Y-3.5827
X2.3091Y-4.0748
X2.3091Y-4.5039
X2.313Y-4.0492
X2.313Y-4.7835
X2.315Y-4.3465
X2.3209Y-4.128
X2.3327Y-4.0886
X2.3366Y-4.5551
X2.3386Y-4.7126
X2.3406Y-4.5039
X2.3465Y-3.1732
X2.3484Y-3.6772
X2.3496Y-3.7564
X2.3496Y-3.7869
X2.3602Y-4.1181
X2.3642Y-4.7126
X2.3701Y-4.3051
X2.372Y-3.9449
X2.372Y-4.2185
X2.372Y-4.7835
X2.372Y-4.8228
X2.374Y-3.6772
X2.376Y-3.8622
X2.378Y-3.5098
X2.3799Y-3.9724
X2.3878Y-4.3484
X2.3937Y-4.0295
X2.3937Y-4.5295
X2.3984Y-3.7564
X2.3984Y-3.7869
X2.4016Y-3.1496
X2.4016Y-3.8622
X2.4035Y-4.811
X2.4055Y-3.9724
X2.4075Y-4.3701
X2.4094Y-3.6476
X2.4331Y-4.5039
X2.437Y-4.5591
X2.4449Y-3.6969
X2.4449Y-3.7283
X2.4449Y-3.939
X2.4449Y-3.9665
X2.4606Y-3.2776
X2.4685Y-4.6654
X2.4724Y-3.1496
X2.4744Y-4.0394
X2.4764Y-4.1969
X2.4882Y-3.2776
X2.4882Y-3.3287
X2.4882Y-3.4134
X2.4882Y-3.5
X2.4921Y-4.1063
X2.4961Y-3.6673
X2.498Y-3.1496
X2.5079Y-4.3209
X2.5236Y-3.1496
X2.5276Y-4.5217
X2.5354Y-4.0591
X2.5354Y-4.2264
X2.5433Y-3.2126
X2.5492Y-3.1496
X2.5531Y-3.9528
X2.5551Y-4.4213
X2.5551Y-4.4724
X2.5571Y-4.5217
X2.5591Y-4.0748
X2.5748Y-3.1496
X2.5866Y-4.1476
X2.5945Y-3.7205
X2.5945Y-3.8307
X2.5945Y-3.878
X2.5945Y-4.0276
X2.6122Y-3.2697
X2.6142Y-3.4567
X2.6142Y-4.2598
X2.6181Y-3.6535
X2.6299Y-3.1024
X2.6299Y-3.7874
X2.6299Y-3.8268
X2.6378Y-3.3996
X2.6378Y-3.5315
X2.6398Y-4.189
X2.6398Y-4.2146
X2.6575Y-3.4567
X2.6673Y-3.9547
X2.6811Y-3.003
X2.7047Y-4.3583
X2.7047Y-4.498
X2.7146Y-4.2559
X2.7205Y-3.252
X2.7362Y-3.4567
X2.7362Y-4.0335
T0
M30
