G04 #@! TF.FileFunction,Legend,Top*
%FSLAX46Y46*%
G04 Gerber Fmt 4.6, Leading zero omitted, Abs format (unit mm)*
G04 Created by KiCad (PCBNEW 4.0.6+dfsg1-1) date Sun Apr 29 05:14:28 2018*
%MOMM*%
%LPD*%
G01*
G04 APERTURE LIST*
%ADD10C,0.100000*%
%ADD11C,0.150000*%
%ADD12C,0.200000*%
%ADD13C,0.120000*%
G04 APERTURE END LIST*
D10*
X66700000Y-106800000D02*
X64700000Y-106800000D01*
X64700000Y-106800000D02*
X64700000Y-106000000D01*
X64700000Y-106000000D02*
X66700000Y-106000000D01*
X66700000Y-106000000D02*
X66700000Y-106800000D01*
X50600000Y-98300000D02*
X52600000Y-98300000D01*
X52600000Y-98300000D02*
X52600000Y-99100000D01*
X52600000Y-99100000D02*
X50600000Y-99100000D01*
X50600000Y-99100000D02*
X50600000Y-98300000D01*
D11*
X58250000Y-96300000D02*
X58250000Y-96900000D01*
X57950000Y-96300000D02*
X58250000Y-96300000D01*
X56150000Y-96300000D02*
X56150000Y-95300000D01*
X57950000Y-96300000D02*
X57950000Y-95300000D01*
X56950000Y-94700000D02*
X57150000Y-94700000D01*
X57150000Y-96900000D02*
X56950000Y-96900000D01*
X50725000Y-100425000D02*
X50725000Y-101425000D01*
X61075000Y-100425000D02*
X61075000Y-101500000D01*
X61075000Y-110775000D02*
X61075000Y-109700000D01*
X50725000Y-110775000D02*
X50725000Y-109700000D01*
X50725000Y-100425000D02*
X51800000Y-100425000D01*
X50725000Y-110775000D02*
X51800000Y-110775000D01*
X61075000Y-110775000D02*
X60000000Y-110775000D01*
X61075000Y-100425000D02*
X60000000Y-100425000D01*
X50725000Y-101425000D02*
X49700000Y-101425000D01*
X47995711Y-117900000D02*
G75*
G03X47995711Y-117900000I-70711J0D01*
G01*
D12*
X47700000Y-119800000D02*
X50200000Y-119800000D01*
X50200000Y-119800000D02*
X50200000Y-117000000D01*
X50200000Y-117000000D02*
X47700000Y-117000000D01*
X47700000Y-117000000D02*
X47600000Y-117000000D01*
X47600000Y-117000000D02*
X47600000Y-119800000D01*
X47600000Y-119800000D02*
X47700000Y-119800000D01*
D10*
X58550000Y-119400000D02*
X60150000Y-119400000D01*
X60150000Y-119400000D02*
X60150000Y-116000000D01*
X60150000Y-116000000D02*
X58550000Y-116000000D01*
X58550000Y-116000000D02*
X58550000Y-119400000D01*
D11*
X69175000Y-102125000D02*
X69175000Y-102625000D01*
X65925000Y-105375000D02*
X65925000Y-104875000D01*
X69175000Y-105375000D02*
X69175000Y-104875000D01*
X65925000Y-102125000D02*
X66425000Y-102125000D01*
X65925000Y-105375000D02*
X66425000Y-105375000D01*
X69175000Y-105375000D02*
X68675000Y-105375000D01*
X69175000Y-102125000D02*
X68675000Y-102125000D01*
D10*
X64100000Y-107800000D02*
X62500000Y-107800000D01*
X62500000Y-107800000D02*
X62500000Y-106900000D01*
X62500000Y-106900000D02*
X64100000Y-106900000D01*
X64100000Y-106900000D02*
X64100000Y-107800000D01*
D12*
X48100000Y-124400000D02*
X64900000Y-124400000D01*
X64900000Y-120800000D02*
X64900000Y-124400000D01*
X48100000Y-120800000D02*
X48100000Y-124400000D01*
X62500000Y-120800000D02*
X64900000Y-120800000D01*
X48100000Y-120800000D02*
X50500000Y-120800000D01*
X63150000Y-121700000D02*
X63150000Y-124400000D01*
X50450000Y-123900000D02*
X50650000Y-124400000D01*
X50450000Y-123900000D02*
X50250000Y-124400000D01*
X50450000Y-123900000D02*
X50450000Y-124400000D01*
X50450000Y-123900000D02*
X50800000Y-124400000D01*
X50100000Y-124400000D02*
X50450000Y-123900000D01*
X49850000Y-121700000D02*
X49850000Y-123100000D01*
X49850000Y-124400000D02*
X49850000Y-123100000D01*
X69800000Y-108800000D02*
X69800000Y-108700000D01*
X69800000Y-108700000D02*
X69700000Y-108700000D01*
X69700000Y-115900000D02*
X69800000Y-115900000D01*
X69800000Y-115900000D02*
X69800000Y-115800000D01*
X62700000Y-115900000D02*
X62600000Y-115900000D01*
X62600000Y-115900000D02*
X62600000Y-115800000D01*
X62700000Y-108700000D02*
X62600000Y-108700000D01*
X62600000Y-108700000D02*
X62600000Y-108800000D01*
X69800000Y-115800000D02*
X69800000Y-108800000D01*
X69700000Y-108700000D02*
X62700000Y-108700000D01*
X62600000Y-108800000D02*
X62600000Y-115800000D01*
X62700000Y-115900000D02*
X69700000Y-115900000D01*
D10*
X49400000Y-105150000D02*
X49400000Y-106750000D01*
X49400000Y-106750000D02*
X48500000Y-106750000D01*
X48500000Y-106750000D02*
X48500000Y-105150000D01*
X48500000Y-105150000D02*
X49400000Y-105150000D01*
X54750000Y-112500000D02*
X54750000Y-114100000D01*
X54750000Y-114100000D02*
X53850000Y-114100000D01*
X53850000Y-114100000D02*
X53850000Y-112500000D01*
X53850000Y-112500000D02*
X54750000Y-112500000D01*
X54950000Y-114100000D02*
X54950000Y-112500000D01*
X54950000Y-112500000D02*
X55850000Y-112500000D01*
X55850000Y-112500000D02*
X55850000Y-114100000D01*
X55850000Y-114100000D02*
X54950000Y-114100000D01*
D11*
X54250000Y-96550000D02*
X53475000Y-96550000D01*
X49950000Y-92250000D02*
X50725000Y-92250000D01*
X49950000Y-96550000D02*
X50725000Y-96550000D01*
X54250000Y-92250000D02*
X54250000Y-93025000D01*
X49950000Y-92250000D02*
X49950000Y-93025000D01*
X49950000Y-96550000D02*
X49950000Y-95775000D01*
X54250000Y-96550000D02*
X54250000Y-95775000D01*
D10*
X52350000Y-86750000D02*
X52350000Y-84750000D01*
X52350000Y-84750000D02*
X53150000Y-84750000D01*
X53150000Y-84750000D02*
X53150000Y-86750000D01*
X53150000Y-86750000D02*
X52350000Y-86750000D01*
X49400000Y-92800000D02*
X47400000Y-92800000D01*
X47400000Y-92800000D02*
X47400000Y-92000000D01*
X47400000Y-92000000D02*
X49400000Y-92000000D01*
X49400000Y-92000000D02*
X49400000Y-92800000D01*
X49400000Y-94800000D02*
X47400000Y-94800000D01*
X47400000Y-94800000D02*
X47400000Y-94000000D01*
X47400000Y-94000000D02*
X49400000Y-94000000D01*
X49400000Y-94000000D02*
X49400000Y-94800000D01*
X49400000Y-93800000D02*
X47400000Y-93800000D01*
X47400000Y-93800000D02*
X47400000Y-93000000D01*
X47400000Y-93000000D02*
X49400000Y-93000000D01*
X49400000Y-93000000D02*
X49400000Y-93800000D01*
X57300000Y-94350000D02*
X55300000Y-94350000D01*
X55300000Y-94350000D02*
X55300000Y-93550000D01*
X55300000Y-93550000D02*
X57300000Y-93550000D01*
X57300000Y-93550000D02*
X57300000Y-94350000D01*
X62700000Y-91350000D02*
X62700000Y-92950000D01*
X62700000Y-92950000D02*
X66100000Y-92950000D01*
X66100000Y-92950000D02*
X66100000Y-91350000D01*
X66100000Y-91350000D02*
X62700000Y-91350000D01*
X65300000Y-89350000D02*
X65300000Y-87350000D01*
X65300000Y-87350000D02*
X66100000Y-87350000D01*
X66100000Y-87350000D02*
X66100000Y-89350000D01*
X66100000Y-89350000D02*
X65300000Y-89350000D01*
X62700000Y-89550000D02*
X62700000Y-91150000D01*
X62700000Y-91150000D02*
X66100000Y-91150000D01*
X66100000Y-91150000D02*
X66100000Y-89550000D01*
X66100000Y-89550000D02*
X62700000Y-89550000D01*
X55100000Y-80800000D02*
X55100000Y-82400000D01*
X55100000Y-82400000D02*
X58500000Y-82400000D01*
X58500000Y-82400000D02*
X58500000Y-80800000D01*
X58500000Y-80800000D02*
X55100000Y-80800000D01*
X58900000Y-92250000D02*
X60900000Y-92250000D01*
X60900000Y-92250000D02*
X60900000Y-93050000D01*
X60900000Y-93050000D02*
X58900000Y-93050000D01*
X58900000Y-93050000D02*
X58900000Y-92250000D01*
X62300000Y-90950000D02*
X62300000Y-89350000D01*
X62300000Y-89350000D02*
X58900000Y-89350000D01*
X58900000Y-89350000D02*
X58900000Y-90950000D01*
X58900000Y-90950000D02*
X62300000Y-90950000D01*
X65400000Y-103800000D02*
X65400000Y-105800000D01*
X65400000Y-105800000D02*
X64600000Y-105800000D01*
X64600000Y-105800000D02*
X64600000Y-103800000D01*
X64600000Y-103800000D02*
X65400000Y-103800000D01*
X69300000Y-101550000D02*
X67300000Y-101550000D01*
X67300000Y-101550000D02*
X67300000Y-100750000D01*
X67300000Y-100750000D02*
X69300000Y-100750000D01*
X69300000Y-100750000D02*
X69300000Y-101550000D01*
X67400000Y-106000000D02*
X69400000Y-106000000D01*
X69400000Y-106000000D02*
X69400000Y-106800000D01*
X69400000Y-106800000D02*
X67400000Y-106800000D01*
X67400000Y-106800000D02*
X67400000Y-106000000D01*
X67400000Y-107000000D02*
X69400000Y-107000000D01*
X69400000Y-107000000D02*
X69400000Y-107800000D01*
X69400000Y-107800000D02*
X67400000Y-107800000D01*
X67400000Y-107800000D02*
X67400000Y-107000000D01*
X47400000Y-91700000D02*
X47400000Y-89700000D01*
X47400000Y-89700000D02*
X48200000Y-89700000D01*
X48200000Y-89700000D02*
X48200000Y-91700000D01*
X48200000Y-91700000D02*
X47400000Y-91700000D01*
X51700000Y-89700000D02*
X51700000Y-91700000D01*
X51700000Y-91700000D02*
X50900000Y-91700000D01*
X50900000Y-91700000D02*
X50900000Y-89700000D01*
X50900000Y-89700000D02*
X51700000Y-89700000D01*
X47400000Y-88900000D02*
X47400000Y-86900000D01*
X47400000Y-86900000D02*
X48200000Y-86900000D01*
X48200000Y-86900000D02*
X48200000Y-88900000D01*
X48200000Y-88900000D02*
X47400000Y-88900000D01*
X49800000Y-88900000D02*
X49800000Y-86900000D01*
X49800000Y-86900000D02*
X50600000Y-86900000D01*
X50600000Y-86900000D02*
X50600000Y-88900000D01*
X50600000Y-88900000D02*
X49800000Y-88900000D01*
X49400000Y-86300000D02*
X47400000Y-86300000D01*
X47400000Y-86300000D02*
X47400000Y-85500000D01*
X47400000Y-85500000D02*
X49400000Y-85500000D01*
X49400000Y-85500000D02*
X49400000Y-86300000D01*
X65300000Y-87150000D02*
X65300000Y-85150000D01*
X65300000Y-85150000D02*
X66100000Y-85150000D01*
X66100000Y-85150000D02*
X66100000Y-87150000D01*
X66100000Y-87150000D02*
X65300000Y-87150000D01*
X51650000Y-117900000D02*
X51650000Y-119900000D01*
X51650000Y-119900000D02*
X50850000Y-119900000D01*
X50850000Y-119900000D02*
X50850000Y-117900000D01*
X50850000Y-117900000D02*
X51650000Y-117900000D01*
X57900000Y-117900000D02*
X57900000Y-119900000D01*
X57900000Y-119900000D02*
X57100000Y-119900000D01*
X57100000Y-119900000D02*
X57100000Y-117900000D01*
X57100000Y-117900000D02*
X57900000Y-117900000D01*
X55600000Y-95200000D02*
X55600000Y-97200000D01*
X55600000Y-97200000D02*
X54800000Y-97200000D01*
X54800000Y-97200000D02*
X54800000Y-95200000D01*
X54800000Y-95200000D02*
X55600000Y-95200000D01*
X62400000Y-118900000D02*
X60400000Y-118900000D01*
X60400000Y-118900000D02*
X60400000Y-118100000D01*
X60400000Y-118100000D02*
X62400000Y-118100000D01*
X62400000Y-118100000D02*
X62400000Y-118900000D01*
X62400000Y-119900000D02*
X60400000Y-119900000D01*
X60400000Y-119900000D02*
X60400000Y-119100000D01*
X60400000Y-119100000D02*
X62400000Y-119100000D01*
X62400000Y-119100000D02*
X62400000Y-119900000D01*
X47400000Y-101550000D02*
X49400000Y-101550000D01*
X49400000Y-101550000D02*
X49400000Y-102350000D01*
X49400000Y-102350000D02*
X47400000Y-102350000D01*
X47400000Y-102350000D02*
X47400000Y-101550000D01*
X49400000Y-109250000D02*
X47400000Y-109250000D01*
X47400000Y-109250000D02*
X47400000Y-108450000D01*
X47400000Y-108450000D02*
X49400000Y-108450000D01*
X49400000Y-108450000D02*
X49400000Y-109250000D01*
X49400000Y-108250000D02*
X47400000Y-108250000D01*
X47400000Y-108250000D02*
X47400000Y-107450000D01*
X47400000Y-107450000D02*
X49400000Y-107450000D01*
X49400000Y-107450000D02*
X49400000Y-108250000D01*
X47400000Y-102550000D02*
X49400000Y-102550000D01*
X49400000Y-102550000D02*
X49400000Y-103350000D01*
X49400000Y-103350000D02*
X47400000Y-103350000D01*
X47400000Y-103350000D02*
X47400000Y-102550000D01*
X63200000Y-100300000D02*
X63200000Y-102300000D01*
X63200000Y-102300000D02*
X62400000Y-102300000D01*
X62400000Y-102300000D02*
X62400000Y-100300000D01*
X62400000Y-100300000D02*
X63200000Y-100300000D01*
X59250000Y-114100000D02*
X59250000Y-112100000D01*
X59250000Y-112100000D02*
X60050000Y-112100000D01*
X60050000Y-112100000D02*
X60050000Y-114100000D01*
X60050000Y-114100000D02*
X59250000Y-114100000D01*
X51600000Y-112100000D02*
X53600000Y-112100000D01*
X53600000Y-112100000D02*
X53600000Y-112900000D01*
X53600000Y-112900000D02*
X51600000Y-112900000D01*
X51600000Y-112900000D02*
X51600000Y-112100000D01*
X64200000Y-100300000D02*
X64200000Y-102300000D01*
X64200000Y-102300000D02*
X63400000Y-102300000D01*
X63400000Y-102300000D02*
X63400000Y-100300000D01*
X63400000Y-100300000D02*
X64200000Y-100300000D01*
X58250000Y-114100000D02*
X58250000Y-112100000D01*
X58250000Y-112100000D02*
X59050000Y-112100000D01*
X59050000Y-112100000D02*
X59050000Y-114100000D01*
X59050000Y-114100000D02*
X58250000Y-114100000D01*
X50000700Y-82850000D02*
X50000700Y-83950000D01*
X47400700Y-83950000D02*
X47400700Y-82850000D01*
X47400700Y-82850000D02*
X50000700Y-82850000D01*
X50000700Y-83950000D02*
X47400700Y-83950000D01*
D11*
X48500700Y-83400000D02*
X48950700Y-83400000D01*
X48450700Y-83150000D02*
X48450700Y-83650000D01*
X48450700Y-83400000D02*
X48700700Y-83150000D01*
X48700700Y-83150000D02*
X48700700Y-83650000D01*
X48700700Y-83650000D02*
X48450700Y-83400000D01*
D10*
X48350000Y-112400000D02*
X49450000Y-112400000D01*
X49450000Y-115000000D02*
X48350000Y-115000000D01*
X48350000Y-115000000D02*
X48350000Y-112400000D01*
X49450000Y-112400000D02*
X49450000Y-115000000D01*
D11*
X48900000Y-113900000D02*
X48900000Y-113450000D01*
X48650000Y-113950000D02*
X49150000Y-113950000D01*
X48900000Y-113950000D02*
X48650000Y-113700000D01*
X48650000Y-113700000D02*
X49150000Y-113700000D01*
X49150000Y-113700000D02*
X48900000Y-113950000D01*
D10*
X61500000Y-117900700D02*
X60400000Y-117900700D01*
X60400000Y-115300700D02*
X61500000Y-115300700D01*
X61500000Y-115300700D02*
X61500000Y-117900700D01*
X60400000Y-117900700D02*
X60400000Y-115300700D01*
D11*
X60950000Y-116400700D02*
X60950000Y-116850700D01*
X61200000Y-116350700D02*
X60700000Y-116350700D01*
X60950000Y-116350700D02*
X61200000Y-116600700D01*
X61200000Y-116600700D02*
X60700000Y-116600700D01*
X60700000Y-116600700D02*
X60950000Y-116350700D01*
X66475000Y-90525000D02*
X66575000Y-90525000D01*
X66475000Y-85875000D02*
X66675000Y-85875000D01*
X69725000Y-85875000D02*
X69525000Y-85875000D01*
X69725000Y-90525000D02*
X69525000Y-90525000D01*
X66475000Y-90525000D02*
X66475000Y-85875000D01*
X69725000Y-90525000D02*
X69725000Y-85875000D01*
X66575000Y-90525000D02*
X66575000Y-91875000D01*
X61325000Y-82800000D02*
X59875000Y-82800000D01*
X62050000Y-85000000D02*
X59875000Y-85000000D01*
X58650000Y-94575000D02*
X58650000Y-97025000D01*
X61950000Y-93850000D02*
X61950000Y-97025000D01*
D10*
X63500000Y-88450000D02*
X65100000Y-88450000D01*
X65100000Y-88450000D02*
X65100000Y-89350000D01*
X65100000Y-89350000D02*
X63500000Y-89350000D01*
X63500000Y-89350000D02*
X63500000Y-88450000D01*
X65100000Y-88250000D02*
X63500000Y-88250000D01*
X63500000Y-88250000D02*
X63500000Y-87350000D01*
X63500000Y-87350000D02*
X65100000Y-87350000D01*
X65100000Y-87350000D02*
X65100000Y-88250000D01*
X47400000Y-106750000D02*
X47400000Y-105150000D01*
X47400000Y-105150000D02*
X48300000Y-105150000D01*
X48300000Y-105150000D02*
X48300000Y-106750000D01*
X48300000Y-106750000D02*
X47400000Y-106750000D01*
X57150000Y-114100000D02*
X57150000Y-112500000D01*
X57150000Y-112500000D02*
X58050000Y-112500000D01*
X58050000Y-112500000D02*
X58050000Y-114100000D01*
X58050000Y-114100000D02*
X57150000Y-114100000D01*
X56950000Y-112500000D02*
X56950000Y-114100000D01*
X56950000Y-114100000D02*
X56050000Y-114100000D01*
X56050000Y-114100000D02*
X56050000Y-112500000D01*
X56050000Y-112500000D02*
X56950000Y-112500000D01*
X58900000Y-91150000D02*
X60500000Y-91150000D01*
X60500000Y-91150000D02*
X60500000Y-92050000D01*
X60500000Y-92050000D02*
X58900000Y-92050000D01*
X58900000Y-92050000D02*
X58900000Y-91150000D01*
X60700000Y-91150000D02*
X62300000Y-91150000D01*
X62300000Y-91150000D02*
X62300000Y-92050000D01*
X62300000Y-92050000D02*
X60700000Y-92050000D01*
X60700000Y-92050000D02*
X60700000Y-91150000D01*
X64400000Y-102300000D02*
X64400000Y-100700000D01*
X64400000Y-100700000D02*
X65300000Y-100700000D01*
X65300000Y-100700000D02*
X65300000Y-102300000D01*
X65300000Y-102300000D02*
X64400000Y-102300000D01*
X47400000Y-84150000D02*
X49000000Y-84150000D01*
X49000000Y-84150000D02*
X49000000Y-85050000D01*
X49000000Y-85050000D02*
X47400000Y-85050000D01*
X47400000Y-85050000D02*
X47400000Y-84150000D01*
X49250000Y-110600000D02*
X49250000Y-112200000D01*
X49250000Y-112200000D02*
X48350000Y-112200000D01*
X48350000Y-112200000D02*
X48350000Y-110600000D01*
X48350000Y-110600000D02*
X49250000Y-110600000D01*
X67100000Y-101600000D02*
X65500000Y-101600000D01*
X65500000Y-101600000D02*
X65500000Y-100700000D01*
X65500000Y-100700000D02*
X67100000Y-100700000D01*
X67100000Y-100700000D02*
X67100000Y-101600000D01*
X53100000Y-90300000D02*
X54700000Y-90300000D01*
X54700000Y-90300000D02*
X54700000Y-91200000D01*
X54700000Y-91200000D02*
X53100000Y-91200000D01*
X53100000Y-91200000D02*
X53100000Y-90300000D01*
X66100000Y-82650000D02*
X66100000Y-84950000D01*
X66100000Y-84950000D02*
X64900000Y-84950000D01*
X64900000Y-84950000D02*
X64900000Y-82650000D01*
X64900000Y-82650000D02*
X66100000Y-82650000D01*
X62600000Y-116300000D02*
X62600000Y-117900000D01*
X62600000Y-117900000D02*
X61700000Y-117900000D01*
X61700000Y-117900000D02*
X61700000Y-116300000D01*
X61700000Y-116300000D02*
X62600000Y-116300000D01*
X64700000Y-82650000D02*
X64700000Y-84950000D01*
X64700000Y-84950000D02*
X63500000Y-84950000D01*
X63500000Y-84950000D02*
X63500000Y-82650000D01*
X63500000Y-82650000D02*
X64700000Y-82650000D01*
X47800000Y-99250000D02*
X49400000Y-99250000D01*
X49400000Y-99250000D02*
X49400000Y-100150000D01*
X49400000Y-100150000D02*
X47800000Y-100150000D01*
X47800000Y-100150000D02*
X47800000Y-99250000D01*
X47800000Y-100350000D02*
X49400000Y-100350000D01*
X49400000Y-100350000D02*
X49400000Y-101250000D01*
X49400000Y-101250000D02*
X47800000Y-101250000D01*
X47800000Y-101250000D02*
X47800000Y-100350000D01*
X65100000Y-87150000D02*
X63500000Y-87150000D01*
X63500000Y-87150000D02*
X63500000Y-86250000D01*
X63500000Y-86250000D02*
X65100000Y-86250000D01*
X65100000Y-86250000D02*
X65100000Y-87150000D01*
X65100000Y-86050000D02*
X63500000Y-86050000D01*
X63500000Y-86050000D02*
X63500000Y-85150000D01*
X63500000Y-85150000D02*
X65100000Y-85150000D01*
X65100000Y-85150000D02*
X65100000Y-86050000D01*
X64000000Y-103800000D02*
X62400000Y-103800000D01*
X62400000Y-103800000D02*
X62400000Y-102900000D01*
X62400000Y-102900000D02*
X64000000Y-102900000D01*
X64000000Y-102900000D02*
X64000000Y-103800000D01*
X58900000Y-80800000D02*
X58900000Y-82400000D01*
X58900000Y-82400000D02*
X62300000Y-82400000D01*
X62300000Y-82400000D02*
X62300000Y-80800000D01*
X62300000Y-80800000D02*
X58900000Y-80800000D01*
X54900000Y-92250000D02*
X56900000Y-92250000D01*
X56900000Y-92250000D02*
X56900000Y-93050000D01*
X56900000Y-93050000D02*
X54900000Y-93050000D01*
X54900000Y-93050000D02*
X54900000Y-92250000D01*
X58300000Y-90950000D02*
X58300000Y-89350000D01*
X58300000Y-89350000D02*
X54900000Y-89350000D01*
X54900000Y-89350000D02*
X54900000Y-90950000D01*
X54900000Y-90950000D02*
X58300000Y-90950000D01*
X54900000Y-91150000D02*
X56500000Y-91150000D01*
X56500000Y-91150000D02*
X56500000Y-92050000D01*
X56500000Y-92050000D02*
X54900000Y-92050000D01*
X54900000Y-92050000D02*
X54900000Y-91150000D01*
X56700000Y-91150000D02*
X58300000Y-91150000D01*
X58300000Y-91150000D02*
X58300000Y-92050000D01*
X58300000Y-92050000D02*
X56700000Y-92050000D01*
X56700000Y-92050000D02*
X56700000Y-91150000D01*
D11*
X57325000Y-82800000D02*
X55875000Y-82800000D01*
X58050000Y-85000000D02*
X55875000Y-85000000D01*
D12*
X58770000Y-85890000D02*
X59160000Y-85500000D01*
X58770000Y-88510000D02*
X59160000Y-88900000D01*
X58770000Y-85890000D02*
X58770000Y-88510000D01*
X62040000Y-88900000D02*
X62430000Y-88510000D01*
X62430000Y-88510000D02*
X62430000Y-85890000D01*
X62040000Y-85500000D02*
X62430000Y-85890000D01*
X59160000Y-85500000D02*
X62040000Y-85500000D01*
X60600000Y-88900000D02*
X59160000Y-88900000D01*
X60600000Y-88900000D02*
X62040000Y-88900000D01*
X54770000Y-85890000D02*
X55160000Y-85500000D01*
X54770000Y-88510000D02*
X55160000Y-88900000D01*
X54770000Y-85890000D02*
X54770000Y-88510000D01*
X58040000Y-88900000D02*
X58430000Y-88510000D01*
X58430000Y-88510000D02*
X58430000Y-85890000D01*
X58040000Y-85500000D02*
X58430000Y-85890000D01*
X55160000Y-85500000D02*
X58040000Y-85500000D01*
X56600000Y-88900000D02*
X55160000Y-88900000D01*
X56600000Y-88900000D02*
X58040000Y-88900000D01*
D10*
X54300000Y-119000000D02*
X54300000Y-117900000D01*
X56900000Y-117900000D02*
X56900000Y-119000000D01*
X56900000Y-119000000D02*
X54300000Y-119000000D01*
X54300000Y-117900000D02*
X56900000Y-117900000D01*
D11*
X55800000Y-118450000D02*
X55350000Y-118450000D01*
X55850000Y-118700000D02*
X55850000Y-118200000D01*
X55850000Y-118450000D02*
X55600000Y-118700000D01*
X55600000Y-118700000D02*
X55600000Y-118200000D01*
X55600000Y-118200000D02*
X55850000Y-118450000D01*
D10*
X52500000Y-118000000D02*
X54100000Y-118000000D01*
X54100000Y-118000000D02*
X54100000Y-118900000D01*
X54100000Y-118900000D02*
X52500000Y-118900000D01*
X52500000Y-118900000D02*
X52500000Y-118000000D01*
X50900000Y-89250000D02*
X50900000Y-87250000D01*
X50900000Y-87250000D02*
X51700000Y-87250000D01*
X51700000Y-87250000D02*
X51700000Y-89250000D01*
X51700000Y-89250000D02*
X50900000Y-89250000D01*
X50850000Y-86750000D02*
X50850000Y-84750000D01*
X50850000Y-84750000D02*
X51650000Y-84750000D01*
X51650000Y-84750000D02*
X51650000Y-86750000D01*
X51650000Y-86750000D02*
X50850000Y-86750000D01*
X52900000Y-80850000D02*
X54900000Y-80850000D01*
X54900000Y-80850000D02*
X54900000Y-81650000D01*
X54900000Y-81650000D02*
X52900000Y-81650000D01*
X52900000Y-81650000D02*
X52900000Y-80850000D01*
X50500000Y-81650000D02*
X50500000Y-79650000D01*
X50500000Y-79650000D02*
X51300000Y-79650000D01*
X51300000Y-79650000D02*
X51300000Y-81650000D01*
X51300000Y-81650000D02*
X50500000Y-81650000D01*
X52900000Y-79850000D02*
X54900000Y-79850000D01*
X54900000Y-79850000D02*
X54900000Y-80650000D01*
X54900000Y-80650000D02*
X52900000Y-80650000D01*
X52900000Y-80650000D02*
X52900000Y-79850000D01*
X52700000Y-79350000D02*
X52700000Y-81650000D01*
X52700000Y-81650000D02*
X51500000Y-81650000D01*
X51500000Y-81650000D02*
X51500000Y-79350000D01*
X51500000Y-79350000D02*
X52700000Y-79350000D01*
X48400000Y-89100000D02*
X50700000Y-89100000D01*
X50700000Y-89100000D02*
X50700000Y-90300000D01*
X50700000Y-90300000D02*
X48400000Y-90300000D01*
X48400000Y-90300000D02*
X48400000Y-89100000D01*
X49600000Y-86600000D02*
X49600000Y-88900000D01*
X49600000Y-88900000D02*
X48400000Y-88900000D01*
X48400000Y-88900000D02*
X48400000Y-86600000D01*
X48400000Y-86600000D02*
X49600000Y-86600000D01*
X50700000Y-91700000D02*
X48400000Y-91700000D01*
X48400000Y-91700000D02*
X48400000Y-90500000D01*
X48400000Y-90500000D02*
X50700000Y-90500000D01*
X50700000Y-90500000D02*
X50700000Y-91700000D01*
X51900000Y-88350000D02*
X54200000Y-88350000D01*
X54200000Y-88350000D02*
X54200000Y-89550000D01*
X54200000Y-89550000D02*
X51900000Y-89550000D01*
X51900000Y-89550000D02*
X51900000Y-88350000D01*
D13*
X69730000Y-81740000D02*
X68800000Y-81740000D01*
X66570000Y-81740000D02*
X67500000Y-81740000D01*
X66570000Y-81740000D02*
X66570000Y-83900000D01*
X69730000Y-81740000D02*
X69730000Y-83200000D01*
X63100000Y-80750000D02*
X63100000Y-82450000D01*
X63100000Y-82450000D02*
X65650000Y-82450000D01*
X63100000Y-80750000D02*
X65650000Y-80750000D01*
D10*
X66700000Y-107800000D02*
X64700000Y-107800000D01*
X64700000Y-107800000D02*
X64700000Y-107000000D01*
X64700000Y-107000000D02*
X66700000Y-107000000D01*
X66700000Y-107000000D02*
X66700000Y-107800000D01*
X61200000Y-111300000D02*
X61200000Y-113300000D01*
X61200000Y-113300000D02*
X60400000Y-113300000D01*
X60400000Y-113300000D02*
X60400000Y-111300000D01*
X60400000Y-111300000D02*
X61200000Y-111300000D01*
X62200000Y-112100000D02*
X62200000Y-114100000D01*
X62200000Y-114100000D02*
X61400000Y-114100000D01*
X61400000Y-114100000D02*
X61400000Y-112100000D01*
X61400000Y-112100000D02*
X62200000Y-112100000D01*
X50000000Y-81550000D02*
X50000000Y-82650000D01*
X47400000Y-82650000D02*
X47400000Y-81550000D01*
X47400000Y-81550000D02*
X50000000Y-81550000D01*
X50000000Y-82650000D02*
X47400000Y-82650000D01*
D11*
X48500000Y-82100000D02*
X48950000Y-82100000D01*
X48450000Y-81850000D02*
X48450000Y-82350000D01*
X48450000Y-82100000D02*
X48700000Y-81850000D01*
X48700000Y-81850000D02*
X48700000Y-82350000D01*
X48700000Y-82350000D02*
X48450000Y-82100000D01*
D10*
X47400000Y-81350000D02*
X47400000Y-79750000D01*
X47400000Y-79750000D02*
X48300000Y-79750000D01*
X48300000Y-79750000D02*
X48300000Y-81350000D01*
X48300000Y-81350000D02*
X47400000Y-81350000D01*
D12*
X69460000Y-99220000D02*
X68780000Y-99900000D01*
X69460000Y-93980000D02*
X68780000Y-93300000D01*
X69460000Y-99220000D02*
X69460000Y-93980000D01*
X63020000Y-93300000D02*
X62340000Y-93980000D01*
X62340000Y-93980000D02*
X62340000Y-99220000D01*
X63020000Y-99900000D02*
X62340000Y-99220000D01*
X68780000Y-99900000D02*
X63020000Y-99900000D01*
X65900000Y-93300000D02*
X68780000Y-93300000D01*
X65900000Y-93300000D02*
X63020000Y-93300000D01*
D11*
X68950000Y-117750000D02*
X68950000Y-118950000D01*
X68850000Y-118950000D02*
X68850000Y-117750000D01*
X68750000Y-117750000D02*
X68750000Y-118950000D01*
X68650000Y-118950000D02*
X68650000Y-117750000D01*
X68550000Y-117750000D02*
X68550000Y-118950000D01*
X68450000Y-118950000D02*
X68450000Y-117750000D01*
X69050000Y-118950000D02*
X68450000Y-118950000D01*
X69050000Y-117750000D02*
X69050000Y-118950000D01*
X68450000Y-117750000D02*
X69050000Y-117750000D01*
X69950000Y-116950000D02*
X69950000Y-123950000D01*
X67550000Y-116950000D02*
X67550000Y-123950000D01*
X51011803Y-83500000D02*
G75*
G03X51011803Y-83500000I-111803J0D01*
G01*
X51200000Y-83300000D02*
X51200000Y-83100000D01*
X53000000Y-83300000D02*
X51200000Y-83300000D01*
X53000000Y-83100000D02*
X53000000Y-83300000D01*
X51200000Y-83100000D02*
X53000000Y-83100000D01*
X68450900Y-80000000D02*
X59750900Y-80000000D01*
X59750000Y-80000000D02*
X59750000Y-74825000D01*
X59750000Y-74825000D02*
X68450000Y-74825000D01*
X68450900Y-74825000D02*
X68450900Y-80000000D01*
D10*
X54200000Y-84750000D02*
X54200000Y-86750000D01*
X54200000Y-86750000D02*
X53400000Y-86750000D01*
X53400000Y-86750000D02*
X53400000Y-84750000D01*
X53400000Y-84750000D02*
X54200000Y-84750000D01*
X54200000Y-88150000D02*
X51900000Y-88150000D01*
X51900000Y-88150000D02*
X51900000Y-86950000D01*
X51900000Y-86950000D02*
X54200000Y-86950000D01*
X54200000Y-86950000D02*
X54200000Y-88150000D01*
X50300000Y-80550000D02*
X48700000Y-80550000D01*
X48700000Y-80550000D02*
X48700000Y-79650000D01*
X48700000Y-79650000D02*
X50300000Y-79650000D01*
X50300000Y-79650000D02*
X50300000Y-80550000D01*
X49650000Y-112400000D02*
X50750000Y-112400000D01*
X50750000Y-115000000D02*
X49650000Y-115000000D01*
X49650000Y-115000000D02*
X49650000Y-112400000D01*
X50750000Y-112400000D02*
X50750000Y-115000000D01*
D11*
X50200000Y-113900000D02*
X50200000Y-113450000D01*
X49950000Y-113950000D02*
X50450000Y-113950000D01*
X50200000Y-113950000D02*
X49950000Y-113700000D01*
X49950000Y-113700000D02*
X50450000Y-113700000D01*
X50450000Y-113700000D02*
X50200000Y-113950000D01*
D10*
X50350000Y-110600000D02*
X50350000Y-112200000D01*
X50350000Y-112200000D02*
X49450000Y-112200000D01*
X49450000Y-112200000D02*
X49450000Y-110600000D01*
X49450000Y-110600000D02*
X50350000Y-110600000D01*
X58000000Y-98000000D02*
X56000000Y-98000000D01*
X56000000Y-98000000D02*
X56000000Y-97200000D01*
X56000000Y-97200000D02*
X58000000Y-97200000D01*
X58000000Y-97200000D02*
X58000000Y-98000000D01*
X62800000Y-116600000D02*
X64800000Y-116600000D01*
X64800000Y-116600000D02*
X64800000Y-117400000D01*
X64800000Y-117400000D02*
X62800000Y-117400000D01*
X62800000Y-117400000D02*
X62800000Y-116600000D01*
X67300000Y-117600000D02*
X65000000Y-117600000D01*
X65000000Y-117600000D02*
X65000000Y-116400000D01*
X65000000Y-116400000D02*
X67300000Y-116400000D01*
X67300000Y-116400000D02*
X67300000Y-117600000D01*
X64700000Y-118500000D02*
X63100000Y-118500000D01*
X63100000Y-118500000D02*
X63100000Y-117600000D01*
X63100000Y-117600000D02*
X64700000Y-117600000D01*
X64700000Y-117600000D02*
X64700000Y-118500000D01*
M02*
