G04 #@! TF.FileFunction,Paste,Top*
%FSLAX46Y46*%
G04 Gerber Fmt 4.6, Leading zero omitted, Abs format (unit mm)*
G04 Created by KiCad (PCBNEW 4.0.6+dfsg1-1) date Wed May  2 02:34:31 2018*
%MOMM*%
%LPD*%
G01*
G04 APERTURE LIST*
%ADD10C,0.100000*%
%ADD11R,2.000000X1.000000*%
%ADD12R,0.500000X0.600000*%
%ADD13R,0.600000X0.500000*%
%ADD14R,0.800000X0.600000*%
%ADD15R,1.000000X0.250000*%
%ADD16R,0.250000X1.000000*%
%ADD17R,0.350000X0.500000*%
%ADD18R,1.250000X1.000000*%
%ADD19O,0.300000X0.750000*%
%ADD20O,0.750000X0.300000*%
%ADD21R,0.540000X0.540000*%
%ADD22R,0.600000X0.400000*%
%ADD23R,0.300000X1.000000*%
%ADD24R,2.000000X1.300000*%
%ADD25R,0.400000X0.300000*%
%ADD26R,0.300000X0.400000*%
%ADD27R,0.500000X0.500000*%
%ADD28R,0.400000X0.600000*%
%ADD29R,0.300000X0.730000*%
%ADD30R,0.730000X0.300000*%
%ADD31R,0.750000X0.750000*%
%ADD32R,1.000000X1.250000*%
%ADD33R,0.797560X0.797560*%
%ADD34R,0.450000X1.450000*%
%ADD35R,0.650000X0.350000*%
%ADD36R,0.600000X0.480000*%
%ADD37R,0.300000X0.650000*%
%ADD38R,0.744000X0.465000*%
%ADD39R,0.900000X0.500000*%
%ADD40R,0.762000X2.540000*%
%ADD41R,0.889000X0.254000*%
%ADD42R,0.381000X0.444500*%
%ADD43R,0.500000X0.900000*%
%ADD44R,0.800000X0.900000*%
%ADD45R,1.000000X1.000000*%
%ADD46R,1.524000X5.080000*%
%ADD47R,1.778000X0.508000*%
%ADD48R,0.762000X0.889000*%
%ADD49R,0.450000X1.000000*%
%ADD50R,0.400000X1.350000*%
%ADD51R,2.100000X1.600000*%
%ADD52R,1.900000X1.900000*%
%ADD53R,1.800000X1.900000*%
%ADD54R,0.600000X0.800000*%
G04 APERTURE END LIST*
D10*
D11*
X68750000Y-116950000D03*
X68750000Y-123950000D03*
D12*
X58050000Y-118350000D03*
X58050000Y-119450000D03*
D13*
X52150000Y-115450000D03*
X51050000Y-115450000D03*
X51050000Y-98700000D03*
X52150000Y-98700000D03*
D14*
X56450000Y-94900000D03*
X57650000Y-94900000D03*
X56450000Y-96700000D03*
X57650000Y-96700000D03*
D15*
X50200000Y-101850000D03*
X50200000Y-102350000D03*
X50200000Y-102850000D03*
X50200000Y-103350000D03*
X50200000Y-103850000D03*
X50200000Y-104350000D03*
X50200000Y-104850000D03*
X50200000Y-105350000D03*
X50200000Y-105850000D03*
X50200000Y-106350000D03*
X50200000Y-106850000D03*
X50200000Y-107350000D03*
X50200000Y-107850000D03*
X50200000Y-108350000D03*
X50200000Y-108850000D03*
X50200000Y-109350000D03*
D16*
X52150000Y-111300000D03*
X52650000Y-111300000D03*
X53150000Y-111300000D03*
X53650000Y-111300000D03*
X54150000Y-111300000D03*
X54650000Y-111300000D03*
X55150000Y-111300000D03*
X55650000Y-111300000D03*
X56150000Y-111300000D03*
X56650000Y-111300000D03*
X57150000Y-111300000D03*
X57650000Y-111300000D03*
X58150000Y-111300000D03*
X58650000Y-111300000D03*
X59150000Y-111300000D03*
X59650000Y-111300000D03*
D15*
X61600000Y-109350000D03*
X61600000Y-108850000D03*
X61600000Y-108350000D03*
X61600000Y-107850000D03*
X61600000Y-107350000D03*
X61600000Y-106850000D03*
X61600000Y-106350000D03*
X61600000Y-105850000D03*
X61600000Y-105350000D03*
X61600000Y-104850000D03*
X61600000Y-104350000D03*
X61600000Y-103850000D03*
X61600000Y-103350000D03*
X61600000Y-102850000D03*
X61600000Y-102350000D03*
X61600000Y-101850000D03*
D16*
X59650000Y-99900000D03*
X59150000Y-99900000D03*
X58650000Y-99900000D03*
X58150000Y-99900000D03*
X57650000Y-99900000D03*
X57150000Y-99900000D03*
X56650000Y-99900000D03*
X56150000Y-99900000D03*
X55650000Y-99900000D03*
X55150000Y-99900000D03*
X54650000Y-99900000D03*
X54150000Y-99900000D03*
X53650000Y-99900000D03*
X53150000Y-99900000D03*
X52650000Y-99900000D03*
X52150000Y-99900000D03*
D17*
X47925000Y-119425000D03*
X48575000Y-119425000D03*
X49225000Y-119425000D03*
X49875000Y-119425000D03*
X47925000Y-117375000D03*
X48575000Y-117375000D03*
X49225000Y-117375000D03*
X49875000Y-117375000D03*
D18*
X59450000Y-117200000D03*
X59450000Y-119200000D03*
D19*
X55450000Y-115625000D03*
X54950000Y-115625000D03*
X54450000Y-115625000D03*
X53950000Y-115625000D03*
D20*
X53225000Y-116350000D03*
X53225000Y-116850000D03*
X53225000Y-117350000D03*
X53225000Y-117850000D03*
D19*
X53950000Y-118575000D03*
X54450000Y-118575000D03*
X54950000Y-118575000D03*
X55450000Y-118575000D03*
D20*
X56175000Y-117850000D03*
X56175000Y-117350000D03*
X56175000Y-116850000D03*
X56175000Y-116350000D03*
D21*
X54250000Y-117550000D03*
X55150000Y-117550000D03*
X54250000Y-116650000D03*
X55150000Y-116650000D03*
D22*
X62550000Y-112900000D03*
X62550000Y-113800000D03*
D23*
X50750000Y-120600000D03*
X51250000Y-120600000D03*
X51750000Y-120600000D03*
X52250000Y-120600000D03*
X52750000Y-120600000D03*
X53250000Y-120600000D03*
X53750000Y-120600000D03*
X54250000Y-120600000D03*
X54750000Y-120600000D03*
X55250000Y-120600000D03*
X55750000Y-120600000D03*
X56250000Y-120600000D03*
X56750000Y-120600000D03*
X57250000Y-120600000D03*
X57750000Y-120600000D03*
X58250000Y-120600000D03*
X58750000Y-120600000D03*
X59250000Y-120600000D03*
X59750000Y-120600000D03*
X60250000Y-120600000D03*
X60750000Y-120600000D03*
X61250000Y-120600000D03*
X61750000Y-120600000D03*
X62250000Y-120600000D03*
D24*
X48450000Y-123300000D03*
X64550000Y-123300000D03*
D25*
X69350000Y-110800000D03*
X69350000Y-110150000D03*
X69350000Y-109500000D03*
X69350000Y-108850000D03*
X69350000Y-108200000D03*
X69350000Y-107550000D03*
X69350000Y-106900000D03*
X69350000Y-106250000D03*
X69350000Y-105600000D03*
D26*
X68150000Y-105050000D03*
X67500000Y-105050000D03*
X66850000Y-105050000D03*
X66200000Y-105050000D03*
X65550000Y-105050000D03*
X64900000Y-105050000D03*
X64250000Y-105050000D03*
X63600000Y-105050000D03*
D25*
X63050000Y-105600000D03*
D26*
X68800000Y-105050000D03*
D25*
X63050000Y-106250000D03*
X63050000Y-106900000D03*
X63050000Y-107550000D03*
X63050000Y-108200000D03*
X63050000Y-108850000D03*
X63050000Y-109500000D03*
X63050000Y-110150000D03*
X63050000Y-110800000D03*
D26*
X63600000Y-111350000D03*
X64250000Y-111350000D03*
X64900000Y-111350000D03*
X65550000Y-111350000D03*
X66200000Y-111350000D03*
X66850000Y-111350000D03*
X67500000Y-111350000D03*
X68150000Y-111350000D03*
X68800000Y-111350000D03*
D27*
X66200000Y-108200000D03*
X67500000Y-108200000D03*
X66200000Y-109500000D03*
X67500000Y-109500000D03*
X66200000Y-106900000D03*
X67500000Y-106900000D03*
X64900000Y-106900000D03*
D22*
X48950000Y-105500000D03*
X48950000Y-106400000D03*
X52850000Y-113600000D03*
X52850000Y-114500000D03*
D28*
X54750000Y-113700000D03*
X53850000Y-113700000D03*
D29*
X53100000Y-92435000D03*
X52600000Y-92435000D03*
X52100000Y-92435000D03*
X51600000Y-92435000D03*
X51100000Y-92435000D03*
D30*
X50135000Y-93400000D03*
X50135000Y-93900000D03*
X50135000Y-94400000D03*
X50135000Y-94900000D03*
X50135000Y-95400000D03*
D29*
X51100000Y-96365000D03*
X51600000Y-96365000D03*
X52100000Y-96365000D03*
X52600000Y-96365000D03*
X53100000Y-96365000D03*
D30*
X54065000Y-95400000D03*
X54065000Y-94900000D03*
X54065000Y-94400000D03*
X54065000Y-93900000D03*
X54065000Y-93400000D03*
D31*
X51475000Y-95025000D03*
X52725000Y-95025000D03*
X51475000Y-93775000D03*
X52725000Y-93775000D03*
D12*
X52750000Y-86300000D03*
X52750000Y-85200000D03*
D13*
X48950000Y-92400000D03*
X47850000Y-92400000D03*
X48950000Y-94400000D03*
X47850000Y-94400000D03*
X48950000Y-93400000D03*
X47850000Y-93400000D03*
X56850000Y-93950000D03*
X55750000Y-93950000D03*
D32*
X65400000Y-92150000D03*
X63400000Y-92150000D03*
D12*
X65700000Y-88900000D03*
X65700000Y-87800000D03*
D32*
X65400000Y-90350000D03*
X63400000Y-90350000D03*
X57800000Y-81600000D03*
X55800000Y-81600000D03*
D13*
X59350000Y-92650000D03*
X60450000Y-92650000D03*
D32*
X59600000Y-90150000D03*
X61600000Y-90150000D03*
D13*
X58650000Y-114800000D03*
X59750000Y-114800000D03*
X66550000Y-103800000D03*
X65450000Y-103800000D03*
X52150000Y-116450000D03*
X51050000Y-116450000D03*
X52150000Y-118450000D03*
X51050000Y-118450000D03*
D12*
X47800000Y-91250000D03*
X47800000Y-90150000D03*
X51300000Y-90150000D03*
X51300000Y-91250000D03*
X47800000Y-88450000D03*
X47800000Y-87350000D03*
X50200000Y-88450000D03*
X50200000Y-87350000D03*
D13*
X48950000Y-85900000D03*
X47850000Y-85900000D03*
D12*
X65700000Y-86700000D03*
X65700000Y-85600000D03*
D13*
X51050000Y-117450000D03*
X52150000Y-117450000D03*
D12*
X55200000Y-95650000D03*
X55200000Y-96750000D03*
X61850000Y-118350000D03*
X61850000Y-119450000D03*
X60850000Y-118350000D03*
X60850000Y-119450000D03*
D13*
X47850000Y-101950000D03*
X48950000Y-101950000D03*
X48950000Y-108850000D03*
X47850000Y-108850000D03*
X48950000Y-107850000D03*
X47850000Y-107850000D03*
X47850000Y-102950000D03*
X48950000Y-102950000D03*
X63950000Y-100700000D03*
X62850000Y-100700000D03*
D12*
X59800000Y-113650000D03*
X59800000Y-112550000D03*
D13*
X52000000Y-112500000D03*
X53100000Y-112500000D03*
X63950000Y-101700000D03*
X62850000Y-101700000D03*
D12*
X58800000Y-113650000D03*
X58800000Y-112550000D03*
D33*
X49450000Y-83400000D03*
X47951400Y-83400000D03*
X49449300Y-113000000D03*
X47950700Y-113000000D03*
X60950700Y-114950000D03*
X62449300Y-114950000D03*
D34*
X67125000Y-91150000D03*
X67775000Y-91150000D03*
X68425000Y-91150000D03*
X69075000Y-91150000D03*
X69075000Y-85250000D03*
X68425000Y-85250000D03*
X67775000Y-85250000D03*
X67125000Y-85250000D03*
D35*
X61650000Y-84550000D03*
X61650000Y-83900000D03*
X61650000Y-83250000D03*
X59550000Y-83250000D03*
X59550000Y-83900000D03*
X59550000Y-84550000D03*
D36*
X60600000Y-83500000D03*
X60600000Y-84300000D03*
D37*
X61300000Y-94250000D03*
X60800000Y-94250000D03*
X60300000Y-94250000D03*
X59800000Y-94250000D03*
X59300000Y-94250000D03*
X59300000Y-97350000D03*
X59800000Y-97350000D03*
X60300000Y-97350000D03*
X60800000Y-97350000D03*
X61300000Y-97350000D03*
D38*
X59680000Y-96187500D03*
X60920000Y-96187500D03*
X59680000Y-95412500D03*
X60920000Y-95412500D03*
D28*
X63850000Y-88900000D03*
X64750000Y-88900000D03*
X64750000Y-87800000D03*
X63850000Y-87800000D03*
D22*
X47850000Y-106400000D03*
X47850000Y-105500000D03*
D28*
X57450000Y-112550000D03*
X56550000Y-112550000D03*
X56550000Y-113650000D03*
X57450000Y-113650000D03*
X59250000Y-91600000D03*
X60150000Y-91600000D03*
X61050000Y-91600000D03*
X61950000Y-91600000D03*
X57950000Y-115850000D03*
X58850000Y-115850000D03*
X47750000Y-84600000D03*
X48650000Y-84600000D03*
D22*
X48800000Y-110950000D03*
X48800000Y-111850000D03*
D28*
X57200000Y-116950000D03*
X58100000Y-116950000D03*
X53450000Y-90750000D03*
X54350000Y-90750000D03*
D39*
X65500000Y-83050000D03*
X65500000Y-84550000D03*
D22*
X60850000Y-113350000D03*
X60850000Y-112450000D03*
D39*
X64100000Y-83050000D03*
X64100000Y-84550000D03*
D28*
X48150000Y-99700000D03*
X49050000Y-99700000D03*
X48150000Y-100800000D03*
X49050000Y-100800000D03*
X64750000Y-86700000D03*
X63850000Y-86700000D03*
X64750000Y-85600000D03*
X63850000Y-85600000D03*
X64050000Y-102750000D03*
X63150000Y-102750000D03*
D32*
X61600000Y-81600000D03*
X59600000Y-81600000D03*
D13*
X55350000Y-92650000D03*
X56450000Y-92650000D03*
D32*
X55600000Y-90150000D03*
X57600000Y-90150000D03*
D28*
X55250000Y-91600000D03*
X56150000Y-91600000D03*
X57050000Y-91600000D03*
X57950000Y-91600000D03*
D35*
X57650000Y-84550000D03*
X57650000Y-83900000D03*
X57650000Y-83250000D03*
X55550000Y-83250000D03*
X55550000Y-83900000D03*
X55550000Y-84550000D03*
D36*
X56600000Y-83500000D03*
X56600000Y-84300000D03*
D40*
X59330000Y-87200000D03*
X61870000Y-87200000D03*
D41*
X59647500Y-85803000D03*
X59647500Y-88597000D03*
X61552500Y-85803000D03*
X61552500Y-88597000D03*
D42*
X59901500Y-88247750D03*
X61298500Y-88247750D03*
X61298500Y-86152250D03*
X59901500Y-86152250D03*
D10*
G36*
X59203000Y-88723962D02*
X58949038Y-88470000D01*
X59203000Y-88216038D01*
X59456962Y-88470000D01*
X59203000Y-88723962D01*
X59203000Y-88723962D01*
G37*
G36*
X59203000Y-86183962D02*
X58949038Y-85930000D01*
X59203000Y-85676038D01*
X59456962Y-85930000D01*
X59203000Y-86183962D01*
X59203000Y-86183962D01*
G37*
G36*
X61997000Y-86183962D02*
X61743038Y-85930000D01*
X61997000Y-85676038D01*
X62250962Y-85930000D01*
X61997000Y-86183962D01*
X61997000Y-86183962D01*
G37*
G36*
X61997000Y-88723962D02*
X61743038Y-88470000D01*
X61997000Y-88216038D01*
X62250962Y-88470000D01*
X61997000Y-88723962D01*
X61997000Y-88723962D01*
G37*
G36*
X59711000Y-88406263D02*
X59330237Y-88025500D01*
X59711000Y-87644737D01*
X60091763Y-88025500D01*
X59711000Y-88406263D01*
X59711000Y-88406263D01*
G37*
G36*
X59711000Y-86755263D02*
X59330237Y-86374500D01*
X59711000Y-85993737D01*
X60091763Y-86374500D01*
X59711000Y-86755263D01*
X59711000Y-86755263D01*
G37*
G36*
X61489000Y-86755263D02*
X61108237Y-86374500D01*
X61489000Y-85993737D01*
X61869763Y-86374500D01*
X61489000Y-86755263D01*
X61489000Y-86755263D01*
G37*
G36*
X61489000Y-88406263D02*
X61108237Y-88025500D01*
X61489000Y-87644737D01*
X61869763Y-88025500D01*
X61489000Y-88406263D01*
X61489000Y-88406263D01*
G37*
D40*
X55330000Y-87200000D03*
X57870000Y-87200000D03*
D41*
X55647500Y-85803000D03*
X55647500Y-88597000D03*
X57552500Y-85803000D03*
X57552500Y-88597000D03*
D42*
X55901500Y-88247750D03*
X57298500Y-88247750D03*
X57298500Y-86152250D03*
X55901500Y-86152250D03*
D10*
G36*
X55203000Y-88723962D02*
X54949038Y-88470000D01*
X55203000Y-88216038D01*
X55456962Y-88470000D01*
X55203000Y-88723962D01*
X55203000Y-88723962D01*
G37*
G36*
X55203000Y-86183962D02*
X54949038Y-85930000D01*
X55203000Y-85676038D01*
X55456962Y-85930000D01*
X55203000Y-86183962D01*
X55203000Y-86183962D01*
G37*
G36*
X57997000Y-86183962D02*
X57743038Y-85930000D01*
X57997000Y-85676038D01*
X58250962Y-85930000D01*
X57997000Y-86183962D01*
X57997000Y-86183962D01*
G37*
G36*
X57997000Y-88723962D02*
X57743038Y-88470000D01*
X57997000Y-88216038D01*
X58250962Y-88470000D01*
X57997000Y-88723962D01*
X57997000Y-88723962D01*
G37*
G36*
X55711000Y-88406263D02*
X55330237Y-88025500D01*
X55711000Y-87644737D01*
X56091763Y-88025500D01*
X55711000Y-88406263D01*
X55711000Y-88406263D01*
G37*
G36*
X55711000Y-86755263D02*
X55330237Y-86374500D01*
X55711000Y-85993737D01*
X56091763Y-86374500D01*
X55711000Y-86755263D01*
X55711000Y-86755263D01*
G37*
G36*
X57489000Y-86755263D02*
X57108237Y-86374500D01*
X57489000Y-85993737D01*
X57869763Y-86374500D01*
X57489000Y-86755263D01*
X57489000Y-86755263D01*
G37*
G36*
X57489000Y-88406263D02*
X57108237Y-88025500D01*
X57489000Y-87644737D01*
X57869763Y-88025500D01*
X57489000Y-88406263D01*
X57489000Y-88406263D01*
G37*
D33*
X49449300Y-115600000D03*
X47950700Y-115600000D03*
D28*
X51850000Y-114400000D03*
X50950000Y-114400000D03*
D12*
X51300000Y-88800000D03*
X51300000Y-87700000D03*
X51250000Y-86300000D03*
X51250000Y-85200000D03*
D13*
X53350000Y-81250000D03*
X54450000Y-81250000D03*
D12*
X50900000Y-81200000D03*
X50900000Y-80100000D03*
D13*
X53350000Y-80250000D03*
X54450000Y-80250000D03*
D39*
X52100000Y-79750000D03*
X52100000Y-81250000D03*
D43*
X48800000Y-89700000D03*
X50300000Y-89700000D03*
D39*
X49000000Y-87000000D03*
X49000000Y-88500000D03*
D43*
X50300000Y-91100000D03*
X48800000Y-91100000D03*
X52300000Y-88950000D03*
X53800000Y-88950000D03*
D44*
X67200000Y-83500000D03*
X69100000Y-83500000D03*
X68150000Y-81500000D03*
D45*
X63550000Y-81600000D03*
X65650000Y-81600000D03*
D13*
X63250000Y-103800000D03*
X64350000Y-103800000D03*
D33*
X49449300Y-82100000D03*
X47950700Y-82100000D03*
D22*
X47850000Y-81000000D03*
X47850000Y-80100000D03*
D46*
X68440000Y-96600000D03*
X63360000Y-96600000D03*
D47*
X67805000Y-99394000D03*
X67805000Y-93806000D03*
X63995000Y-99394000D03*
X63995000Y-93806000D03*
D48*
X67297000Y-94504500D03*
X64503000Y-94504500D03*
X64503000Y-98695500D03*
X67297000Y-98695500D03*
D10*
G36*
X68694000Y-93552077D02*
X69201923Y-94060000D01*
X68694000Y-94567923D01*
X68186077Y-94060000D01*
X68694000Y-93552077D01*
X68694000Y-93552077D01*
G37*
G36*
X68694000Y-98632077D02*
X69201923Y-99140000D01*
X68694000Y-99647923D01*
X68186077Y-99140000D01*
X68694000Y-98632077D01*
X68694000Y-98632077D01*
G37*
G36*
X63106000Y-98632077D02*
X63613923Y-99140000D01*
X63106000Y-99647923D01*
X62598077Y-99140000D01*
X63106000Y-98632077D01*
X63106000Y-98632077D01*
G37*
G36*
X63106000Y-93552077D02*
X63613923Y-94060000D01*
X63106000Y-94567923D01*
X62598077Y-94060000D01*
X63106000Y-93552077D01*
X63106000Y-93552077D01*
G37*
G36*
X67678000Y-94187473D02*
X68439527Y-94949000D01*
X67678000Y-95710527D01*
X66916473Y-94949000D01*
X67678000Y-94187473D01*
X67678000Y-94187473D01*
G37*
G36*
X67678000Y-97489473D02*
X68439527Y-98251000D01*
X67678000Y-99012527D01*
X66916473Y-98251000D01*
X67678000Y-97489473D01*
X67678000Y-97489473D01*
G37*
G36*
X64122000Y-97489473D02*
X64883527Y-98251000D01*
X64122000Y-99012527D01*
X63360473Y-98251000D01*
X64122000Y-97489473D01*
X64122000Y-97489473D01*
G37*
G36*
X64122000Y-94187473D02*
X64883527Y-94949000D01*
X64122000Y-95710527D01*
X63360473Y-94949000D01*
X64122000Y-94187473D01*
X64122000Y-94187473D01*
G37*
D49*
X51450000Y-84100000D03*
X52100000Y-84100000D03*
X52750000Y-84100000D03*
X52750000Y-82300000D03*
X52100000Y-82300000D03*
X51450000Y-82300000D03*
D50*
X65400000Y-78950000D03*
X64750000Y-78950000D03*
X64100000Y-78950000D03*
X63450000Y-78950000D03*
X62800000Y-78950000D03*
D51*
X61000000Y-78825000D03*
X67200000Y-78825000D03*
D52*
X65300000Y-76275000D03*
X62900000Y-76275000D03*
D53*
X68100000Y-76275000D03*
X60100000Y-76275000D03*
D12*
X53800000Y-85200000D03*
X53800000Y-86300000D03*
D43*
X53800000Y-87550000D03*
X52300000Y-87550000D03*
D28*
X49950000Y-80100000D03*
X49050000Y-80100000D03*
D33*
X49449300Y-114300000D03*
X47950700Y-114300000D03*
D22*
X49900000Y-110950000D03*
X49900000Y-111850000D03*
D13*
X57550000Y-97600000D03*
X56450000Y-97600000D03*
D54*
X69250000Y-113000000D03*
X69250000Y-114200000D03*
X67450000Y-113000000D03*
X67450000Y-114200000D03*
M02*
