G04 #@! TF.FileFunction,Legend,Bot*
%FSLAX46Y46*%
G04 Gerber Fmt 4.6, Leading zero omitted, Abs format (unit mm)*
G04 Created by KiCad (PCBNEW 4.0.6+dfsg1-1) date Wed May  2 02:34:31 2018*
%MOMM*%
%LPD*%
G01*
G04 APERTURE LIST*
%ADD10C,0.100000*%
%ADD11C,0.150000*%
%ADD12C,0.300000*%
%ADD13C,0.200000*%
%ADD14C,0.120000*%
G04 APERTURE END LIST*
D10*
X62500000Y-103100000D02*
X61500000Y-103100000D01*
D11*
X60837164Y-101241097D02*
X60306834Y-100710767D01*
X60130056Y-100988559D02*
X60079549Y-100988559D01*
X60003788Y-101013813D01*
X59877519Y-101140082D01*
X59852264Y-101215843D01*
X59852264Y-101266351D01*
X59877518Y-101342113D01*
X59928025Y-101392620D01*
X60029041Y-101443127D01*
X60635133Y-101443128D01*
X60306833Y-101771428D01*
X59725995Y-102251250D02*
X59776502Y-102251250D01*
X59877518Y-102200743D01*
X59928026Y-102150235D01*
X59978533Y-102049219D01*
X59978533Y-101948205D01*
X59953280Y-101872442D01*
X59877518Y-101746174D01*
X59801757Y-101670412D01*
X59675488Y-101594650D01*
X59599726Y-101569398D01*
X59498711Y-101569397D01*
X59397696Y-101619905D01*
X59347188Y-101670413D01*
X59296680Y-101771428D01*
X59296680Y-101821935D01*
X58715843Y-103362418D02*
X58741096Y-103337165D01*
X58766350Y-103261402D01*
X58766350Y-103109881D01*
X58741096Y-102832088D01*
X58715842Y-102705819D01*
X58665335Y-102604803D01*
X58614828Y-102554296D01*
X58539065Y-102529043D01*
X58463305Y-102554296D01*
X58438051Y-102579550D01*
X58412797Y-102655311D01*
X58438051Y-102731073D01*
X58463305Y-102756326D01*
X58539065Y-102781580D01*
X58589573Y-102781581D01*
X58842112Y-102731073D01*
X58892619Y-102731073D01*
X58968381Y-102756326D01*
X59044143Y-102832088D01*
X59069395Y-102907850D01*
X59069395Y-102958357D01*
X59044142Y-103034119D01*
X58968381Y-103109880D01*
X58892619Y-103135133D01*
X58842112Y-103135133D01*
X58665335Y-103109880D01*
X58564320Y-103059372D01*
X58513812Y-103008865D01*
X60715944Y-102155286D02*
X60741199Y-102079524D01*
X60816960Y-102003762D01*
X60917975Y-101953255D01*
X61018991Y-101953255D01*
X61094752Y-101978508D01*
X61221021Y-102054270D01*
X61296782Y-102130031D01*
X61372544Y-102256300D01*
X61397798Y-102332062D01*
X61397798Y-102433077D01*
X61347290Y-102534093D01*
X61296782Y-102584601D01*
X61195766Y-102635108D01*
X61145259Y-102635108D01*
X60968483Y-102458331D01*
X61069498Y-102357316D01*
X60968483Y-102912900D02*
X60438153Y-102382569D01*
X60236122Y-102584601D01*
X60210869Y-102660361D01*
X60210868Y-102710869D01*
X60236122Y-102786631D01*
X60311884Y-102862392D01*
X60387645Y-102887646D01*
X60438153Y-102887646D01*
X60513914Y-102862392D01*
X60715945Y-102660361D01*
X60438153Y-103443230D02*
X59907823Y-102912900D01*
X59554269Y-103266454D02*
X59453254Y-103367469D01*
X59428000Y-103443230D01*
X59428000Y-103544246D01*
X59503762Y-103670514D01*
X59680538Y-103847291D01*
X59806807Y-103923053D01*
X59907822Y-103923052D01*
X59983584Y-103897799D01*
X60084599Y-103796784D01*
X60109853Y-103721022D01*
X60109853Y-103620006D01*
X60034092Y-103493738D01*
X59857315Y-103316961D01*
X59731046Y-103241199D01*
X59630031Y-103241199D01*
X59554269Y-103266454D01*
X66365429Y-81511571D02*
X65794000Y-81511571D01*
X66079714Y-81797286D02*
X66079714Y-81225857D01*
X65186858Y-81404429D02*
X65079715Y-81440143D01*
X65044000Y-81475857D01*
X65008286Y-81547286D01*
X65008286Y-81654429D01*
X65044000Y-81725857D01*
X65079715Y-81761571D01*
X65151143Y-81797286D01*
X65436858Y-81797286D01*
X65436858Y-81047286D01*
X65186858Y-81047286D01*
X65115429Y-81083000D01*
X65079715Y-81118714D01*
X65044000Y-81190143D01*
X65044000Y-81261571D01*
X65079715Y-81333000D01*
X65115429Y-81368714D01*
X65186858Y-81404429D01*
X65436858Y-81404429D01*
X64722572Y-81583000D02*
X64365429Y-81583000D01*
X64794000Y-81797286D02*
X64544000Y-81047286D01*
X64294000Y-81797286D01*
X64151143Y-81047286D02*
X63722572Y-81047286D01*
X63936858Y-81797286D02*
X63936858Y-81047286D01*
X63579714Y-81047286D02*
X63151143Y-81047286D01*
X63365429Y-81797286D02*
X63365429Y-81047286D01*
X62901143Y-81511571D02*
X62329714Y-81511571D01*
X61972572Y-81797286D02*
X61972572Y-81047286D01*
X61686857Y-81047286D01*
X61615429Y-81083000D01*
X61579714Y-81118714D01*
X61544000Y-81190143D01*
X61544000Y-81297286D01*
X61579714Y-81368714D01*
X61615429Y-81404429D01*
X61686857Y-81440143D01*
X61972572Y-81440143D01*
X60901143Y-81797286D02*
X60901143Y-81404429D01*
X60936857Y-81333000D01*
X61008286Y-81297286D01*
X61151143Y-81297286D01*
X61222572Y-81333000D01*
X60901143Y-81761571D02*
X60972572Y-81797286D01*
X61151143Y-81797286D01*
X61222572Y-81761571D01*
X61258286Y-81690143D01*
X61258286Y-81618714D01*
X61222572Y-81547286D01*
X61151143Y-81511571D01*
X60972572Y-81511571D01*
X60901143Y-81475857D01*
X60222572Y-81797286D02*
X60222572Y-81047286D01*
X60222572Y-81761571D02*
X60294001Y-81797286D01*
X60436858Y-81797286D01*
X60508286Y-81761571D01*
X60544001Y-81725857D01*
X60579715Y-81654429D01*
X60579715Y-81440143D01*
X60544001Y-81368714D01*
X60508286Y-81333000D01*
X60436858Y-81297286D01*
X60294001Y-81297286D01*
X60222572Y-81333000D01*
D10*
X60500000Y-104100000D02*
X60500000Y-105300000D01*
X67000000Y-108200000D02*
X62300000Y-108200000D01*
X61500000Y-103100000D02*
X60500000Y-104100000D01*
D11*
X62003571Y-96982143D02*
X62039286Y-97089286D01*
X62039286Y-97267857D01*
X62003571Y-97339286D01*
X61967857Y-97375000D01*
X61896429Y-97410715D01*
X61825000Y-97410715D01*
X61753571Y-97375000D01*
X61717857Y-97339286D01*
X61682143Y-97267857D01*
X61646429Y-97125000D01*
X61610714Y-97053572D01*
X61575000Y-97017857D01*
X61503571Y-96982143D01*
X61432143Y-96982143D01*
X61360714Y-97017857D01*
X61325000Y-97053572D01*
X61289286Y-97125000D01*
X61289286Y-97303572D01*
X61325000Y-97410715D01*
X61289286Y-97660715D02*
X62039286Y-97839286D01*
X61503571Y-97982143D01*
X62039286Y-98125001D01*
X61289286Y-98303572D01*
X62039286Y-98589286D02*
X61289286Y-98589286D01*
X61289286Y-98767858D01*
X61325000Y-98875001D01*
X61396429Y-98946429D01*
X61467857Y-98982144D01*
X61610714Y-99017858D01*
X61717857Y-99017858D01*
X61860714Y-98982144D01*
X61932143Y-98946429D01*
X62003571Y-98875001D01*
X62039286Y-98767858D01*
X62039286Y-98589286D01*
D10*
X62500000Y-103100000D02*
X62500000Y-87800000D01*
X67000000Y-103100000D02*
X62500000Y-103100000D01*
X62500000Y-87800000D02*
X67000000Y-87800000D01*
X67000000Y-92900000D02*
X62500000Y-92900000D01*
D11*
X61289286Y-89203571D02*
X61896429Y-89203571D01*
X61967857Y-89239286D01*
X62003571Y-89275000D01*
X62039286Y-89346429D01*
X62039286Y-89489286D01*
X62003571Y-89560714D01*
X61967857Y-89596429D01*
X61896429Y-89632143D01*
X61289286Y-89632143D01*
X61825000Y-89953571D02*
X61825000Y-90310714D01*
X62039286Y-89882143D02*
X61289286Y-90132143D01*
X62039286Y-90382143D01*
X62039286Y-91060714D02*
X61682143Y-90810714D01*
X62039286Y-90632142D02*
X61289286Y-90632142D01*
X61289286Y-90917857D01*
X61325000Y-90989285D01*
X61360714Y-91025000D01*
X61432143Y-91060714D01*
X61539286Y-91060714D01*
X61610714Y-91025000D01*
X61646429Y-90989285D01*
X61682143Y-90917857D01*
X61682143Y-90632142D01*
X61289286Y-91275000D02*
X61289286Y-91703571D01*
X62039286Y-91489285D02*
X61289286Y-91489285D01*
X65972571Y-111563000D02*
X66044000Y-111527286D01*
X66151143Y-111527286D01*
X66258286Y-111563000D01*
X66329714Y-111634429D01*
X66365429Y-111705857D01*
X66401143Y-111848714D01*
X66401143Y-111955857D01*
X66365429Y-112098714D01*
X66329714Y-112170143D01*
X66258286Y-112241571D01*
X66151143Y-112277286D01*
X66079714Y-112277286D01*
X65972571Y-112241571D01*
X65936857Y-112205857D01*
X65936857Y-111955857D01*
X66079714Y-111955857D01*
X65615429Y-112277286D02*
X65615429Y-111527286D01*
X65186857Y-112277286D01*
X65186857Y-111527286D01*
X64829715Y-112277286D02*
X64829715Y-111527286D01*
X64651143Y-111527286D01*
X64544000Y-111563000D01*
X64472572Y-111634429D01*
X64436857Y-111705857D01*
X64401143Y-111848714D01*
X64401143Y-111955857D01*
X64436857Y-112098714D01*
X64472572Y-112170143D01*
X64544000Y-112241571D01*
X64651143Y-112277286D01*
X64829715Y-112277286D01*
X66115429Y-109344429D02*
X66008286Y-109380143D01*
X65972571Y-109415857D01*
X65936857Y-109487286D01*
X65936857Y-109594429D01*
X65972571Y-109665857D01*
X66008286Y-109701571D01*
X66079714Y-109737286D01*
X66365429Y-109737286D01*
X66365429Y-108987286D01*
X66115429Y-108987286D01*
X66044000Y-109023000D01*
X66008286Y-109058714D01*
X65972571Y-109130143D01*
X65972571Y-109201571D01*
X66008286Y-109273000D01*
X66044000Y-109308714D01*
X66115429Y-109344429D01*
X66365429Y-109344429D01*
X65472571Y-108987286D02*
X65329714Y-108987286D01*
X65258286Y-109023000D01*
X65186857Y-109094429D01*
X65151143Y-109237286D01*
X65151143Y-109487286D01*
X65186857Y-109630143D01*
X65258286Y-109701571D01*
X65329714Y-109737286D01*
X65472571Y-109737286D01*
X65544000Y-109701571D01*
X65615429Y-109630143D01*
X65651143Y-109487286D01*
X65651143Y-109237286D01*
X65615429Y-109094429D01*
X65544000Y-109023000D01*
X65472571Y-108987286D01*
X64686857Y-108987286D02*
X64544000Y-108987286D01*
X64472572Y-109023000D01*
X64401143Y-109094429D01*
X64365429Y-109237286D01*
X64365429Y-109487286D01*
X64401143Y-109630143D01*
X64472572Y-109701571D01*
X64544000Y-109737286D01*
X64686857Y-109737286D01*
X64758286Y-109701571D01*
X64829715Y-109630143D01*
X64865429Y-109487286D01*
X64865429Y-109237286D01*
X64829715Y-109094429D01*
X64758286Y-109023000D01*
X64686857Y-108987286D01*
X64151143Y-108987286D02*
X63722572Y-108987286D01*
X63936858Y-109737286D02*
X63936858Y-108987286D01*
X63329714Y-108987286D02*
X63258286Y-108987286D01*
X63186857Y-109023000D01*
X63151143Y-109058714D01*
X63115429Y-109130143D01*
X63079714Y-109273000D01*
X63079714Y-109451571D01*
X63115429Y-109594429D01*
X63151143Y-109665857D01*
X63186857Y-109701571D01*
X63258286Y-109737286D01*
X63329714Y-109737286D01*
X63401143Y-109701571D01*
X63436857Y-109665857D01*
X63472572Y-109594429D01*
X63508286Y-109451571D01*
X63508286Y-109273000D01*
X63472572Y-109130143D01*
X63436857Y-109058714D01*
X63401143Y-109023000D01*
X63329714Y-108987286D01*
X66365429Y-106559786D02*
X66365429Y-105809786D01*
X66079714Y-105809786D01*
X66008286Y-105845500D01*
X65972571Y-105881214D01*
X65936857Y-105952643D01*
X65936857Y-106059786D01*
X65972571Y-106131214D01*
X66008286Y-106166929D01*
X66079714Y-106202643D01*
X66365429Y-106202643D01*
X65651143Y-106345500D02*
X65294000Y-106345500D01*
X65722571Y-106559786D02*
X65472571Y-105809786D01*
X65222571Y-106559786D01*
X64865429Y-106131214D02*
X64936857Y-106095500D01*
X64972572Y-106059786D01*
X65008286Y-105988357D01*
X65008286Y-105952643D01*
X64972572Y-105881214D01*
X64936857Y-105845500D01*
X64865429Y-105809786D01*
X64722572Y-105809786D01*
X64651143Y-105845500D01*
X64615429Y-105881214D01*
X64579714Y-105952643D01*
X64579714Y-105988357D01*
X64615429Y-106059786D01*
X64651143Y-106095500D01*
X64722572Y-106131214D01*
X64865429Y-106131214D01*
X64936857Y-106166929D01*
X64972572Y-106202643D01*
X65008286Y-106274071D01*
X65008286Y-106416929D01*
X64972572Y-106488357D01*
X64936857Y-106524071D01*
X64865429Y-106559786D01*
X64722572Y-106559786D01*
X64651143Y-106524071D01*
X64615429Y-106488357D01*
X64579714Y-106416929D01*
X64579714Y-106274071D01*
X64615429Y-106202643D01*
X64651143Y-106166929D01*
X64722572Y-106131214D01*
X63722571Y-105774071D02*
X64365428Y-106738357D01*
X66401143Y-107799071D02*
X66294000Y-107834786D01*
X66115429Y-107834786D01*
X66044000Y-107799071D01*
X66008286Y-107763357D01*
X65972571Y-107691929D01*
X65972571Y-107620500D01*
X66008286Y-107549071D01*
X66044000Y-107513357D01*
X66115429Y-107477643D01*
X66258286Y-107441929D01*
X66329714Y-107406214D01*
X66365429Y-107370500D01*
X66401143Y-107299071D01*
X66401143Y-107227643D01*
X66365429Y-107156214D01*
X66329714Y-107120500D01*
X66258286Y-107084786D01*
X66079714Y-107084786D01*
X65972571Y-107120500D01*
X65222571Y-107763357D02*
X65258285Y-107799071D01*
X65365428Y-107834786D01*
X65436857Y-107834786D01*
X65544000Y-107799071D01*
X65615428Y-107727643D01*
X65651143Y-107656214D01*
X65686857Y-107513357D01*
X65686857Y-107406214D01*
X65651143Y-107263357D01*
X65615428Y-107191929D01*
X65544000Y-107120500D01*
X65436857Y-107084786D01*
X65365428Y-107084786D01*
X65258285Y-107120500D01*
X65222571Y-107156214D01*
X64544000Y-107834786D02*
X64901143Y-107834786D01*
X64901143Y-107084786D01*
X66365429Y-104657286D02*
X66365429Y-103907286D01*
X66079714Y-103907286D01*
X66008286Y-103943000D01*
X65972571Y-103978714D01*
X65936857Y-104050143D01*
X65936857Y-104157286D01*
X65972571Y-104228714D01*
X66008286Y-104264429D01*
X66079714Y-104300143D01*
X66365429Y-104300143D01*
X65186857Y-104585857D02*
X65222571Y-104621571D01*
X65329714Y-104657286D01*
X65401143Y-104657286D01*
X65508286Y-104621571D01*
X65579714Y-104550143D01*
X65615429Y-104478714D01*
X65651143Y-104335857D01*
X65651143Y-104228714D01*
X65615429Y-104085857D01*
X65579714Y-104014429D01*
X65508286Y-103943000D01*
X65401143Y-103907286D01*
X65329714Y-103907286D01*
X65222571Y-103943000D01*
X65186857Y-103978714D01*
X64472571Y-104657286D02*
X64901143Y-104657286D01*
X64686857Y-104657286D02*
X64686857Y-103907286D01*
X64758286Y-104014429D01*
X64829714Y-104085857D01*
X64901143Y-104121571D01*
X63794000Y-103907286D02*
X64151143Y-103907286D01*
X64186857Y-104264429D01*
X64151143Y-104228714D01*
X64079714Y-104193000D01*
X63901143Y-104193000D01*
X63829714Y-104228714D01*
X63794000Y-104264429D01*
X63758285Y-104335857D01*
X63758285Y-104514429D01*
X63794000Y-104585857D01*
X63829714Y-104621571D01*
X63901143Y-104657286D01*
X64079714Y-104657286D01*
X64151143Y-104621571D01*
X64186857Y-104585857D01*
X62901142Y-103871571D02*
X63543999Y-104835857D01*
X62686857Y-104621571D02*
X62579714Y-104657286D01*
X62401143Y-104657286D01*
X62329714Y-104621571D01*
X62294000Y-104585857D01*
X62258285Y-104514429D01*
X62258285Y-104443000D01*
X62294000Y-104371571D01*
X62329714Y-104335857D01*
X62401143Y-104300143D01*
X62544000Y-104264429D01*
X62615428Y-104228714D01*
X62651143Y-104193000D01*
X62686857Y-104121571D01*
X62686857Y-104050143D01*
X62651143Y-103978714D01*
X62615428Y-103943000D01*
X62544000Y-103907286D01*
X62365428Y-103907286D01*
X62258285Y-103943000D01*
X61936857Y-104657286D02*
X61936857Y-103907286D01*
X61758285Y-103907286D01*
X61651142Y-103943000D01*
X61579714Y-104014429D01*
X61543999Y-104085857D01*
X61508285Y-104228714D01*
X61508285Y-104335857D01*
X61543999Y-104478714D01*
X61579714Y-104550143D01*
X61651142Y-104621571D01*
X61758285Y-104657286D01*
X61936857Y-104657286D01*
X61222571Y-104443000D02*
X60865428Y-104443000D01*
X61293999Y-104657286D02*
X61043999Y-103907286D01*
X60793999Y-104657286D01*
X66401143Y-102081571D02*
X66294000Y-102117286D01*
X66115429Y-102117286D01*
X66044000Y-102081571D01*
X66008286Y-102045857D01*
X65972571Y-101974429D01*
X65972571Y-101903000D01*
X66008286Y-101831571D01*
X66044000Y-101795857D01*
X66115429Y-101760143D01*
X66258286Y-101724429D01*
X66329714Y-101688714D01*
X66365429Y-101653000D01*
X66401143Y-101581571D01*
X66401143Y-101510143D01*
X66365429Y-101438714D01*
X66329714Y-101403000D01*
X66258286Y-101367286D01*
X66079714Y-101367286D01*
X65972571Y-101403000D01*
X65722571Y-101367286D02*
X65544000Y-102117286D01*
X65401143Y-101581571D01*
X65258285Y-102117286D01*
X65079714Y-101367286D01*
X64365428Y-102045857D02*
X64401142Y-102081571D01*
X64508285Y-102117286D01*
X64579714Y-102117286D01*
X64686857Y-102081571D01*
X64758285Y-102010143D01*
X64794000Y-101938714D01*
X64829714Y-101795857D01*
X64829714Y-101688714D01*
X64794000Y-101545857D01*
X64758285Y-101474429D01*
X64686857Y-101403000D01*
X64579714Y-101367286D01*
X64508285Y-101367286D01*
X64401142Y-101403000D01*
X64365428Y-101438714D01*
X63686857Y-102117286D02*
X64044000Y-102117286D01*
X64044000Y-101367286D01*
X63436857Y-102117286D02*
X63436857Y-101367286D01*
X63008285Y-102117286D02*
X63329714Y-101688714D01*
X63008285Y-101367286D02*
X63436857Y-101795857D01*
X65972571Y-98863000D02*
X66044000Y-98827286D01*
X66151143Y-98827286D01*
X66258286Y-98863000D01*
X66329714Y-98934429D01*
X66365429Y-99005857D01*
X66401143Y-99148714D01*
X66401143Y-99255857D01*
X66365429Y-99398714D01*
X66329714Y-99470143D01*
X66258286Y-99541571D01*
X66151143Y-99577286D01*
X66079714Y-99577286D01*
X65972571Y-99541571D01*
X65936857Y-99505857D01*
X65936857Y-99255857D01*
X66079714Y-99255857D01*
X65615429Y-99577286D02*
X65615429Y-98827286D01*
X65186857Y-99577286D01*
X65186857Y-98827286D01*
X64829715Y-99577286D02*
X64829715Y-98827286D01*
X64651143Y-98827286D01*
X64544000Y-98863000D01*
X64472572Y-98934429D01*
X64436857Y-99005857D01*
X64401143Y-99148714D01*
X64401143Y-99255857D01*
X64436857Y-99398714D01*
X64472572Y-99470143D01*
X64544000Y-99541571D01*
X64651143Y-99577286D01*
X64829715Y-99577286D01*
X66401143Y-97001571D02*
X66294000Y-97037286D01*
X66115429Y-97037286D01*
X66044000Y-97001571D01*
X66008286Y-96965857D01*
X65972571Y-96894429D01*
X65972571Y-96823000D01*
X66008286Y-96751571D01*
X66044000Y-96715857D01*
X66115429Y-96680143D01*
X66258286Y-96644429D01*
X66329714Y-96608714D01*
X66365429Y-96573000D01*
X66401143Y-96501571D01*
X66401143Y-96430143D01*
X66365429Y-96358714D01*
X66329714Y-96323000D01*
X66258286Y-96287286D01*
X66079714Y-96287286D01*
X65972571Y-96323000D01*
X65722571Y-96287286D02*
X65544000Y-97037286D01*
X65401143Y-96501571D01*
X65258285Y-97037286D01*
X65079714Y-96287286D01*
X64794000Y-97037286D02*
X64794000Y-96287286D01*
X64615428Y-96287286D01*
X64508285Y-96323000D01*
X64436857Y-96394429D01*
X64401142Y-96465857D01*
X64365428Y-96608714D01*
X64365428Y-96715857D01*
X64401142Y-96858714D01*
X64436857Y-96930143D01*
X64508285Y-97001571D01*
X64615428Y-97037286D01*
X64794000Y-97037286D01*
X64044000Y-97037286D02*
X64044000Y-96287286D01*
X63543999Y-96287286D02*
X63401142Y-96287286D01*
X63329714Y-96323000D01*
X63258285Y-96394429D01*
X63222571Y-96537286D01*
X63222571Y-96787286D01*
X63258285Y-96930143D01*
X63329714Y-97001571D01*
X63401142Y-97037286D01*
X63543999Y-97037286D01*
X63615428Y-97001571D01*
X63686857Y-96930143D01*
X63722571Y-96787286D01*
X63722571Y-96537286D01*
X63686857Y-96394429D01*
X63615428Y-96323000D01*
X63543999Y-96287286D01*
X66365429Y-94497286D02*
X66365429Y-93747286D01*
X65936857Y-94497286D01*
X65936857Y-93747286D01*
X65151143Y-94497286D02*
X65401143Y-94140143D01*
X65579715Y-94497286D02*
X65579715Y-93747286D01*
X65294000Y-93747286D01*
X65222572Y-93783000D01*
X65186857Y-93818714D01*
X65151143Y-93890143D01*
X65151143Y-93997286D01*
X65186857Y-94068714D01*
X65222572Y-94104429D01*
X65294000Y-94140143D01*
X65579715Y-94140143D01*
X64865429Y-94461571D02*
X64758286Y-94497286D01*
X64579715Y-94497286D01*
X64508286Y-94461571D01*
X64472572Y-94425857D01*
X64436857Y-94354429D01*
X64436857Y-94283000D01*
X64472572Y-94211571D01*
X64508286Y-94175857D01*
X64579715Y-94140143D01*
X64722572Y-94104429D01*
X64794000Y-94068714D01*
X64829715Y-94033000D01*
X64865429Y-93961571D01*
X64865429Y-93890143D01*
X64829715Y-93818714D01*
X64794000Y-93783000D01*
X64722572Y-93747286D01*
X64544000Y-93747286D01*
X64436857Y-93783000D01*
X64222571Y-93747286D02*
X63794000Y-93747286D01*
X64008286Y-94497286D02*
X64008286Y-93747286D01*
X65936857Y-91957286D02*
X66186857Y-91600143D01*
X66365429Y-91957286D02*
X66365429Y-91207286D01*
X66079714Y-91207286D01*
X66008286Y-91243000D01*
X65972571Y-91278714D01*
X65936857Y-91350143D01*
X65936857Y-91457286D01*
X65972571Y-91528714D01*
X66008286Y-91564429D01*
X66079714Y-91600143D01*
X66365429Y-91600143D01*
X65686857Y-91207286D02*
X65186857Y-91957286D01*
X65186857Y-91207286D02*
X65686857Y-91957286D01*
X64901143Y-91957286D02*
X64901143Y-91207286D01*
X64722571Y-91207286D01*
X64615428Y-91243000D01*
X64544000Y-91314429D01*
X64508285Y-91385857D01*
X64472571Y-91528714D01*
X64472571Y-91635857D01*
X64508285Y-91778714D01*
X64544000Y-91850143D01*
X64615428Y-91921571D01*
X64722571Y-91957286D01*
X64901143Y-91957286D01*
X66472571Y-88667286D02*
X66044000Y-88667286D01*
X66258286Y-89417286D02*
X66258286Y-88667286D01*
X65865428Y-88667286D02*
X65365428Y-89417286D01*
X65365428Y-88667286D02*
X65865428Y-89417286D01*
X65079714Y-89417286D02*
X65079714Y-88667286D01*
X64901142Y-88667286D01*
X64793999Y-88703000D01*
X64722571Y-88774429D01*
X64686856Y-88845857D01*
X64651142Y-88988714D01*
X64651142Y-89095857D01*
X64686856Y-89238714D01*
X64722571Y-89310143D01*
X64793999Y-89381571D01*
X64901142Y-89417286D01*
X65079714Y-89417286D01*
X66365429Y-86591571D02*
X65794000Y-86591571D01*
X66079714Y-86877286D02*
X66079714Y-86305857D01*
X65508286Y-86127286D02*
X65044000Y-86127286D01*
X65294000Y-86413000D01*
X65186858Y-86413000D01*
X65115429Y-86448714D01*
X65079715Y-86484429D01*
X65044000Y-86555857D01*
X65044000Y-86734429D01*
X65079715Y-86805857D01*
X65115429Y-86841571D01*
X65186858Y-86877286D01*
X65401143Y-86877286D01*
X65472572Y-86841571D01*
X65508286Y-86805857D01*
X64722572Y-86805857D02*
X64686857Y-86841571D01*
X64722572Y-86877286D01*
X64758286Y-86841571D01*
X64722572Y-86805857D01*
X64722572Y-86877286D01*
X64436857Y-86127286D02*
X63972571Y-86127286D01*
X64222571Y-86413000D01*
X64115429Y-86413000D01*
X64044000Y-86448714D01*
X64008286Y-86484429D01*
X63972571Y-86555857D01*
X63972571Y-86734429D01*
X64008286Y-86805857D01*
X64044000Y-86841571D01*
X64115429Y-86877286D01*
X64329714Y-86877286D01*
X64401143Y-86841571D01*
X64436857Y-86805857D01*
X63758285Y-86127286D02*
X63508285Y-86877286D01*
X63258285Y-86127286D01*
X66365429Y-79733571D02*
X65794000Y-79733571D01*
X66079714Y-80019286D02*
X66079714Y-79447857D01*
X65472572Y-79983571D02*
X65365429Y-80019286D01*
X65186858Y-80019286D01*
X65115429Y-79983571D01*
X65079715Y-79947857D01*
X65044000Y-79876429D01*
X65044000Y-79805000D01*
X65079715Y-79733571D01*
X65115429Y-79697857D01*
X65186858Y-79662143D01*
X65329715Y-79626429D01*
X65401143Y-79590714D01*
X65436858Y-79555000D01*
X65472572Y-79483571D01*
X65472572Y-79412143D01*
X65436858Y-79340714D01*
X65401143Y-79305000D01*
X65329715Y-79269286D01*
X65151143Y-79269286D01*
X65044000Y-79305000D01*
X64579714Y-79269286D02*
X64436857Y-79269286D01*
X64365429Y-79305000D01*
X64294000Y-79376429D01*
X64258286Y-79519286D01*
X64258286Y-79769286D01*
X64294000Y-79912143D01*
X64365429Y-79983571D01*
X64436857Y-80019286D01*
X64579714Y-80019286D01*
X64651143Y-79983571D01*
X64722572Y-79912143D01*
X64758286Y-79769286D01*
X64758286Y-79519286D01*
X64722572Y-79376429D01*
X64651143Y-79305000D01*
X64579714Y-79269286D01*
X63579715Y-80019286D02*
X63936858Y-80019286D01*
X63936858Y-79269286D01*
X66365429Y-84051571D02*
X65794000Y-84051571D01*
X66079714Y-84337286D02*
X66079714Y-83765857D01*
X65186858Y-83944429D02*
X65079715Y-83980143D01*
X65044000Y-84015857D01*
X65008286Y-84087286D01*
X65008286Y-84194429D01*
X65044000Y-84265857D01*
X65079715Y-84301571D01*
X65151143Y-84337286D01*
X65436858Y-84337286D01*
X65436858Y-83587286D01*
X65186858Y-83587286D01*
X65115429Y-83623000D01*
X65079715Y-83658714D01*
X65044000Y-83730143D01*
X65044000Y-83801571D01*
X65079715Y-83873000D01*
X65115429Y-83908714D01*
X65186858Y-83944429D01*
X65436858Y-83944429D01*
X64722572Y-84123000D02*
X64365429Y-84123000D01*
X64794000Y-84337286D02*
X64544000Y-83587286D01*
X64294000Y-84337286D01*
X64151143Y-83587286D02*
X63722572Y-83587286D01*
X63936858Y-84337286D02*
X63936858Y-83587286D01*
X63579714Y-83587286D02*
X63151143Y-83587286D01*
X63365429Y-84337286D02*
X63365429Y-83587286D01*
X53671428Y-79225000D02*
X53742857Y-79189286D01*
X53850000Y-79189286D01*
X53957143Y-79225000D01*
X54028571Y-79296429D01*
X54064286Y-79367857D01*
X54100000Y-79510714D01*
X54100000Y-79617857D01*
X54064286Y-79760714D01*
X54028571Y-79832143D01*
X53957143Y-79903571D01*
X53850000Y-79939286D01*
X53778571Y-79939286D01*
X53671428Y-79903571D01*
X53635714Y-79867857D01*
X53635714Y-79617857D01*
X53778571Y-79617857D01*
X53314286Y-79939286D02*
X53314286Y-79189286D01*
X52885714Y-79939286D01*
X52885714Y-79189286D01*
X52528572Y-79939286D02*
X52528572Y-79189286D01*
X52350000Y-79189286D01*
X52242857Y-79225000D01*
X52171429Y-79296429D01*
X52135714Y-79367857D01*
X52100000Y-79510714D01*
X52100000Y-79617857D01*
X52135714Y-79760714D01*
X52171429Y-79832143D01*
X52242857Y-79903571D01*
X52350000Y-79939286D01*
X52528572Y-79939286D01*
D12*
X53503571Y-82957143D02*
X52003571Y-82957143D01*
X52003571Y-83528571D01*
X52075000Y-83671429D01*
X52146429Y-83742857D01*
X52289286Y-83814286D01*
X52503571Y-83814286D01*
X52646429Y-83742857D01*
X52717857Y-83671429D01*
X52789286Y-83528571D01*
X52789286Y-82957143D01*
X53432143Y-85028571D02*
X53503571Y-84885714D01*
X53503571Y-84600000D01*
X53432143Y-84457143D01*
X53289286Y-84385714D01*
X52717857Y-84385714D01*
X52575000Y-84457143D01*
X52503571Y-84600000D01*
X52503571Y-84885714D01*
X52575000Y-85028571D01*
X52717857Y-85100000D01*
X52860714Y-85100000D01*
X53003571Y-84385714D01*
X53432143Y-86385714D02*
X53503571Y-86242857D01*
X53503571Y-85957143D01*
X53432143Y-85814285D01*
X53360714Y-85742857D01*
X53217857Y-85671428D01*
X52789286Y-85671428D01*
X52646429Y-85742857D01*
X52575000Y-85814285D01*
X52503571Y-85957143D01*
X52503571Y-86242857D01*
X52575000Y-86385714D01*
X53503571Y-87671428D02*
X52717857Y-87671428D01*
X52575000Y-87599999D01*
X52503571Y-87457142D01*
X52503571Y-87171428D01*
X52575000Y-87028571D01*
X53432143Y-87671428D02*
X53503571Y-87528571D01*
X53503571Y-87171428D01*
X53432143Y-87028571D01*
X53289286Y-86957142D01*
X53146429Y-86957142D01*
X53003571Y-87028571D01*
X52932143Y-87171428D01*
X52932143Y-87528571D01*
X52860714Y-87671428D01*
X52503571Y-88385714D02*
X53503571Y-88385714D01*
X52646429Y-88385714D02*
X52575000Y-88457142D01*
X52503571Y-88600000D01*
X52503571Y-88814285D01*
X52575000Y-88957142D01*
X52717857Y-89028571D01*
X53503571Y-89028571D01*
X56053571Y-82957143D02*
X54553571Y-82957143D01*
X54553571Y-83528571D01*
X54625000Y-83671429D01*
X54696429Y-83742857D01*
X54839286Y-83814286D01*
X55053571Y-83814286D01*
X55196429Y-83742857D01*
X55267857Y-83671429D01*
X55339286Y-83528571D01*
X55339286Y-82957143D01*
X56053571Y-84457143D02*
X55053571Y-84457143D01*
X54553571Y-84457143D02*
X54625000Y-84385714D01*
X54696429Y-84457143D01*
X54625000Y-84528571D01*
X54553571Y-84457143D01*
X54696429Y-84457143D01*
X55982143Y-85814286D02*
X56053571Y-85671429D01*
X56053571Y-85385715D01*
X55982143Y-85242857D01*
X55910714Y-85171429D01*
X55767857Y-85100000D01*
X55339286Y-85100000D01*
X55196429Y-85171429D01*
X55125000Y-85242857D01*
X55053571Y-85385715D01*
X55053571Y-85671429D01*
X55125000Y-85814286D01*
X56053571Y-86671429D02*
X55982143Y-86528571D01*
X55910714Y-86457143D01*
X55767857Y-86385714D01*
X55339286Y-86385714D01*
X55196429Y-86457143D01*
X55125000Y-86528571D01*
X55053571Y-86671429D01*
X55053571Y-86885714D01*
X55125000Y-87028571D01*
X55196429Y-87100000D01*
X55339286Y-87171429D01*
X55767857Y-87171429D01*
X55910714Y-87100000D01*
X55982143Y-87028571D01*
X56053571Y-86885714D01*
X56053571Y-86671429D01*
X56053571Y-89742857D02*
X56053571Y-88885714D01*
X56053571Y-89314286D02*
X54553571Y-89314286D01*
X54767857Y-89171429D01*
X54910714Y-89028571D01*
X54982143Y-88885714D01*
X54553571Y-90671428D02*
X54553571Y-90814285D01*
X54625000Y-90957142D01*
X54696429Y-91028571D01*
X54839286Y-91100000D01*
X55125000Y-91171428D01*
X55482143Y-91171428D01*
X55767857Y-91100000D01*
X55910714Y-91028571D01*
X55982143Y-90957142D01*
X56053571Y-90814285D01*
X56053571Y-90671428D01*
X55982143Y-90528571D01*
X55910714Y-90457142D01*
X55767857Y-90385714D01*
X55482143Y-90314285D01*
X55125000Y-90314285D01*
X54839286Y-90385714D01*
X54696429Y-90457142D01*
X54625000Y-90528571D01*
X54553571Y-90671428D01*
X56053571Y-91814285D02*
X54553571Y-91814285D01*
X55125000Y-91814285D02*
X55053571Y-91957142D01*
X55053571Y-92242856D01*
X55125000Y-92385713D01*
X55196429Y-92457142D01*
X55339286Y-92528571D01*
X55767857Y-92528571D01*
X55910714Y-92457142D01*
X55982143Y-92385713D01*
X56053571Y-92242856D01*
X56053571Y-91957142D01*
X55982143Y-91814285D01*
D13*
X54992858Y-123802381D02*
X54992858Y-122802381D01*
X54659524Y-123516667D01*
X54326191Y-122802381D01*
X54326191Y-123802381D01*
X53421429Y-123802381D02*
X53421429Y-123278571D01*
X53469048Y-123183333D01*
X53564286Y-123135714D01*
X53754763Y-123135714D01*
X53850001Y-123183333D01*
X53421429Y-123754762D02*
X53516667Y-123802381D01*
X53754763Y-123802381D01*
X53850001Y-123754762D01*
X53897620Y-123659524D01*
X53897620Y-123564286D01*
X53850001Y-123469048D01*
X53754763Y-123421429D01*
X53516667Y-123421429D01*
X53421429Y-123373810D01*
X53040477Y-123135714D02*
X52802382Y-123802381D01*
X52564286Y-123135714D02*
X52802382Y-123802381D01*
X52897620Y-124040476D01*
X52945239Y-124088095D01*
X53040477Y-124135714D01*
X51469048Y-122897619D02*
X51421429Y-122850000D01*
X51326191Y-122802381D01*
X51088095Y-122802381D01*
X50992857Y-122850000D01*
X50945238Y-122897619D01*
X50897619Y-122992857D01*
X50897619Y-123088095D01*
X50945238Y-123230952D01*
X51516667Y-123802381D01*
X50897619Y-123802381D01*
X50278572Y-122802381D02*
X50183333Y-122802381D01*
X50088095Y-122850000D01*
X50040476Y-122897619D01*
X49992857Y-122992857D01*
X49945238Y-123183333D01*
X49945238Y-123421429D01*
X49992857Y-123611905D01*
X50040476Y-123707143D01*
X50088095Y-123754762D01*
X50183333Y-123802381D01*
X50278572Y-123802381D01*
X50373810Y-123754762D01*
X50421429Y-123707143D01*
X50469048Y-123611905D01*
X50516667Y-123421429D01*
X50516667Y-123183333D01*
X50469048Y-122992857D01*
X50421429Y-122897619D01*
X50373810Y-122850000D01*
X50278572Y-122802381D01*
X48992857Y-123802381D02*
X49564286Y-123802381D01*
X49278572Y-123802381D02*
X49278572Y-122802381D01*
X49373810Y-122945238D01*
X49469048Y-123040476D01*
X49564286Y-123088095D01*
X48421429Y-123230952D02*
X48516667Y-123183333D01*
X48564286Y-123135714D01*
X48611905Y-123040476D01*
X48611905Y-122992857D01*
X48564286Y-122897619D01*
X48516667Y-122850000D01*
X48421429Y-122802381D01*
X48230952Y-122802381D01*
X48135714Y-122850000D01*
X48088095Y-122897619D01*
X48040476Y-122992857D01*
X48040476Y-123040476D01*
X48088095Y-123135714D01*
X48135714Y-123183333D01*
X48230952Y-123230952D01*
X48421429Y-123230952D01*
X48516667Y-123278571D01*
X48564286Y-123326190D01*
X48611905Y-123421429D01*
X48611905Y-123611905D01*
X48564286Y-123707143D01*
X48516667Y-123754762D01*
X48421429Y-123802381D01*
X48230952Y-123802381D01*
X48135714Y-123754762D01*
X48088095Y-123707143D01*
X48040476Y-123611905D01*
X48040476Y-123421429D01*
X48088095Y-123326190D01*
X48135714Y-123278571D01*
X48230952Y-123230952D01*
X57052381Y-82945238D02*
X57052381Y-83516667D01*
X58052381Y-83230952D02*
X57052381Y-83230952D01*
X58052381Y-83992857D02*
X58004762Y-83897619D01*
X57957143Y-83850000D01*
X57861905Y-83802381D01*
X57576190Y-83802381D01*
X57480952Y-83850000D01*
X57433333Y-83897619D01*
X57385714Y-83992857D01*
X57385714Y-84135715D01*
X57433333Y-84230953D01*
X57480952Y-84278572D01*
X57576190Y-84326191D01*
X57861905Y-84326191D01*
X57957143Y-84278572D01*
X58004762Y-84230953D01*
X58052381Y-84135715D01*
X58052381Y-83992857D01*
X58004762Y-85469048D02*
X58052381Y-85611905D01*
X58052381Y-85850001D01*
X58004762Y-85945239D01*
X57957143Y-85992858D01*
X57861905Y-86040477D01*
X57766667Y-86040477D01*
X57671429Y-85992858D01*
X57623810Y-85945239D01*
X57576190Y-85850001D01*
X57528571Y-85659524D01*
X57480952Y-85564286D01*
X57433333Y-85516667D01*
X57338095Y-85469048D01*
X57242857Y-85469048D01*
X57147619Y-85516667D01*
X57100000Y-85564286D01*
X57052381Y-85659524D01*
X57052381Y-85897620D01*
X57100000Y-86040477D01*
X57385714Y-86469048D02*
X58385714Y-86469048D01*
X57433333Y-86469048D02*
X57385714Y-86564286D01*
X57385714Y-86754763D01*
X57433333Y-86850001D01*
X57480952Y-86897620D01*
X57576190Y-86945239D01*
X57861905Y-86945239D01*
X57957143Y-86897620D01*
X58004762Y-86850001D01*
X58052381Y-86754763D01*
X58052381Y-86564286D01*
X58004762Y-86469048D01*
X58052381Y-87802382D02*
X57528571Y-87802382D01*
X57433333Y-87754763D01*
X57385714Y-87659525D01*
X57385714Y-87469048D01*
X57433333Y-87373810D01*
X58004762Y-87802382D02*
X58052381Y-87707144D01*
X58052381Y-87469048D01*
X58004762Y-87373810D01*
X57909524Y-87326191D01*
X57814286Y-87326191D01*
X57719048Y-87373810D01*
X57671429Y-87469048D01*
X57671429Y-87707144D01*
X57623810Y-87802382D01*
X58004762Y-88707144D02*
X58052381Y-88611906D01*
X58052381Y-88421429D01*
X58004762Y-88326191D01*
X57957143Y-88278572D01*
X57861905Y-88230953D01*
X57576190Y-88230953D01*
X57480952Y-88278572D01*
X57433333Y-88326191D01*
X57385714Y-88421429D01*
X57385714Y-88611906D01*
X57433333Y-88707144D01*
X58004762Y-89516668D02*
X58052381Y-89421430D01*
X58052381Y-89230953D01*
X58004762Y-89135715D01*
X57909524Y-89088096D01*
X57528571Y-89088096D01*
X57433333Y-89135715D01*
X57385714Y-89230953D01*
X57385714Y-89421430D01*
X57433333Y-89516668D01*
X57528571Y-89564287D01*
X57623810Y-89564287D01*
X57719048Y-89088096D01*
X58052381Y-91183335D02*
X57528571Y-91183335D01*
X57433333Y-91135716D01*
X57385714Y-91040478D01*
X57385714Y-90850001D01*
X57433333Y-90754763D01*
X58004762Y-91183335D02*
X58052381Y-91088097D01*
X58052381Y-90850001D01*
X58004762Y-90754763D01*
X57909524Y-90707144D01*
X57814286Y-90707144D01*
X57719048Y-90754763D01*
X57671429Y-90850001D01*
X57671429Y-91088097D01*
X57623810Y-91183335D01*
X57385714Y-91659525D02*
X58052381Y-91659525D01*
X57480952Y-91659525D02*
X57433333Y-91707144D01*
X57385714Y-91802382D01*
X57385714Y-91945240D01*
X57433333Y-92040478D01*
X57528571Y-92088097D01*
X58052381Y-92088097D01*
X58052381Y-92992859D02*
X57052381Y-92992859D01*
X58004762Y-92992859D02*
X58052381Y-92897621D01*
X58052381Y-92707144D01*
X58004762Y-92611906D01*
X57957143Y-92564287D01*
X57861905Y-92516668D01*
X57576190Y-92516668D01*
X57480952Y-92564287D01*
X57433333Y-92611906D01*
X57385714Y-92707144D01*
X57385714Y-92897621D01*
X57433333Y-92992859D01*
X58052381Y-94230954D02*
X57052381Y-94230954D01*
X57433333Y-94230954D02*
X57385714Y-94326192D01*
X57385714Y-94516669D01*
X57433333Y-94611907D01*
X57480952Y-94659526D01*
X57576190Y-94707145D01*
X57861905Y-94707145D01*
X57957143Y-94659526D01*
X58004762Y-94611907D01*
X58052381Y-94516669D01*
X58052381Y-94326192D01*
X58004762Y-94230954D01*
X58004762Y-95516669D02*
X58052381Y-95421431D01*
X58052381Y-95230954D01*
X58004762Y-95135716D01*
X57909524Y-95088097D01*
X57528571Y-95088097D01*
X57433333Y-95135716D01*
X57385714Y-95230954D01*
X57385714Y-95421431D01*
X57433333Y-95516669D01*
X57528571Y-95564288D01*
X57623810Y-95564288D01*
X57719048Y-95088097D01*
X57385714Y-95897621D02*
X58052381Y-96135716D01*
X57385714Y-96373812D02*
X58052381Y-96135716D01*
X58290476Y-96040478D01*
X58338095Y-95992859D01*
X58385714Y-95897621D01*
X58052381Y-96897621D02*
X58004762Y-96802383D01*
X57957143Y-96754764D01*
X57861905Y-96707145D01*
X57576190Y-96707145D01*
X57480952Y-96754764D01*
X57433333Y-96802383D01*
X57385714Y-96897621D01*
X57385714Y-97040479D01*
X57433333Y-97135717D01*
X57480952Y-97183336D01*
X57576190Y-97230955D01*
X57861905Y-97230955D01*
X57957143Y-97183336D01*
X58004762Y-97135717D01*
X58052381Y-97040479D01*
X58052381Y-96897621D01*
X57385714Y-97659526D02*
X58052381Y-97659526D01*
X57480952Y-97659526D02*
X57433333Y-97707145D01*
X57385714Y-97802383D01*
X57385714Y-97945241D01*
X57433333Y-98040479D01*
X57528571Y-98088098D01*
X58052381Y-98088098D01*
X58052381Y-98992860D02*
X57052381Y-98992860D01*
X58004762Y-98992860D02*
X58052381Y-98897622D01*
X58052381Y-98707145D01*
X58004762Y-98611907D01*
X57957143Y-98564288D01*
X57861905Y-98516669D01*
X57576190Y-98516669D01*
X57480952Y-98564288D01*
X57433333Y-98611907D01*
X57385714Y-98707145D01*
X57385714Y-98897622D01*
X57433333Y-98992860D01*
D14*
X69652000Y-113268000D02*
X66992000Y-113268000D01*
X69652000Y-77648000D02*
X69652000Y-113268000D01*
X66992000Y-77648000D02*
X66992000Y-113268000D01*
X69652000Y-77648000D02*
X66992000Y-77648000D01*
X69652000Y-76378000D02*
X69652000Y-75048000D01*
X69652000Y-75048000D02*
X68322000Y-75048000D01*
X52270000Y-122210000D02*
X52780000Y-121860000D01*
X49760000Y-122010000D02*
X49500000Y-122010000D01*
X49960000Y-122210000D02*
X49760000Y-122010000D01*
X59360000Y-122210000D02*
X59150000Y-122010000D01*
X59150000Y-121860000D02*
X59150000Y-122010000D01*
X59150000Y-121860000D02*
X52780000Y-121860000D01*
X62250000Y-117250000D02*
X62250000Y-119050000D01*
X62250000Y-111250000D02*
X62250000Y-115950000D01*
X61220000Y-122210000D02*
X61420000Y-122010000D01*
X61220000Y-122210000D02*
X59360000Y-122210000D01*
X49960000Y-122210000D02*
X52270000Y-122210000D01*
X62250000Y-105940000D02*
X62250000Y-109550000D01*
X61800000Y-105940000D02*
X62250000Y-105940000D01*
X48280000Y-105940000D02*
X48280000Y-119950000D01*
X50200000Y-105940000D02*
X48280000Y-105940000D01*
M02*
